<svg xmlns="http://www.w3.org/2000/svg" xmlns:xlink="http://www.w3.org/1999/xlink" width="1920" zoomAndPan="magnify" viewBox="0 0 1440 809.999993" height="1080" preserveAspectRatio="xMidYMid meet" version="1.0"><defs><g/></defs><g fill="#fd6155" fill-opacity="0.302"><g transform="translate(217.207961, 753.946795)"><g><path d="M 156.675781 -477.023438 C 178.359375 -498.707031 201.441406 -511.296875 226.621094 -511.296875 C 274.183594 -511.296875 308.457031 -483.320312 342.03125 -449.746094 L 265.089844 -230.117188 C 237.113281 -247.605469 200.742188 -261.59375 160.171875 -261.59375 C 91.628906 -261.59375 13.988281 -226.621094 -4.894531 -144.785156 C -7.695312 -132.894531 -8.394531 -121.703125 -8.394531 -111.210938 C -8.394531 -30.777344 64.347656 18.886719 148.984375 18.886719 C 212.632812 18.886719 272.085938 -7.695312 311.953125 -62.25 C 348.324219 -27.976562 393.789062 0 459.539062 0 C 554.664062 0 638.597656 -59.453125 680.5625 -185.355469 C 681.960938 -189.550781 682.660156 -193.746094 682.660156 -197.246094 C 682.660156 -219.625 661.679688 -234.316406 639.996094 -234.316406 C 622.507812 -234.316406 604.324219 -224.523438 595.929688 -202.140625 C 565.152344 -122.402344 520.390625 -99.320312 470.027344 -99.320312 C 421.765625 -99.320312 393.789062 -132.195312 359.515625 -166.46875 L 430.859375 -376.304688 C 453.242188 -359.515625 480.519531 -342.730469 513.394531 -344.828125 C 583.339844 -344.828125 646.289062 -411.976562 646.289062 -491.011719 C 646.289062 -568.652344 588.933594 -616.214844 529.480469 -616.214844 C 477.023438 -616.214844 424.566406 -598.027344 384.695312 -543.472656 C 348.324219 -577.746094 302.859375 -607.121094 236.414062 -607.121094 C 176.261719 -607.121094 130.097656 -589.636719 88.128906 -539.972656 C 80.4375 -530.882812 76.9375 -520.390625 76.9375 -510.597656 C 76.9375 -485.417969 98.621094 -460.9375 123.101562 -460.9375 C 134.292969 -460.9375 146.183594 -465.832031 156.675781 -477.023438 Z M 519.691406 -513.394531 C 537.875 -513.394531 549.765625 -503.601562 549.765625 -481.917969 C 549.765625 -460.238281 532.980469 -447.648438 513.394531 -447.648438 C 493.109375 -447.648438 479.121094 -461.636719 470.730469 -472.828125 C 483.320312 -500.804688 501.503906 -513.394531 519.691406 -513.394531 Z M 146.183594 -69.945312 C 118.207031 -69.945312 102.121094 -89.53125 102.121094 -112.609375 C 102.121094 -117.507812 102.121094 -122.402344 103.519531 -127.300781 C 111.210938 -153.179688 135.691406 -173.464844 167.867188 -173.464844 C 193.046875 -173.464844 214.03125 -161.574219 234.316406 -142.6875 C 211.933594 -93.027344 178.359375 -69.945312 146.183594 -69.945312 Z M 146.183594 -69.945312 "/></g></g></g><g fill="#fd6155" fill-opacity="0.302"><g transform="translate(789.355629, 753.946795)"><g><path d="M 491.710938 -593.132812 L 152.480469 -593.132812 C 112.609375 -591.734375 95.824219 -569.351562 95.824219 -546.96875 C 95.824219 -525.984375 111.210938 -505.699219 136.390625 -505.699219 L 244.808594 -505.699219 L 91.628906 -65.046875 C 88.828125 -58.054688 88.128906 -51.058594 88.128906 -45.464844 C 88.128906 -16.085938 114.011719 0 140.589844 0 C 164.371094 0 188.152344 -12.589844 197.246094 -39.167969 L 360.214844 -505.699219 L 474.226562 -505.699219 C 513.394531 -505.699219 530.183594 -529.480469 530.183594 -551.863281 C 530.183594 -572.847656 515.492188 -593.132812 491.710938 -593.132812 Z M 491.710938 -593.132812 "/></g></g></g><g fill="#fd6155" fill-opacity="0.502"><g transform="translate(191.262179, 712.424864)"><g><path d="M 156.675781 -477.023438 C 178.359375 -498.707031 201.441406 -511.296875 226.621094 -511.296875 C 274.183594 -511.296875 308.457031 -483.320312 342.03125 -449.746094 L 265.089844 -230.117188 C 237.113281 -247.605469 200.742188 -261.59375 160.171875 -261.59375 C 91.628906 -261.59375 13.988281 -226.621094 -4.894531 -144.785156 C -7.695312 -132.894531 -8.394531 -121.703125 -8.394531 -111.210938 C -8.394531 -30.777344 64.347656 18.886719 148.984375 18.886719 C 212.632812 18.886719 272.085938 -7.695312 311.953125 -62.25 C 348.324219 -27.976562 393.789062 0 459.539062 0 C 554.664062 0 638.597656 -59.453125 680.5625 -185.355469 C 681.960938 -189.550781 682.660156 -193.746094 682.660156 -197.246094 C 682.660156 -219.625 661.679688 -234.316406 639.996094 -234.316406 C 622.507812 -234.316406 604.324219 -224.523438 595.929688 -202.140625 C 565.152344 -122.402344 520.390625 -99.320312 470.027344 -99.320312 C 421.765625 -99.320312 393.789062 -132.195312 359.515625 -166.46875 L 430.859375 -376.304688 C 453.242188 -359.515625 480.519531 -342.730469 513.394531 -344.828125 C 583.339844 -344.828125 646.289062 -411.976562 646.289062 -491.011719 C 646.289062 -568.652344 588.933594 -616.214844 529.480469 -616.214844 C 477.023438 -616.214844 424.566406 -598.027344 384.695312 -543.472656 C 348.324219 -577.746094 302.859375 -607.121094 236.414062 -607.121094 C 176.261719 -607.121094 130.097656 -589.636719 88.128906 -539.972656 C 80.4375 -530.882812 76.9375 -520.390625 76.9375 -510.597656 C 76.9375 -485.417969 98.621094 -460.9375 123.101562 -460.9375 C 134.292969 -460.9375 146.183594 -465.832031 156.675781 -477.023438 Z M 519.691406 -513.394531 C 537.875 -513.394531 549.765625 -503.601562 549.765625 -481.917969 C 549.765625 -460.238281 532.980469 -447.648438 513.394531 -447.648438 C 493.109375 -447.648438 479.121094 -461.636719 470.730469 -472.828125 C 483.320312 -500.804688 501.503906 -513.394531 519.691406 -513.394531 Z M 146.183594 -69.945312 C 118.207031 -69.945312 102.121094 -89.53125 102.121094 -112.609375 C 102.121094 -117.507812 102.121094 -122.402344 103.519531 -127.300781 C 111.210938 -153.179688 135.691406 -173.464844 167.867188 -173.464844 C 193.046875 -173.464844 214.03125 -161.574219 234.316406 -142.6875 C 211.933594 -93.027344 178.359375 -69.945312 146.183594 -69.945312 Z M 146.183594 -69.945312 "/></g></g></g><g fill="#fd6155" fill-opacity="0.502"><g transform="translate(763.409847, 712.424864)"><g><path d="M 491.710938 -593.132812 L 152.480469 -593.132812 C 112.609375 -591.734375 95.824219 -569.351562 95.824219 -546.96875 C 95.824219 -525.984375 111.210938 -505.699219 136.390625 -505.699219 L 244.808594 -505.699219 L 91.628906 -65.046875 C 88.828125 -58.054688 88.128906 -51.058594 88.128906 -45.464844 C 88.128906 -16.085938 114.011719 0 140.589844 0 C 164.371094 0 188.152344 -12.589844 197.246094 -39.167969 L 360.214844 -505.699219 L 474.226562 -505.699219 C 513.394531 -505.699219 530.183594 -529.480469 530.183594 -551.863281 C 530.183594 -572.847656 515.492188 -593.132812 491.710938 -593.132812 Z M 491.710938 -593.132812 "/></g></g></g><g fill="#ffe97d" fill-opacity="1"><g transform="translate(165.316399, 670.902931)"><g><path d="M 156.675781 -477.023438 C 178.359375 -498.707031 201.441406 -511.296875 226.621094 -511.296875 C 274.183594 -511.296875 308.457031 -483.320312 342.03125 -449.746094 L 265.089844 -230.117188 C 237.113281 -247.605469 200.742188 -261.59375 160.171875 -261.59375 C 91.628906 -261.59375 13.988281 -226.621094 -4.894531 -144.785156 C -7.695312 -132.894531 -8.394531 -121.703125 -8.394531 -111.210938 C -8.394531 -30.777344 64.347656 18.886719 148.984375 18.886719 C 212.632812 18.886719 272.085938 -7.695312 311.953125 -62.25 C 348.324219 -27.976562 393.789062 0 459.539062 0 C 554.664062 0 638.597656 -59.453125 680.5625 -185.355469 C 681.960938 -189.550781 682.660156 -193.746094 682.660156 -197.246094 C 682.660156 -219.625 661.679688 -234.316406 639.996094 -234.316406 C 622.507812 -234.316406 604.324219 -224.523438 595.929688 -202.140625 C 565.152344 -122.402344 520.390625 -99.320312 470.027344 -99.320312 C 421.765625 -99.320312 393.789062 -132.195312 359.515625 -166.46875 L 430.859375 -376.304688 C 453.242188 -359.515625 480.519531 -342.730469 513.394531 -344.828125 C 583.339844 -344.828125 646.289062 -411.976562 646.289062 -491.011719 C 646.289062 -568.652344 588.933594 -616.214844 529.480469 -616.214844 C 477.023438 -616.214844 424.566406 -598.027344 384.695312 -543.472656 C 348.324219 -577.746094 302.859375 -607.121094 236.414062 -607.121094 C 176.261719 -607.121094 130.097656 -589.636719 88.128906 -539.972656 C 80.4375 -530.882812 76.9375 -520.390625 76.9375 -510.597656 C 76.9375 -485.417969 98.621094 -460.9375 123.101562 -460.9375 C 134.292969 -460.9375 146.183594 -465.832031 156.675781 -477.023438 Z M 519.691406 -513.394531 C 537.875 -513.394531 549.765625 -503.601562 549.765625 -481.917969 C 549.765625 -460.238281 532.980469 -447.648438 513.394531 -447.648438 C 493.109375 -447.648438 479.121094 -461.636719 470.730469 -472.828125 C 483.320312 -500.804688 501.503906 -513.394531 519.691406 -513.394531 Z M 146.183594 -69.945312 C 118.207031 -69.945312 102.121094 -89.53125 102.121094 -112.609375 C 102.121094 -117.507812 102.121094 -122.402344 103.519531 -127.300781 C 111.210938 -153.179688 135.691406 -173.464844 167.867188 -173.464844 C 193.046875 -173.464844 214.03125 -161.574219 234.316406 -142.6875 C 211.933594 -93.027344 178.359375 -69.945312 146.183594 -69.945312 Z M 146.183594 -69.945312 "/></g></g></g><g fill="#ffe97d" fill-opacity="1"><g transform="translate(737.464068, 670.902931)"><g><path d="M 491.710938 -593.132812 L 152.480469 -593.132812 C 112.609375 -591.734375 95.824219 -569.351562 95.824219 -546.96875 C 95.824219 -525.984375 111.210938 -505.699219 136.390625 -505.699219 L 244.808594 -505.699219 L 91.628906 -65.046875 C 88.828125 -58.054688 88.128906 -51.058594 88.128906 -45.464844 C 88.128906 -16.085938 114.011719 0 140.589844 0 C 164.371094 0 188.152344 -12.589844 197.246094 -39.167969 L 360.214844 -505.699219 L 474.226562 -505.699219 C 513.394531 -505.699219 530.183594 -529.480469 530.183594 -551.863281 C 530.183594 -572.847656 515.492188 -593.132812 491.710938 -593.132812 Z M 491.710938 -593.132812 "/></g></g></g></svg>