<svg xmlns="http://www.w3.org/2000/svg" xmlns:xlink="http://www.w3.org/1999/xlink" width="1920" zoomAndPan="magnify" viewBox="0 0 1440 809.999993" height="1080" preserveAspectRatio="xMidYMid meet" version="1.0"><defs><g/></defs><g fill="#fd6155" fill-opacity="0.302"><g transform="translate(295.918584, 451.771708)"><g><path d="M 200.59375 -132.519531 C 197.636719 -111.492188 185.476562 -95.8125 168.457031 -92.847656 C 166.210938 -92.457031 163.90625 -92.386719 161.601562 -92.316406 L 183.265625 -232.070312 C 184.339844 -239.207031 184.492188 -247.835938 183.375 -254.257812 C 176.273438 -295.042969 137.414062 -311.105469 103.695312 -305.238281 C 92.136719 -303.226562 82.53125 -297.582031 73.21875 -288.351562 C 70.984375 -293.585938 58.625 -298.054688 46.746094 -295.984375 C 36.148438 -294.140625 26.125 -287.101562 23.613281 -271.113281 L -16.757812 -27.851562 C -17.636719 -23.398438 -17.664062 -19.753906 -17.050781 -16.222656 C -14.3125 -0.488281 1.230469 7.066406 15.359375 4.605469 C 25.636719 2.816406 35.28125 -4.488281 38.671875 -17.320312 C 52.890625 -7.882812 73.300781 -8.457031 81.972656 -9.96875 C 106.378906 -14.214844 131.035156 -28.433594 146.460938 -51.960938 C 154.347656 -50.359375 162.65625 -50.148438 172.289062 -51.828125 C 210.183594 -58.421875 237.125 -89.914062 240.582031 -130.878906 C 240.890625 -132.917969 240.554688 -134.84375 240.21875 -136.769531 C 238.261719 -148.011719 227.945312 -152.171875 218.308594 -150.492188 C 209.640625 -148.984375 201.75 -142.980469 200.59375 -132.519531 Z M 50.695312 -119.332031 L 66.570312 -214.40625 C 72.625 -244.242188 87.71875 -254.480469 102.488281 -257.050781 C 115.335938 -259.289062 127.175781 -252.085938 129.636719 -237.957031 C 130.304688 -234.101562 130.070312 -229.757812 129.566406 -225.039062 L 112.5625 -115.542969 C 99.171875 -122.144531 84.1875 -126.484375 64.28125 -123.019531 C 59.460938 -122.179688 54.703125 -121.023438 50.695312 -119.332031 Z M 73.324219 -50.152344 C 61.441406 -48.082031 53.691406 -52.6875 52.40625 -60.074219 C 50.617188 -70.351562 59.761719 -80.546875 72.929688 -82.835938 C 84.167969 -84.792969 94.222656 -80.257812 103.914062 -74.003906 C 96.988281 -60.554688 84.5625 -52.105469 73.324219 -50.152344 Z M 73.324219 -50.152344 "/></g></g></g><g fill="#fd6155" fill-opacity="0.302"><g transform="translate(501.757691, 415.942033)"><g><path d="M 48.429688 -233.085938 C 62.878906 -235.601562 72.695312 -249.550781 70.121094 -264.320312 C 67.605469 -278.773438 53.714844 -288.265625 39.261719 -285.75 C 24.8125 -283.234375 14.941406 -269.605469 17.457031 -255.15625 C 20.027344 -240.382812 33.976562 -230.570312 48.429688 -233.085938 Z M 33.585938 -61.761719 L 51.355469 -168.746094 C 51.914062 -173.144531 52.738281 -177.917969 52.179688 -181.128906 C 49.71875 -195.261719 37.835938 -200.800781 26.917969 -198.902344 C 16.964844 -197.167969 7.59375 -188.257812 5.085938 -172.269531 C 0.0625 -140.296875 -6.773438 -99.734375 -11.851562 -68.078125 C -12.660156 -61.320312 -13.71875 -52.203125 -12.769531 -46.746094 C -7.515625 -16.558594 20.550781 -3.578125 50.097656 -8.71875 C 81.566406 -14.199219 112.894531 -39.503906 123.804688 -109.890625 C 124.109375 -111.929688 124.097656 -113.910156 123.761719 -115.839844 C 122.027344 -125.792969 111.332031 -130.21875 101.699219 -128.539062 C 93.027344 -127.03125 85.140625 -121.027344 83.019531 -110.402344 C 75.191406 -66.027344 60.464844 -49.898438 47.621094 -47.660156 C 40.234375 -46.375 34.578125 -50.355469 33.515625 -56.457031 C 33.234375 -58.0625 33.277344 -59.722656 33.585938 -61.761719 Z M 33.585938 -61.761719 "/></g></g></g><g fill="#fd6155" fill-opacity="0.302"><g transform="translate(590.38731, 400.514594)"><g><path d="M 56.667969 -219.960938 C 64.054688 -221.246094 73.089844 -224.472656 79.089844 -231.804688 L 126.207031 -289.964844 C 134.386719 -299.992188 119.890625 -311.035156 102.230469 -307.960938 C 92.917969 -306.339844 83.785156 -301.769531 78.648438 -293.265625 L 45.191406 -236.492188 C 36.980469 -222.820312 44.789062 -217.890625 56.667969 -219.960938 Z M 182.457031 -143.589844 C 173.464844 -142.023438 164.457031 -134.832031 162.730469 -121.960938 C 157.082031 -80.28125 139.140625 -63.59375 124.691406 -61.078125 C 119.230469 -60.125 115.515625 -62.457031 114.621094 -67.597656 C 114.175781 -70.164062 114.257812 -73.488281 114.605469 -77.1875 L 132.460938 -187.496094 C 133.078125 -191.570312 133.105469 -195.214844 132.546875 -198.429688 C 130.085938 -212.558594 117.238281 -217.929688 105.355469 -215.863281 C 96.367188 -214.296875 87.78125 -208.503906 84.039062 -199.578125 C 76.570312 -202.582031 63.207031 -205.21875 46.828125 -202.367188 C 25.632812 -198.675781 4.523438 -183.09375 0.15625 -156.855469 L -14.992188 -65.21875 C -15.914062 -59.101562 -16.191406 -53.097656 -15.183594 -47.316406 C -10.542969 -20.664062 14.773438 -2.570312 43.03125 -7.492188 C 58.125 -10.117188 72.363281 -19.542969 82.402344 -32.210938 C 95.25 -19.226562 118.496094 -20.625 128.132812 -22.304688 C 154.785156 -26.941406 188.082031 -46.636719 199.578125 -102.234375 C 201.894531 -115.542969 204.03125 -124.183594 203.023438 -129.964844 C 201.125 -140.882812 191.769531 -145.210938 182.457031 -143.589844 Z M 75.921875 -128.355469 L 68.835938 -77.824219 C 65.726562 -55.777344 54.363281 -48.835938 47.621094 -47.660156 C 40.554688 -46.429688 36.238281 -50.3125 34.953125 -57.699219 C 34.226562 -61.875 34.519531 -65.894531 34.980469 -68.953125 L 44.296875 -137.078125 C 46.988281 -157.726562 55.53125 -161.863281 60.671875 -162.757812 C 66.773438 -163.820312 74.578125 -158.890625 76.480469 -147.972656 C 77.316406 -143.15625 77.09375 -136.832031 75.921875 -128.355469 Z M 75.921875 -128.355469 "/></g></g></g><g fill="#fd6155" fill-opacity="0.302"><g transform="translate(758.976268, 371.168919)"><g><path d="M 146.601562 -121.46875 C 139.878906 -87.875 127.582031 -61.578125 114.09375 -59.230469 C 109.597656 -58.449219 106.621094 -62.234375 105.839844 -66.730469 C 105.503906 -68.65625 105.378906 -71.28125 105.894531 -74.015625 L 115.675781 -129.980469 C 116.484375 -136.738281 116.761719 -142.742188 115.8125 -148.203125 C 110.5 -178.710938 69.730469 -184.847656 50.796875 -187.175781 C 51.3125 -189.914062 51.128906 -192.859375 50.683594 -195.425781 C 48.113281 -210.199219 32.765625 -220.433594 18.3125 -217.917969 C -0.632812 -214.617188 -8.964844 -195.964844 -5.777344 -177.660156 C -4.382812 -169.628906 -0.0390625 -161.785156 6.21875 -156.257812 L -6.210938 -88.914062 C -6.40625 -86.230469 -6.28125 -83.605469 -5.945312 -81.679688 C -4.101562 -71.082031 5.199219 -67.078125 14.191406 -68.640625 C 23.179688 -70.207031 31.601562 -76.964844 33.664062 -87.914062 L 43.261719 -139.214844 C 52.757812 -137.886719 65.03125 -137.707031 66.929688 -126.789062 C 67.210938 -125.183594 67.226562 -123.203125 66.972656 -120.84375 L 59.664062 -79.203125 C 58.378906 -71.371094 58.269531 -64.402344 59.386719 -57.980469 C 64.25 -30.042969 89.59375 -15.59375 116.25 -20.234375 C 151.253906 -26.328125 177.621094 -63.011719 187.121094 -120.582031 C 187.429688 -122.621094 187.472656 -124.28125 187.191406 -125.886719 C 185.515625 -135.519531 173.800781 -140.097656 163.523438 -138.308594 C 155.171875 -136.855469 147.816406 -131.605469 146.601562 -121.46875 Z M 146.601562 -121.46875 "/></g></g></g><g fill="#fd6155" fill-opacity="0.302"><g transform="translate(910.866874, 344.729866)"><g><path d="M 48.429688 -233.085938 C 62.878906 -235.601562 72.695312 -249.550781 70.121094 -264.320312 C 67.605469 -278.773438 53.714844 -288.265625 39.261719 -285.75 C 24.8125 -283.234375 14.941406 -269.605469 17.457031 -255.15625 C 20.027344 -240.382812 33.976562 -230.570312 48.429688 -233.085938 Z M 33.585938 -61.761719 L 51.355469 -168.746094 C 51.914062 -173.144531 52.738281 -177.917969 52.179688 -181.128906 C 49.71875 -195.261719 37.835938 -200.800781 26.917969 -198.902344 C 16.964844 -197.167969 7.59375 -188.257812 5.085938 -172.269531 C 0.0625 -140.296875 -6.773438 -99.734375 -11.851562 -68.078125 C -12.660156 -61.320312 -13.71875 -52.203125 -12.769531 -46.746094 C -7.515625 -16.558594 20.550781 -3.578125 50.097656 -8.71875 C 81.566406 -14.199219 112.894531 -39.503906 123.804688 -109.890625 C 124.109375 -111.929688 124.097656 -113.910156 123.761719 -115.839844 C 122.027344 -125.792969 111.332031 -130.21875 101.699219 -128.539062 C 93.027344 -127.03125 85.140625 -121.027344 83.019531 -110.402344 C 75.191406 -66.027344 60.464844 -49.898438 47.621094 -47.660156 C 40.234375 -46.375 34.578125 -50.355469 33.515625 -56.457031 C 33.234375 -58.0625 33.277344 -59.722656 33.585938 -61.761719 Z M 33.585938 -61.761719 "/></g></g></g><g fill="#fd6155" fill-opacity="0.302"><g transform="translate(999.496493, 329.302427)"><g><path d="M 124.15625 -90.761719 C 124.210938 -90.441406 123.316406 -95.578125 120.96875 -101.457031 C 122.9375 -103.453125 124.738281 -106.414062 126.164062 -109.640625 C 130.226562 -118.617188 134.996094 -148.234375 132.761719 -161.078125 C 127.058594 -193.832031 96.28125 -210.976562 61.601562 -204.9375 C 31.414062 -199.683594 5.738281 -178.007812 0.4375 -147.640625 L -11.488281 -77.40625 C -12.980469 -68.875 -12.867188 -60.625 -11.640625 -53.558594 C -5.769531 -19.839844 26.652344 -4.640625 59.410156 -10.339844 C 84.457031 -14.703125 105.859375 -26.699219 115.324219 -52.167969 C 121.382812 -51.566406 128.292969 -51.777344 135.039062 -52.953125 C 172.929688 -59.546875 198.101562 -91.722656 203.148438 -127.339844 C 203.5 -131.042969 203.582031 -134.363281 203.078125 -137.253906 C 201.011719 -149.136719 191.167969 -154.371094 181.855469 -152.75 C 173.183594 -151.242188 165.085938 -144.539062 163.621094 -132.039062 C 160.023438 -110.902344 147.652344 -94.519531 128.707031 -91.222656 C 127.421875 -91 125.496094 -90.664062 124.15625 -90.761719 Z M 85.683594 -135.015625 C 85.222656 -131.957031 84.707031 -129.222656 84.832031 -126.597656 C 66.835938 -125.449219 53.613281 -108.257812 56.96875 -88.992188 C 59.191406 -78.128906 65.65625 -73.300781 72.652344 -69.222656 C 70.433594 -57.257812 62.070312 -50.175781 52.113281 -48.445312 C 39.589844 -46.265625 35.039062 -53.410156 33.695312 -61.121094 C 32.632812 -67.21875 33.234375 -73.28125 33.960938 -76.714844 L 45.414062 -145.875 C 47.421875 -157.140625 57.597656 -165.199219 67.554688 -166.933594 C 77.507812 -168.664062 85.105469 -163.039062 86.390625 -155.652344 C 87.398438 -149.875 86.757812 -142.152344 85.683594 -135.015625 Z M 85.683594 -135.015625 "/></g></g></g><g fill="#fd6155" fill-opacity="0.502"><g transform="translate(280.687549, 434.781118)"><g><path d="M 200.59375 -132.519531 C 197.636719 -111.492188 185.476562 -95.8125 168.457031 -92.847656 C 166.210938 -92.457031 163.90625 -92.386719 161.601562 -92.316406 L 183.265625 -232.070312 C 184.339844 -239.207031 184.492188 -247.835938 183.375 -254.257812 C 176.273438 -295.042969 137.414062 -311.105469 103.695312 -305.238281 C 92.136719 -303.226562 82.53125 -297.582031 73.21875 -288.351562 C 70.984375 -293.585938 58.625 -298.054688 46.746094 -295.984375 C 36.148438 -294.140625 26.125 -287.101562 23.613281 -271.113281 L -16.757812 -27.851562 C -17.636719 -23.398438 -17.664062 -19.753906 -17.050781 -16.222656 C -14.3125 -0.488281 1.230469 7.066406 15.359375 4.605469 C 25.636719 2.816406 35.28125 -4.488281 38.671875 -17.320312 C 52.890625 -7.882812 73.300781 -8.457031 81.972656 -9.96875 C 106.378906 -14.214844 131.035156 -28.433594 146.460938 -51.960938 C 154.347656 -50.359375 162.65625 -50.148438 172.289062 -51.828125 C 210.183594 -58.421875 237.125 -89.914062 240.582031 -130.878906 C 240.890625 -132.917969 240.554688 -134.84375 240.21875 -136.769531 C 238.261719 -148.011719 227.945312 -152.171875 218.308594 -150.492188 C 209.640625 -148.984375 201.75 -142.980469 200.59375 -132.519531 Z M 50.695312 -119.332031 L 66.570312 -214.40625 C 72.625 -244.242188 87.71875 -254.480469 102.488281 -257.050781 C 115.335938 -259.289062 127.175781 -252.085938 129.636719 -237.957031 C 130.304688 -234.101562 130.070312 -229.757812 129.566406 -225.039062 L 112.5625 -115.542969 C 99.171875 -122.144531 84.1875 -126.484375 64.28125 -123.019531 C 59.460938 -122.179688 54.703125 -121.023438 50.695312 -119.332031 Z M 73.324219 -50.152344 C 61.441406 -48.082031 53.691406 -52.6875 52.40625 -60.074219 C 50.617188 -70.351562 59.761719 -80.546875 72.929688 -82.835938 C 84.167969 -84.792969 94.222656 -80.257812 103.914062 -74.003906 C 96.988281 -60.554688 84.5625 -52.105469 73.324219 -50.152344 Z M 73.324219 -50.152344 "/></g></g></g><g fill="#fd6155" fill-opacity="0.502"><g transform="translate(486.526656, 398.951443)"><g><path d="M 48.429688 -233.085938 C 62.878906 -235.601562 72.695312 -249.550781 70.121094 -264.320312 C 67.605469 -278.773438 53.714844 -288.265625 39.261719 -285.75 C 24.8125 -283.234375 14.941406 -269.605469 17.457031 -255.15625 C 20.027344 -240.382812 33.976562 -230.570312 48.429688 -233.085938 Z M 33.585938 -61.761719 L 51.355469 -168.746094 C 51.914062 -173.144531 52.738281 -177.917969 52.179688 -181.128906 C 49.71875 -195.261719 37.835938 -200.800781 26.917969 -198.902344 C 16.964844 -197.167969 7.59375 -188.257812 5.085938 -172.269531 C 0.0625 -140.296875 -6.773438 -99.734375 -11.851562 -68.078125 C -12.660156 -61.320312 -13.71875 -52.203125 -12.769531 -46.746094 C -7.515625 -16.558594 20.550781 -3.578125 50.097656 -8.71875 C 81.566406 -14.199219 112.894531 -39.503906 123.804688 -109.890625 C 124.109375 -111.929688 124.097656 -113.910156 123.761719 -115.839844 C 122.027344 -125.792969 111.332031 -130.21875 101.699219 -128.539062 C 93.027344 -127.03125 85.140625 -121.027344 83.019531 -110.402344 C 75.191406 -66.027344 60.464844 -49.898438 47.621094 -47.660156 C 40.234375 -46.375 34.578125 -50.355469 33.515625 -56.457031 C 33.234375 -58.0625 33.277344 -59.722656 33.585938 -61.761719 Z M 33.585938 -61.761719 "/></g></g></g><g fill="#fd6155" fill-opacity="0.502"><g transform="translate(575.156275, 383.524004)"><g><path d="M 56.667969 -219.960938 C 64.054688 -221.246094 73.089844 -224.472656 79.089844 -231.804688 L 126.207031 -289.964844 C 134.386719 -299.992188 119.890625 -311.035156 102.230469 -307.960938 C 92.917969 -306.339844 83.785156 -301.769531 78.648438 -293.265625 L 45.191406 -236.492188 C 36.980469 -222.820312 44.789062 -217.890625 56.667969 -219.960938 Z M 182.457031 -143.589844 C 173.464844 -142.023438 164.457031 -134.832031 162.730469 -121.960938 C 157.082031 -80.28125 139.140625 -63.59375 124.691406 -61.078125 C 119.230469 -60.125 115.515625 -62.457031 114.621094 -67.597656 C 114.175781 -70.164062 114.257812 -73.488281 114.605469 -77.1875 L 132.460938 -187.496094 C 133.078125 -191.570312 133.105469 -195.214844 132.546875 -198.429688 C 130.085938 -212.558594 117.238281 -217.929688 105.355469 -215.863281 C 96.367188 -214.296875 87.78125 -208.503906 84.039062 -199.578125 C 76.570312 -202.582031 63.207031 -205.21875 46.828125 -202.367188 C 25.632812 -198.675781 4.523438 -183.09375 0.15625 -156.855469 L -14.992188 -65.21875 C -15.914062 -59.101562 -16.191406 -53.097656 -15.183594 -47.316406 C -10.542969 -20.664062 14.773438 -2.570312 43.03125 -7.492188 C 58.125 -10.117188 72.363281 -19.542969 82.402344 -32.210938 C 95.25 -19.226562 118.496094 -20.625 128.132812 -22.304688 C 154.785156 -26.941406 188.082031 -46.636719 199.578125 -102.234375 C 201.894531 -115.542969 204.03125 -124.183594 203.023438 -129.964844 C 201.125 -140.882812 191.769531 -145.210938 182.457031 -143.589844 Z M 75.921875 -128.355469 L 68.835938 -77.824219 C 65.726562 -55.777344 54.363281 -48.835938 47.621094 -47.660156 C 40.554688 -46.429688 36.238281 -50.3125 34.953125 -57.699219 C 34.226562 -61.875 34.519531 -65.894531 34.980469 -68.953125 L 44.296875 -137.078125 C 46.988281 -157.726562 55.53125 -161.863281 60.671875 -162.757812 C 66.773438 -163.820312 74.578125 -158.890625 76.480469 -147.972656 C 77.316406 -143.15625 77.09375 -136.832031 75.921875 -128.355469 Z M 75.921875 -128.355469 "/></g></g></g><g fill="#fd6155" fill-opacity="0.502"><g transform="translate(743.745233, 354.178329)"><g><path d="M 146.601562 -121.46875 C 139.878906 -87.875 127.582031 -61.578125 114.09375 -59.230469 C 109.597656 -58.449219 106.621094 -62.234375 105.839844 -66.730469 C 105.503906 -68.65625 105.378906 -71.28125 105.894531 -74.015625 L 115.675781 -129.980469 C 116.484375 -136.738281 116.761719 -142.742188 115.8125 -148.203125 C 110.5 -178.710938 69.730469 -184.847656 50.796875 -187.175781 C 51.3125 -189.914062 51.128906 -192.859375 50.683594 -195.425781 C 48.113281 -210.199219 32.765625 -220.433594 18.3125 -217.917969 C -0.632812 -214.617188 -8.964844 -195.964844 -5.777344 -177.660156 C -4.382812 -169.628906 -0.0390625 -161.785156 6.21875 -156.257812 L -6.210938 -88.914062 C -6.40625 -86.230469 -6.28125 -83.605469 -5.945312 -81.679688 C -4.101562 -71.082031 5.199219 -67.078125 14.191406 -68.640625 C 23.179688 -70.207031 31.601562 -76.964844 33.664062 -87.914062 L 43.261719 -139.214844 C 52.757812 -137.886719 65.03125 -137.707031 66.929688 -126.789062 C 67.210938 -125.183594 67.226562 -123.203125 66.972656 -120.84375 L 59.664062 -79.203125 C 58.378906 -71.371094 58.269531 -64.402344 59.386719 -57.980469 C 64.25 -30.042969 89.59375 -15.59375 116.25 -20.234375 C 151.253906 -26.328125 177.621094 -63.011719 187.121094 -120.582031 C 187.429688 -122.621094 187.472656 -124.28125 187.191406 -125.886719 C 185.515625 -135.519531 173.800781 -140.097656 163.523438 -138.308594 C 155.171875 -136.855469 147.816406 -131.605469 146.601562 -121.46875 Z M 146.601562 -121.46875 "/></g></g></g><g fill="#fd6155" fill-opacity="0.502"><g transform="translate(895.635839, 327.739276)"><g><path d="M 48.429688 -233.085938 C 62.878906 -235.601562 72.695312 -249.550781 70.121094 -264.320312 C 67.605469 -278.773438 53.714844 -288.265625 39.261719 -285.75 C 24.8125 -283.234375 14.941406 -269.605469 17.457031 -255.15625 C 20.027344 -240.382812 33.976562 -230.570312 48.429688 -233.085938 Z M 33.585938 -61.761719 L 51.355469 -168.746094 C 51.914062 -173.144531 52.738281 -177.917969 52.179688 -181.128906 C 49.71875 -195.261719 37.835938 -200.800781 26.917969 -198.902344 C 16.964844 -197.167969 7.59375 -188.257812 5.085938 -172.269531 C 0.0625 -140.296875 -6.773438 -99.734375 -11.851562 -68.078125 C -12.660156 -61.320312 -13.71875 -52.203125 -12.769531 -46.746094 C -7.515625 -16.558594 20.550781 -3.578125 50.097656 -8.71875 C 81.566406 -14.199219 112.894531 -39.503906 123.804688 -109.890625 C 124.109375 -111.929688 124.097656 -113.910156 123.761719 -115.839844 C 122.027344 -125.792969 111.332031 -130.21875 101.699219 -128.539062 C 93.027344 -127.03125 85.140625 -121.027344 83.019531 -110.402344 C 75.191406 -66.027344 60.464844 -49.898438 47.621094 -47.660156 C 40.234375 -46.375 34.578125 -50.355469 33.515625 -56.457031 C 33.234375 -58.0625 33.277344 -59.722656 33.585938 -61.761719 Z M 33.585938 -61.761719 "/></g></g></g><g fill="#fd6155" fill-opacity="0.502"><g transform="translate(984.265457, 312.311836)"><g><path d="M 124.15625 -90.761719 C 124.210938 -90.441406 123.316406 -95.578125 120.96875 -101.457031 C 122.9375 -103.453125 124.738281 -106.414062 126.164062 -109.640625 C 130.226562 -118.617188 134.996094 -148.234375 132.761719 -161.078125 C 127.058594 -193.832031 96.28125 -210.976562 61.601562 -204.9375 C 31.414062 -199.683594 5.738281 -178.007812 0.4375 -147.640625 L -11.488281 -77.40625 C -12.980469 -68.875 -12.867188 -60.625 -11.640625 -53.558594 C -5.769531 -19.839844 26.652344 -4.640625 59.410156 -10.339844 C 84.457031 -14.703125 105.859375 -26.699219 115.324219 -52.167969 C 121.382812 -51.566406 128.292969 -51.777344 135.039062 -52.953125 C 172.929688 -59.546875 198.101562 -91.722656 203.148438 -127.339844 C 203.5 -131.042969 203.582031 -134.363281 203.078125 -137.253906 C 201.011719 -149.136719 191.167969 -154.371094 181.855469 -152.75 C 173.183594 -151.242188 165.085938 -144.539062 163.621094 -132.039062 C 160.023438 -110.902344 147.652344 -94.519531 128.707031 -91.222656 C 127.421875 -91 125.496094 -90.664062 124.15625 -90.761719 Z M 85.683594 -135.015625 C 85.222656 -131.957031 84.707031 -129.222656 84.832031 -126.597656 C 66.835938 -125.449219 53.613281 -108.257812 56.96875 -88.992188 C 59.191406 -78.128906 65.65625 -73.300781 72.652344 -69.222656 C 70.433594 -57.257812 62.070312 -50.175781 52.113281 -48.445312 C 39.589844 -46.265625 35.039062 -53.410156 33.695312 -61.121094 C 32.632812 -67.21875 33.234375 -73.28125 33.960938 -76.714844 L 45.414062 -145.875 C 47.421875 -157.140625 57.597656 -165.199219 67.554688 -166.933594 C 77.507812 -168.664062 85.105469 -163.039062 86.390625 -155.652344 C 87.398438 -149.875 86.757812 -142.152344 85.683594 -135.015625 Z M 85.683594 -135.015625 "/></g></g></g><g fill="#ffe97d" fill-opacity="1"><g transform="translate(265.456514, 417.790556)"><g><path d="M 200.59375 -132.519531 C 197.636719 -111.492188 185.476562 -95.8125 168.457031 -92.847656 C 166.210938 -92.457031 163.90625 -92.386719 161.601562 -92.316406 L 183.265625 -232.070312 C 184.339844 -239.207031 184.492188 -247.835938 183.375 -254.257812 C 176.273438 -295.042969 137.414062 -311.105469 103.695312 -305.238281 C 92.136719 -303.226562 82.53125 -297.582031 73.21875 -288.351562 C 70.984375 -293.585938 58.625 -298.054688 46.746094 -295.984375 C 36.148438 -294.140625 26.125 -287.101562 23.613281 -271.113281 L -16.757812 -27.851562 C -17.636719 -23.398438 -17.664062 -19.753906 -17.050781 -16.222656 C -14.3125 -0.488281 1.230469 7.066406 15.359375 4.605469 C 25.636719 2.816406 35.28125 -4.488281 38.671875 -17.320312 C 52.890625 -7.882812 73.300781 -8.457031 81.972656 -9.96875 C 106.378906 -14.214844 131.035156 -28.433594 146.460938 -51.960938 C 154.347656 -50.359375 162.65625 -50.148438 172.289062 -51.828125 C 210.183594 -58.421875 237.125 -89.914062 240.582031 -130.878906 C 240.890625 -132.917969 240.554688 -134.84375 240.21875 -136.769531 C 238.261719 -148.011719 227.945312 -152.171875 218.308594 -150.492188 C 209.640625 -148.984375 201.75 -142.980469 200.59375 -132.519531 Z M 50.695312 -119.332031 L 66.570312 -214.40625 C 72.625 -244.242188 87.71875 -254.480469 102.488281 -257.050781 C 115.335938 -259.289062 127.175781 -252.085938 129.636719 -237.957031 C 130.304688 -234.101562 130.070312 -229.757812 129.566406 -225.039062 L 112.5625 -115.542969 C 99.171875 -122.144531 84.1875 -126.484375 64.28125 -123.019531 C 59.460938 -122.179688 54.703125 -121.023438 50.695312 -119.332031 Z M 73.324219 -50.152344 C 61.441406 -48.082031 53.691406 -52.6875 52.40625 -60.074219 C 50.617188 -70.351562 59.761719 -80.546875 72.929688 -82.835938 C 84.167969 -84.792969 94.222656 -80.257812 103.914062 -74.003906 C 96.988281 -60.554688 84.5625 -52.105469 73.324219 -50.152344 Z M 73.324219 -50.152344 "/></g></g></g><g fill="#ffe97d" fill-opacity="1"><g transform="translate(471.295621, 381.960882)"><g><path d="M 48.429688 -233.085938 C 62.878906 -235.601562 72.695312 -249.550781 70.121094 -264.320312 C 67.605469 -278.773438 53.714844 -288.265625 39.261719 -285.75 C 24.8125 -283.234375 14.941406 -269.605469 17.457031 -255.15625 C 20.027344 -240.382812 33.976562 -230.570312 48.429688 -233.085938 Z M 33.585938 -61.761719 L 51.355469 -168.746094 C 51.914062 -173.144531 52.738281 -177.917969 52.179688 -181.128906 C 49.71875 -195.261719 37.835938 -200.800781 26.917969 -198.902344 C 16.964844 -197.167969 7.59375 -188.257812 5.085938 -172.269531 C 0.0625 -140.296875 -6.773438 -99.734375 -11.851562 -68.078125 C -12.660156 -61.320312 -13.71875 -52.203125 -12.769531 -46.746094 C -7.515625 -16.558594 20.550781 -3.578125 50.097656 -8.71875 C 81.566406 -14.199219 112.894531 -39.503906 123.804688 -109.890625 C 124.109375 -111.929688 124.097656 -113.910156 123.761719 -115.839844 C 122.027344 -125.792969 111.332031 -130.21875 101.699219 -128.539062 C 93.027344 -127.03125 85.140625 -121.027344 83.019531 -110.402344 C 75.191406 -66.027344 60.464844 -49.898438 47.621094 -47.660156 C 40.234375 -46.375 34.578125 -50.355469 33.515625 -56.457031 C 33.234375 -58.0625 33.277344 -59.722656 33.585938 -61.761719 Z M 33.585938 -61.761719 "/></g></g></g><g fill="#ffe97d" fill-opacity="1"><g transform="translate(559.925239, 366.533442)"><g><path d="M 56.667969 -219.960938 C 64.054688 -221.246094 73.089844 -224.472656 79.089844 -231.804688 L 126.207031 -289.964844 C 134.386719 -299.992188 119.890625 -311.035156 102.230469 -307.960938 C 92.917969 -306.339844 83.785156 -301.769531 78.648438 -293.265625 L 45.191406 -236.492188 C 36.980469 -222.820312 44.789062 -217.890625 56.667969 -219.960938 Z M 182.457031 -143.589844 C 173.464844 -142.023438 164.457031 -134.832031 162.730469 -121.960938 C 157.082031 -80.28125 139.140625 -63.59375 124.691406 -61.078125 C 119.230469 -60.125 115.515625 -62.457031 114.621094 -67.597656 C 114.175781 -70.164062 114.257812 -73.488281 114.605469 -77.1875 L 132.460938 -187.496094 C 133.078125 -191.570312 133.105469 -195.214844 132.546875 -198.429688 C 130.085938 -212.558594 117.238281 -217.929688 105.355469 -215.863281 C 96.367188 -214.296875 87.78125 -208.503906 84.039062 -199.578125 C 76.570312 -202.582031 63.207031 -205.21875 46.828125 -202.367188 C 25.632812 -198.675781 4.523438 -183.09375 0.15625 -156.855469 L -14.992188 -65.21875 C -15.914062 -59.101562 -16.191406 -53.097656 -15.183594 -47.316406 C -10.542969 -20.664062 14.773438 -2.570312 43.03125 -7.492188 C 58.125 -10.117188 72.363281 -19.542969 82.402344 -32.210938 C 95.25 -19.226562 118.496094 -20.625 128.132812 -22.304688 C 154.785156 -26.941406 188.082031 -46.636719 199.578125 -102.234375 C 201.894531 -115.542969 204.03125 -124.183594 203.023438 -129.964844 C 201.125 -140.882812 191.769531 -145.210938 182.457031 -143.589844 Z M 75.921875 -128.355469 L 68.835938 -77.824219 C 65.726562 -55.777344 54.363281 -48.835938 47.621094 -47.660156 C 40.554688 -46.429688 36.238281 -50.3125 34.953125 -57.699219 C 34.226562 -61.875 34.519531 -65.894531 34.980469 -68.953125 L 44.296875 -137.078125 C 46.988281 -157.726562 55.53125 -161.863281 60.671875 -162.757812 C 66.773438 -163.820312 74.578125 -158.890625 76.480469 -147.972656 C 77.316406 -143.15625 77.09375 -136.832031 75.921875 -128.355469 Z M 75.921875 -128.355469 "/></g></g></g><g fill="#ffe97d" fill-opacity="1"><g transform="translate(728.514197, 337.187767)"><g><path d="M 146.601562 -121.46875 C 139.878906 -87.875 127.582031 -61.578125 114.09375 -59.230469 C 109.597656 -58.449219 106.621094 -62.234375 105.839844 -66.730469 C 105.503906 -68.65625 105.378906 -71.28125 105.894531 -74.015625 L 115.675781 -129.980469 C 116.484375 -136.738281 116.761719 -142.742188 115.8125 -148.203125 C 110.5 -178.710938 69.730469 -184.847656 50.796875 -187.175781 C 51.3125 -189.914062 51.128906 -192.859375 50.683594 -195.425781 C 48.113281 -210.199219 32.765625 -220.433594 18.3125 -217.917969 C -0.632812 -214.617188 -8.964844 -195.964844 -5.777344 -177.660156 C -4.382812 -169.628906 -0.0390625 -161.785156 6.21875 -156.257812 L -6.210938 -88.914062 C -6.40625 -86.230469 -6.28125 -83.605469 -5.945312 -81.679688 C -4.101562 -71.082031 5.199219 -67.078125 14.191406 -68.640625 C 23.179688 -70.207031 31.601562 -76.964844 33.664062 -87.914062 L 43.261719 -139.214844 C 52.757812 -137.886719 65.03125 -137.707031 66.929688 -126.789062 C 67.210938 -125.183594 67.226562 -123.203125 66.972656 -120.84375 L 59.664062 -79.203125 C 58.378906 -71.371094 58.269531 -64.402344 59.386719 -57.980469 C 64.25 -30.042969 89.59375 -15.59375 116.25 -20.234375 C 151.253906 -26.328125 177.621094 -63.011719 187.121094 -120.582031 C 187.429688 -122.621094 187.472656 -124.28125 187.191406 -125.886719 C 185.515625 -135.519531 173.800781 -140.097656 163.523438 -138.308594 C 155.171875 -136.855469 147.816406 -131.605469 146.601562 -121.46875 Z M 146.601562 -121.46875 "/></g></g></g><g fill="#ffe97d" fill-opacity="1"><g transform="translate(880.404804, 310.748714)"><g><path d="M 48.429688 -233.085938 C 62.878906 -235.601562 72.695312 -249.550781 70.121094 -264.320312 C 67.605469 -278.773438 53.714844 -288.265625 39.261719 -285.75 C 24.8125 -283.234375 14.941406 -269.605469 17.457031 -255.15625 C 20.027344 -240.382812 33.976562 -230.570312 48.429688 -233.085938 Z M 33.585938 -61.761719 L 51.355469 -168.746094 C 51.914062 -173.144531 52.738281 -177.917969 52.179688 -181.128906 C 49.71875 -195.261719 37.835938 -200.800781 26.917969 -198.902344 C 16.964844 -197.167969 7.59375 -188.257812 5.085938 -172.269531 C 0.0625 -140.296875 -6.773438 -99.734375 -11.851562 -68.078125 C -12.660156 -61.320312 -13.71875 -52.203125 -12.769531 -46.746094 C -7.515625 -16.558594 20.550781 -3.578125 50.097656 -8.71875 C 81.566406 -14.199219 112.894531 -39.503906 123.804688 -109.890625 C 124.109375 -111.929688 124.097656 -113.910156 123.761719 -115.839844 C 122.027344 -125.792969 111.332031 -130.21875 101.699219 -128.539062 C 93.027344 -127.03125 85.140625 -121.027344 83.019531 -110.402344 C 75.191406 -66.027344 60.464844 -49.898438 47.621094 -47.660156 C 40.234375 -46.375 34.578125 -50.355469 33.515625 -56.457031 C 33.234375 -58.0625 33.277344 -59.722656 33.585938 -61.761719 Z M 33.585938 -61.761719 "/></g></g></g><g fill="#ffe97d" fill-opacity="1"><g transform="translate(969.034422, 295.321275)"><g><path d="M 124.15625 -90.761719 C 124.210938 -90.441406 123.316406 -95.578125 120.96875 -101.457031 C 122.9375 -103.453125 124.738281 -106.414062 126.164062 -109.640625 C 130.226562 -118.617188 134.996094 -148.234375 132.761719 -161.078125 C 127.058594 -193.832031 96.28125 -210.976562 61.601562 -204.9375 C 31.414062 -199.683594 5.738281 -178.007812 0.4375 -147.640625 L -11.488281 -77.40625 C -12.980469 -68.875 -12.867188 -60.625 -11.640625 -53.558594 C -5.769531 -19.839844 26.652344 -4.640625 59.410156 -10.339844 C 84.457031 -14.703125 105.859375 -26.699219 115.324219 -52.167969 C 121.382812 -51.566406 128.292969 -51.777344 135.039062 -52.953125 C 172.929688 -59.546875 198.101562 -91.722656 203.148438 -127.339844 C 203.5 -131.042969 203.582031 -134.363281 203.078125 -137.253906 C 201.011719 -149.136719 191.167969 -154.371094 181.855469 -152.75 C 173.183594 -151.242188 165.085938 -144.539062 163.621094 -132.039062 C 160.023438 -110.902344 147.652344 -94.519531 128.707031 -91.222656 C 127.421875 -91 125.496094 -90.664062 124.15625 -90.761719 Z M 85.683594 -135.015625 C 85.222656 -131.957031 84.707031 -129.222656 84.832031 -126.597656 C 66.835938 -125.449219 53.613281 -108.257812 56.96875 -88.992188 C 59.191406 -78.128906 65.65625 -73.300781 72.652344 -69.222656 C 70.433594 -57.257812 62.070312 -50.175781 52.113281 -48.445312 C 39.589844 -46.265625 35.039062 -53.410156 33.695312 -61.121094 C 32.632812 -67.21875 33.234375 -73.28125 33.960938 -76.714844 L 45.414062 -145.875 C 47.421875 -157.140625 57.597656 -165.199219 67.554688 -166.933594 C 77.507812 -168.664062 85.105469 -163.039062 86.390625 -155.652344 C 87.398438 -149.875 86.757812 -142.152344 85.683594 -135.015625 Z M 85.683594 -135.015625 "/></g></g></g><g fill="#fd6155" fill-opacity="0.302"><g transform="translate(66.855148, 792.283096)"><g><path d="M 169.765625 -125.332031 C 161.933594 -124.148438 154.425781 -118.859375 153.214844 -109.183594 C 145.421875 -72.402344 131.992188 -55.242188 118.9375 -53.269531 C 113.136719 -52.394531 109.332031 -55.972656 108.628906 -60.613281 C 108.367188 -62.355469 108.394531 -64.140625 109.03125 -67.796875 L 142.398438 -247.585938 C 143.03125 -251.242188 143.738281 -256.394531 143.253906 -259.585938 C 141.371094 -272.058594 130.210938 -277.195312 120.058594 -275.660156 C 111.066406 -274.304688 103.664062 -266.363281 100.71875 -250.488281 L 85.625 -171.664062 C 75.480469 -179.921875 61.882812 -183.503906 48.25 -181.445312 C 29.394531 -178.597656 10.667969 -165.085938 6.164062 -141.859375 L -9.5625 -59.378906 C -10.761719 -53.558594 -10.753906 -47.625 -9.964844 -42.40625 C -6.109375 -16.878906 17.113281 -2.585938 42.0625 -6.351562 C 55.695312 -8.414062 70.078125 -15.332031 79.972656 -28.398438 C 90.453125 -19.894531 105.296875 -15.90625 119.800781 -18.09375 C 148.515625 -22.433594 178.476562 -48.023438 189.320312 -107.8125 C 189.59375 -109.929688 189.867188 -112.050781 189.605469 -113.789062 C 188.246094 -122.78125 178.757812 -126.6875 169.765625 -125.332031 Z M 41.695312 -51.988281 C 35.964844 -52.605469 33.855469 -56.738281 33.15625 -61.378906 C 32.585938 -65.148438 32.929688 -68.761719 33.40625 -71.503906 L 42.625 -122.445312 C 45.839844 -140.433594 53.234375 -144.519531 57.875 -145.21875 C 63.386719 -146.050781 70.308594 -141.460938 71.800781 -131.597656 C 72.457031 -127.246094 72.417969 -121.605469 70.902344 -113.957031 L 64.050781 -78.804688 C 58.589844 -56.023438 47.382812 -51.660156 41.695312 -51.988281 Z M 41.695312 -51.988281 "/></g></g></g><g fill="#fd6155" fill-opacity="0.302"><g transform="translate(222.618685, 768.755651)"><g><path d="M 113.542969 -79.160156 C 113.585938 -78.867188 112.886719 -83.511719 110.894531 -88.847656 C 112.707031 -90.601562 114.386719 -93.230469 115.730469 -96.105469 C 119.566406 -104.101562 124.457031 -130.652344 122.703125 -142.253906 C 118.234375 -171.839844 90.890625 -187.886719 59.5625 -183.152344 C 32.296875 -179.035156 8.757812 -160.050781 3.375 -132.832031 L -8.773438 -69.878906 C -10.289062 -62.234375 -10.355469 -54.808594 -9.390625 -48.425781 C -4.789062 -17.96875 24.074219 -3.636719 53.664062 -8.105469 C 76.289062 -11.523438 95.789062 -21.886719 104.816406 -44.609375 C 110.257812 -43.949219 116.480469 -44 122.574219 -44.917969 C 156.800781 -50.089844 180.097656 -78.53125 185.359375 -110.476562 C 185.746094 -113.800781 185.890625 -116.789062 185.496094 -119.398438 C 183.875 -130.132812 175.121094 -135.039062 166.710938 -133.769531 C 158.878906 -132.585938 151.457031 -126.71875 149.886719 -115.503906 C 146.222656 -96.554688 134.761719 -82.066406 117.648438 -79.480469 C 116.488281 -79.308594 114.746094 -79.042969 113.542969 -79.160156 Z M 79.820312 -119.753906 C 79.34375 -117.011719 78.824219 -114.5625 78.882812 -112.195312 C 62.667969 -111.527344 50.425781 -96.328125 53.054688 -78.921875 C 54.835938 -69.105469 60.554688 -64.628906 66.765625 -60.820312 C 64.527344 -50.097656 56.863281 -43.894531 47.871094 -42.535156 C 36.554688 -40.828125 32.605469 -47.351562 31.554688 -54.3125 C 30.71875 -59.824219 31.382812 -65.265625 32.105469 -68.339844 L 43.804688 -130.335938 C 45.839844 -140.433594 55.160156 -147.480469 64.152344 -148.839844 C 73.144531 -150.195312 79.867188 -144.980469 80.875 -138.308594 C 81.664062 -133.089844 80.929688 -126.152344 79.820312 -119.753906 Z M 79.820312 -119.753906 "/></g></g></g><g fill="#fd6155" fill-opacity="0.302"><g transform="translate(374.031276, 745.885399)"><g/></g></g><g fill="#fd6155" fill-opacity="0.302"><g transform="translate(484.835117, 729.148932)"><g><path d="M 139.433594 -110.066406 C 131.363281 -71.167969 102.71875 -52.601562 79.515625 -49.097656 C 56.597656 -45.636719 31.914062 -55.851562 29.023438 -74.996094 C 28.363281 -79.347656 28.199219 -84.367188 29.195312 -89.558594 L 50.367188 -196.894531 C 54.4375 -217.09375 65.890625 -221.789062 72.851562 -222.839844 C 79.523438 -223.847656 84.777344 -220.488281 86.09375 -211.785156 C 86.707031 -207.726562 86.335938 -202.328125 84.890625 -196.175781 C 84.328125 -194.015625 84.34375 -191.941406 84.652344 -189.910156 C 86.183594 -179.757812 97.316406 -172.835938 108.628906 -174.542969 C 118.78125 -176.078125 129.042969 -184.75 131.375 -204.683594 C 132.265625 -212.53125 132.082031 -219.625 131.164062 -225.714844 C 126.34375 -257.625 98.304688 -272.375 65.234375 -267.382812 C 44.058594 -264.183594 12.597656 -250.53125 3.792969 -204.695312 L -16.824219 -95.664062 C -18.65625 -86.1875 -18.90625 -76.0625 -17.59375 -67.363281 C -11.851562 -29.363281 27.558594 -4.164062 78.03125 -11.785156 C 118.351562 -17.875 165.421875 -46.050781 174.820312 -105.621094 C 175.046875 -108.03125 175.03125 -110.105469 174.769531 -111.84375 C 173.234375 -121.996094 163.367188 -126.441406 154.375 -125.082031 C 146.832031 -123.945312 140.148438 -119.078125 139.433594 -110.066406 Z M 139.433594 -110.066406 "/></g></g></g><g fill="#fd6155" fill-opacity="0.302"><g transform="translate(626.675624, 707.724504)"><g><path d="M 48.28125 -208.746094 C 61.332031 -210.71875 70.445312 -223.070312 68.429688 -236.414062 C 66.457031 -249.46875 54.148438 -258.289062 41.09375 -256.316406 C 28.039062 -254.347656 18.886719 -242.28125 20.855469 -229.230469 C 22.871094 -215.886719 35.226562 -206.773438 48.28125 -208.746094 Z M 31.464844 -54.894531 L 49.617188 -150.796875 C 50.207031 -154.742188 51.042969 -159.023438 50.605469 -161.921875 C 48.675781 -174.6875 38.097656 -179.910156 28.234375 -178.421875 C 19.242188 -177.0625 10.632812 -169.238281 8.050781 -154.902344 C 2.886719 -126.234375 -4.082031 -89.875 -9.289062 -61.496094 C -10.152344 -55.429688 -11.289062 -47.25 -10.546875 -42.316406 C -6.425781 -15.050781 18.566406 -2.804688 45.25 -6.835938 C 73.679688 -11.128906 102.378906 -33.265625 113.613281 -96.378906 C 113.929688 -98.207031 113.957031 -99.988281 113.695312 -101.730469 C 112.335938 -110.722656 102.800781 -114.917969 94.097656 -113.605469 C 86.265625 -112.421875 79.050781 -107.179688 76.925781 -97.660156 C 68.988281 -57.890625 55.410156 -43.675781 43.808594 -41.921875 C 37.136719 -40.914062 32.128906 -44.609375 31.296875 -50.121094 C 31.078125 -51.570312 31.148438 -53.066406 31.464844 -54.894531 Z M 31.464844 -54.894531 "/></g></g></g><g fill="#fd6155" fill-opacity="0.302"><g transform="translate(706.73285, 695.632187)"><g><path d="M 149.242188 -107.988281 C 141.738281 -71.253906 127.929688 -54.628906 114.296875 -52.570312 C 109.074219 -51.78125 105.78125 -53.953125 105.035156 -58.886719 C 104.726562 -60.914062 104.957031 -63.324219 105.390625 -66.355469 L 118.289062 -134.167969 C 119.441406 -140.277344 119.816406 -145.675781 119.070312 -150.605469 C 115.566406 -173.8125 93.210938 -188.238281 70.003906 -184.730469 C 58.691406 -183.023438 50.09375 -179.054688 43.386719 -172.402344 C 40.855469 -177.363281 33.164062 -179.167969 25.332031 -177.984375 C 17.210938 -176.757812 9.949219 -171.804688 8.277344 -163.242188 L -19.707031 -20.460938 C -20.179688 -17.71875 -20.121094 -15.355469 -19.769531 -13.035156 C -18.148438 -2.300781 -8.90625 1.9375 0.378906 0.535156 C 10.53125 -0.996094 21.167969 -9.132812 23.546875 -22.84375 C 29.453125 -52.511719 37.371094 -94.355469 43.027344 -123.691406 C 48.667969 -139.378906 57.769531 -147.875 65.894531 -149.101562 C 71.113281 -149.890625 75.410156 -146.976562 76.242188 -141.46875 C 76.550781 -139.4375 76.363281 -136.738281 75.886719 -133.996094 L 63.738281 -71.042969 C 62.425781 -64.019531 61.9375 -57.417969 62.859375 -51.328125 C 66.890625 -24.640625 91.082031 -13.757812 115.738281 -17.480469 C 145.328125 -21.949219 173.921875 -46.742188 185.390625 -106.328125 C 185.914062 -108.78125 186.140625 -111.1875 185.835938 -113.21875 C 184.433594 -122.503906 175.277344 -126.164062 166.574219 -124.847656 C 158.742188 -123.664062 150.695312 -118 149.242188 -107.988281 Z M 149.242188 -107.988281 "/></g></g></g><g fill="#fd6155" fill-opacity="0.302"><g transform="translate(859.015661, 672.630492)"><g><path d="M 134.421875 -103.96875 C 126.742188 -68.394531 98.34375 -50.160156 73.6875 -46.4375 C 52.511719 -43.238281 37.632812 -51.375 35.617188 -64.71875 C 35.222656 -67.328125 35.121094 -69.984375 35.84375 -73.058594 L 37.328125 -78.921875 C 46.53125 -74.96875 57.5 -73.066406 69.101562 -74.820312 C 95.5 -78.804688 116.207031 -98.847656 120.097656 -126.136719 C 120.714844 -131.867188 120.75 -137.507812 120.007812 -142.441406 C 115.84375 -169.996094 90.890625 -187.886719 58.113281 -182.933594 C 32.296875 -179.035156 9.335938 -160.140625 3.566406 -129.597656 L -6.054688 -77.410156 C -7.324219 -70.097656 -7.722656 -62.917969 -6.714844 -56.246094 C -1.5 -21.726562 34.230469 -5.171875 76.578125 -11.566406 C 116.898438 -17.65625 159.75 -44.304688 170.527344 -102.601562 C 171.046875 -105.050781 171.03125 -107.125 170.769531 -108.867188 C 169.410156 -117.859375 160.542969 -121.5625 151.839844 -120.25 C 143.71875 -119.023438 135.671875 -113.355469 134.421875 -103.96875 Z M 62.410156 -148.574219 C 70.535156 -149.800781 76.761719 -143.917969 78.035156 -135.507812 C 78.382812 -133.1875 78.445312 -130.820312 77.925781 -128.371094 C 76.46875 -118.359375 68.292969 -113.5625 59.589844 -112.25 C 54.078125 -111.417969 48.394531 -111.746094 43.980469 -113.453125 L 47.445312 -131.777344 C 49.277344 -141.25 55.742188 -147.566406 62.410156 -148.574219 Z M 62.410156 -148.574219 "/></g></g></g><g fill="#fd6155" fill-opacity="0.302"><g transform="translate(996.505255, 651.863251)"><g><path d="M 242.328125 -135.992188 C 234.496094 -134.8125 226.738281 -129.1875 225.242188 -119.46875 C 217.734375 -82.730469 203.929688 -66.109375 190.296875 -64.050781 C 184.492188 -63.171875 181.066406 -66.214844 180.410156 -70.566406 C 180.191406 -72.015625 179.972656 -73.46875 180.375 -74.714844 L 194.824219 -146.027344 C 195.730469 -151.800781 196.015625 -157.777344 195.269531 -162.710938 C 191.546875 -187.367188 167.46875 -199.453125 141.074219 -195.464844 C 130.628906 -193.890625 115.941406 -189 104.21875 -176.25 C 97.074219 -182.292969 86.539062 -187.230469 69.714844 -184.6875 C 57.820312 -182.890625 51.386719 -178.359375 46.648438 -174.378906 C 42.796875 -178.25 36.066406 -179.605469 29.683594 -178.640625 C 20.691406 -177.28125 12.066406 -171.53125 9.855469 -162.59375 L -16.355469 -21.859375 C -16.832031 -19.117188 -16.769531 -16.75 -16.464844 -14.722656 C -14.84375 -3.988281 -4.640625 0.699219 5.511719 -0.832031 C 15.375 -2.320312 24.359375 -9.613281 26.667969 -21.828125 L 46.203125 -126.25 C 50.410156 -139.640625 58.640625 -148.003906 67.34375 -149.320312 C 73.144531 -150.195312 77.6875 -147.617188 78.476562 -142.398438 C 78.695312 -140.945312 78.710938 -138.871094 78.148438 -136.710938 L 58.449219 -37.3125 C 57.570312 -33.320312 57.269531 -29.417969 57.75 -26.226562 C 59.414062 -15.203125 69.039062 -10.429688 78.898438 -11.917969 C 88.472656 -13.363281 98.039062 -20.742188 100.503906 -33.871094 L 119.625 -133.183594 C 122.65625 -148.476562 132.320312 -159.132812 141.890625 -160.582031 C 147.113281 -161.367188 151.699219 -158.5 152.53125 -152.988281 C 152.796875 -151.25 152.8125 -149.175781 152.335938 -146.433594 L 139.359375 -83.058594 C 138.046875 -76.035156 137.894531 -69.1875 138.816406 -63.097656 C 142.800781 -36.699219 166.792969 -25.191406 192.316406 -29.050781 C 221.035156 -33.386719 250.140625 -56.769531 261.390625 -117.808594 C 261.664062 -119.925781 261.9375 -122.042969 261.632812 -124.074219 C 260.230469 -133.359375 251.027344 -137.308594 242.328125 -135.992188 Z M 242.328125 -135.992188 "/></g></g></g><g fill="#fd6155" fill-opacity="0.302"><g transform="translate(1224.494283, 617.426441)"><g><path d="M 167.066406 -125.515625 C 158.945312 -124.289062 150.695312 -118 148.882812 -106.453125 C 142.957031 -69.0625 126.480469 -54.410156 113.425781 -52.4375 C 108.496094 -51.695312 105.199219 -53.867188 104.5 -58.507812 C 104.148438 -60.828125 104.289062 -63.816406 104.679688 -67.140625 L 122.96875 -166.03125 C 123.605469 -169.6875 123.703125 -172.964844 123.265625 -175.863281 C 121.335938 -188.628906 109.886719 -193.722656 99.15625 -192.101562 C 91.03125 -190.875 83.191406 -185.832031 79.644531 -177.878906 C 72.984375 -180.730469 61.011719 -183.375 46.21875 -181.140625 C 27.074219 -178.246094 7.765625 -164.648438 3.308594 -141.132812 L -12.171875 -58.984375 C -13.125 -53.5 -13.496094 -48.101562 -12.707031 -42.882812 C -9.070312 -18.804688 13.34375 -2.015625 38.871094 -5.871094 C 52.503906 -7.929688 65.507812 -16.125 74.792969 -27.320312 C 86.089844 -15.378906 107.035156 -16.167969 115.738281 -17.480469 C 139.816406 -21.117188 170.171875 -38.164062 181.640625 -87.960938 C 183.992188 -99.886719 186.085938 -107.621094 185.296875 -112.84375 C 183.808594 -122.703125 175.480469 -126.785156 167.066406 -125.515625 Z M 70.902344 -113.957031 L 63.507812 -68.632812 C 60.265625 -48.859375 49.898438 -42.84375 43.808594 -41.921875 C 37.425781 -40.960938 33.621094 -44.539062 32.613281 -51.210938 C 32.046875 -54.980469 32.390625 -58.59375 32.867188 -61.335938 L 42.625 -122.445312 C 45.460938 -140.972656 53.234375 -144.519531 57.875 -145.21875 C 63.386719 -146.050781 70.308594 -141.460938 71.800781 -131.597656 C 72.457031 -127.246094 72.128906 -121.5625 70.902344 -113.957031 Z M 70.902344 -113.957031 "/></g></g></g><g fill="#fd6155" fill-opacity="0.502"><g transform="translate(53.493546, 776.688017)"><g><path d="M 169.765625 -125.332031 C 161.933594 -124.148438 154.425781 -118.859375 153.214844 -109.183594 C 145.421875 -72.402344 131.992188 -55.242188 118.9375 -53.269531 C 113.136719 -52.394531 109.332031 -55.972656 108.628906 -60.613281 C 108.367188 -62.355469 108.394531 -64.140625 109.03125 -67.796875 L 142.398438 -247.585938 C 143.03125 -251.242188 143.738281 -256.394531 143.253906 -259.585938 C 141.371094 -272.058594 130.210938 -277.195312 120.058594 -275.660156 C 111.066406 -274.304688 103.664062 -266.363281 100.71875 -250.488281 L 85.625 -171.664062 C 75.480469 -179.921875 61.882812 -183.503906 48.25 -181.445312 C 29.394531 -178.597656 10.667969 -165.085938 6.164062 -141.859375 L -9.5625 -59.378906 C -10.761719 -53.558594 -10.753906 -47.625 -9.964844 -42.40625 C -6.109375 -16.878906 17.113281 -2.585938 42.0625 -6.351562 C 55.695312 -8.414062 70.078125 -15.332031 79.972656 -28.398438 C 90.453125 -19.894531 105.296875 -15.90625 119.800781 -18.09375 C 148.515625 -22.433594 178.476562 -48.023438 189.320312 -107.8125 C 189.59375 -109.929688 189.867188 -112.050781 189.605469 -113.789062 C 188.246094 -122.78125 178.757812 -126.6875 169.765625 -125.332031 Z M 41.695312 -51.988281 C 35.964844 -52.605469 33.855469 -56.738281 33.15625 -61.378906 C 32.585938 -65.148438 32.929688 -68.761719 33.40625 -71.503906 L 42.625 -122.445312 C 45.839844 -140.433594 53.234375 -144.519531 57.875 -145.21875 C 63.386719 -146.050781 70.308594 -141.460938 71.800781 -131.597656 C 72.457031 -127.246094 72.417969 -121.605469 70.902344 -113.957031 L 64.050781 -78.804688 C 58.589844 -56.023438 47.382812 -51.660156 41.695312 -51.988281 Z M 41.695312 -51.988281 "/></g></g></g><g fill="#fd6155" fill-opacity="0.502"><g transform="translate(209.257083, 753.160572)"><g><path d="M 113.542969 -79.160156 C 113.585938 -78.867188 112.886719 -83.511719 110.894531 -88.847656 C 112.707031 -90.601562 114.386719 -93.230469 115.730469 -96.105469 C 119.566406 -104.101562 124.457031 -130.652344 122.703125 -142.253906 C 118.234375 -171.839844 90.890625 -187.886719 59.5625 -183.152344 C 32.296875 -179.035156 8.757812 -160.050781 3.375 -132.832031 L -8.773438 -69.878906 C -10.289062 -62.234375 -10.355469 -54.808594 -9.390625 -48.425781 C -4.789062 -17.96875 24.074219 -3.636719 53.664062 -8.105469 C 76.289062 -11.523438 95.789062 -21.886719 104.816406 -44.609375 C 110.257812 -43.949219 116.480469 -44 122.574219 -44.917969 C 156.800781 -50.089844 180.097656 -78.53125 185.359375 -110.476562 C 185.746094 -113.800781 185.890625 -116.789062 185.496094 -119.398438 C 183.875 -130.132812 175.121094 -135.039062 166.710938 -133.769531 C 158.878906 -132.585938 151.457031 -126.71875 149.886719 -115.503906 C 146.222656 -96.554688 134.761719 -82.066406 117.648438 -79.480469 C 116.488281 -79.308594 114.746094 -79.042969 113.542969 -79.160156 Z M 79.820312 -119.753906 C 79.34375 -117.011719 78.824219 -114.5625 78.882812 -112.195312 C 62.667969 -111.527344 50.425781 -96.328125 53.054688 -78.921875 C 54.835938 -69.105469 60.554688 -64.628906 66.765625 -60.820312 C 64.527344 -50.097656 56.863281 -43.894531 47.871094 -42.535156 C 36.554688 -40.828125 32.605469 -47.351562 31.554688 -54.3125 C 30.71875 -59.824219 31.382812 -65.265625 32.105469 -68.339844 L 43.804688 -130.335938 C 45.839844 -140.433594 55.160156 -147.480469 64.152344 -148.839844 C 73.144531 -150.195312 79.867188 -144.980469 80.875 -138.308594 C 81.664062 -133.089844 80.929688 -126.152344 79.820312 -119.753906 Z M 79.820312 -119.753906 "/></g></g></g><g fill="#fd6155" fill-opacity="0.502"><g transform="translate(360.669674, 730.29032)"><g/></g></g><g fill="#fd6155" fill-opacity="0.502"><g transform="translate(471.473515, 713.553853)"><g><path d="M 139.433594 -110.066406 C 131.363281 -71.167969 102.71875 -52.601562 79.515625 -49.097656 C 56.597656 -45.636719 31.914062 -55.851562 29.023438 -74.996094 C 28.363281 -79.347656 28.199219 -84.367188 29.195312 -89.558594 L 50.367188 -196.894531 C 54.4375 -217.09375 65.890625 -221.789062 72.851562 -222.839844 C 79.523438 -223.847656 84.777344 -220.488281 86.09375 -211.785156 C 86.707031 -207.726562 86.335938 -202.328125 84.890625 -196.175781 C 84.328125 -194.015625 84.34375 -191.941406 84.652344 -189.910156 C 86.183594 -179.757812 97.316406 -172.835938 108.628906 -174.542969 C 118.78125 -176.078125 129.042969 -184.75 131.375 -204.683594 C 132.265625 -212.53125 132.082031 -219.625 131.164062 -225.714844 C 126.34375 -257.625 98.304688 -272.375 65.234375 -267.382812 C 44.058594 -264.183594 12.597656 -250.53125 3.792969 -204.695312 L -16.824219 -95.664062 C -18.65625 -86.1875 -18.90625 -76.0625 -17.59375 -67.363281 C -11.851562 -29.363281 27.558594 -4.164062 78.03125 -11.785156 C 118.351562 -17.875 165.421875 -46.050781 174.820312 -105.621094 C 175.046875 -108.03125 175.03125 -110.105469 174.769531 -111.84375 C 173.234375 -121.996094 163.367188 -126.441406 154.375 -125.082031 C 146.832031 -123.945312 140.148438 -119.078125 139.433594 -110.066406 Z M 139.433594 -110.066406 "/></g></g></g><g fill="#fd6155" fill-opacity="0.502"><g transform="translate(613.314022, 692.129424)"><g><path d="M 48.28125 -208.746094 C 61.332031 -210.71875 70.445312 -223.070312 68.429688 -236.414062 C 66.457031 -249.46875 54.148438 -258.289062 41.09375 -256.316406 C 28.039062 -254.347656 18.886719 -242.28125 20.855469 -229.230469 C 22.871094 -215.886719 35.226562 -206.773438 48.28125 -208.746094 Z M 31.464844 -54.894531 L 49.617188 -150.796875 C 50.207031 -154.742188 51.042969 -159.023438 50.605469 -161.921875 C 48.675781 -174.6875 38.097656 -179.910156 28.234375 -178.421875 C 19.242188 -177.0625 10.632812 -169.238281 8.050781 -154.902344 C 2.886719 -126.234375 -4.082031 -89.875 -9.289062 -61.496094 C -10.152344 -55.429688 -11.289062 -47.25 -10.546875 -42.316406 C -6.425781 -15.050781 18.566406 -2.804688 45.25 -6.835938 C 73.679688 -11.128906 102.378906 -33.265625 113.613281 -96.378906 C 113.929688 -98.207031 113.957031 -99.988281 113.695312 -101.730469 C 112.335938 -110.722656 102.800781 -114.917969 94.097656 -113.605469 C 86.265625 -112.421875 79.050781 -107.179688 76.925781 -97.660156 C 68.988281 -57.890625 55.410156 -43.675781 43.808594 -41.921875 C 37.136719 -40.914062 32.128906 -44.609375 31.296875 -50.121094 C 31.078125 -51.570312 31.148438 -53.066406 31.464844 -54.894531 Z M 31.464844 -54.894531 "/></g></g></g><g fill="#fd6155" fill-opacity="0.502"><g transform="translate(693.371248, 680.037108)"><g><path d="M 149.242188 -107.988281 C 141.738281 -71.253906 127.929688 -54.628906 114.296875 -52.570312 C 109.074219 -51.78125 105.78125 -53.953125 105.035156 -58.886719 C 104.726562 -60.914062 104.957031 -63.324219 105.390625 -66.355469 L 118.289062 -134.167969 C 119.441406 -140.277344 119.816406 -145.675781 119.070312 -150.605469 C 115.566406 -173.8125 93.210938 -188.238281 70.003906 -184.730469 C 58.691406 -183.023438 50.09375 -179.054688 43.386719 -172.402344 C 40.855469 -177.363281 33.164062 -179.167969 25.332031 -177.984375 C 17.210938 -176.757812 9.949219 -171.804688 8.277344 -163.242188 L -19.707031 -20.460938 C -20.179688 -17.71875 -20.121094 -15.355469 -19.769531 -13.035156 C -18.148438 -2.300781 -8.90625 1.9375 0.378906 0.535156 C 10.53125 -0.996094 21.167969 -9.132812 23.546875 -22.84375 C 29.453125 -52.511719 37.371094 -94.355469 43.027344 -123.691406 C 48.667969 -139.378906 57.769531 -147.875 65.894531 -149.101562 C 71.113281 -149.890625 75.410156 -146.976562 76.242188 -141.46875 C 76.550781 -139.4375 76.363281 -136.738281 75.886719 -133.996094 L 63.738281 -71.042969 C 62.425781 -64.019531 61.9375 -57.417969 62.859375 -51.328125 C 66.890625 -24.640625 91.082031 -13.757812 115.738281 -17.480469 C 145.328125 -21.949219 173.921875 -46.742188 185.390625 -106.328125 C 185.914062 -108.78125 186.140625 -111.1875 185.835938 -113.21875 C 184.433594 -122.503906 175.277344 -126.164062 166.574219 -124.847656 C 158.742188 -123.664062 150.695312 -118 149.242188 -107.988281 Z M 149.242188 -107.988281 "/></g></g></g><g fill="#fd6155" fill-opacity="0.502"><g transform="translate(845.654059, 657.035412)"><g><path d="M 134.421875 -103.96875 C 126.742188 -68.394531 98.34375 -50.160156 73.6875 -46.4375 C 52.511719 -43.238281 37.632812 -51.375 35.617188 -64.71875 C 35.222656 -67.328125 35.121094 -69.984375 35.84375 -73.058594 L 37.328125 -78.921875 C 46.53125 -74.96875 57.5 -73.066406 69.101562 -74.820312 C 95.5 -78.804688 116.207031 -98.847656 120.097656 -126.136719 C 120.714844 -131.867188 120.75 -137.507812 120.007812 -142.441406 C 115.84375 -169.996094 90.890625 -187.886719 58.113281 -182.933594 C 32.296875 -179.035156 9.335938 -160.140625 3.566406 -129.597656 L -6.054688 -77.410156 C -7.324219 -70.097656 -7.722656 -62.917969 -6.714844 -56.246094 C -1.5 -21.726562 34.230469 -5.171875 76.578125 -11.566406 C 116.898438 -17.65625 159.75 -44.304688 170.527344 -102.601562 C 171.046875 -105.050781 171.03125 -107.125 170.769531 -108.867188 C 169.410156 -117.859375 160.542969 -121.5625 151.839844 -120.25 C 143.71875 -119.023438 135.671875 -113.355469 134.421875 -103.96875 Z M 62.410156 -148.574219 C 70.535156 -149.800781 76.761719 -143.917969 78.035156 -135.507812 C 78.382812 -133.1875 78.445312 -130.820312 77.925781 -128.371094 C 76.46875 -118.359375 68.292969 -113.5625 59.589844 -112.25 C 54.078125 -111.417969 48.394531 -111.746094 43.980469 -113.453125 L 47.445312 -131.777344 C 49.277344 -141.25 55.742188 -147.566406 62.410156 -148.574219 Z M 62.410156 -148.574219 "/></g></g></g><g fill="#fd6155" fill-opacity="0.502"><g transform="translate(983.143653, 636.268172)"><g><path d="M 242.328125 -135.992188 C 234.496094 -134.8125 226.738281 -129.1875 225.242188 -119.46875 C 217.734375 -82.730469 203.929688 -66.109375 190.296875 -64.050781 C 184.492188 -63.171875 181.066406 -66.214844 180.410156 -70.566406 C 180.191406 -72.015625 179.972656 -73.46875 180.375 -74.714844 L 194.824219 -146.027344 C 195.730469 -151.800781 196.015625 -157.777344 195.269531 -162.710938 C 191.546875 -187.367188 167.46875 -199.453125 141.074219 -195.464844 C 130.628906 -193.890625 115.941406 -189 104.21875 -176.25 C 97.074219 -182.292969 86.539062 -187.230469 69.714844 -184.6875 C 57.820312 -182.890625 51.386719 -178.359375 46.648438 -174.378906 C 42.796875 -178.25 36.066406 -179.605469 29.683594 -178.640625 C 20.691406 -177.28125 12.066406 -171.53125 9.855469 -162.59375 L -16.355469 -21.859375 C -16.832031 -19.117188 -16.769531 -16.75 -16.464844 -14.722656 C -14.84375 -3.988281 -4.640625 0.699219 5.511719 -0.832031 C 15.375 -2.320312 24.359375 -9.613281 26.667969 -21.828125 L 46.203125 -126.25 C 50.410156 -139.640625 58.640625 -148.003906 67.34375 -149.320312 C 73.144531 -150.195312 77.6875 -147.617188 78.476562 -142.398438 C 78.695312 -140.945312 78.710938 -138.871094 78.148438 -136.710938 L 58.449219 -37.3125 C 57.570312 -33.320312 57.269531 -29.417969 57.75 -26.226562 C 59.414062 -15.203125 69.039062 -10.429688 78.898438 -11.917969 C 88.472656 -13.363281 98.039062 -20.742188 100.503906 -33.871094 L 119.625 -133.183594 C 122.65625 -148.476562 132.320312 -159.132812 141.890625 -160.582031 C 147.113281 -161.367188 151.699219 -158.5 152.53125 -152.988281 C 152.796875 -151.25 152.8125 -149.175781 152.335938 -146.433594 L 139.359375 -83.058594 C 138.046875 -76.035156 137.894531 -69.1875 138.816406 -63.097656 C 142.800781 -36.699219 166.792969 -25.191406 192.316406 -29.050781 C 221.035156 -33.386719 250.140625 -56.769531 261.390625 -117.808594 C 261.664062 -119.925781 261.9375 -122.042969 261.632812 -124.074219 C 260.230469 -133.359375 251.027344 -137.308594 242.328125 -135.992188 Z M 242.328125 -135.992188 "/></g></g></g><g fill="#fd6155" fill-opacity="0.502"><g transform="translate(1211.132681, 601.831362)"><g><path d="M 167.066406 -125.515625 C 158.945312 -124.289062 150.695312 -118 148.882812 -106.453125 C 142.957031 -69.0625 126.480469 -54.410156 113.425781 -52.4375 C 108.496094 -51.695312 105.199219 -53.867188 104.5 -58.507812 C 104.148438 -60.828125 104.289062 -63.816406 104.679688 -67.140625 L 122.96875 -166.03125 C 123.605469 -169.6875 123.703125 -172.964844 123.265625 -175.863281 C 121.335938 -188.628906 109.886719 -193.722656 99.15625 -192.101562 C 91.03125 -190.875 83.191406 -185.832031 79.644531 -177.878906 C 72.984375 -180.730469 61.011719 -183.375 46.21875 -181.140625 C 27.074219 -178.246094 7.765625 -164.648438 3.308594 -141.132812 L -12.171875 -58.984375 C -13.125 -53.5 -13.496094 -48.101562 -12.707031 -42.882812 C -9.070312 -18.804688 13.34375 -2.015625 38.871094 -5.871094 C 52.503906 -7.929688 65.507812 -16.125 74.792969 -27.320312 C 86.089844 -15.378906 107.035156 -16.167969 115.738281 -17.480469 C 139.816406 -21.117188 170.171875 -38.164062 181.640625 -87.960938 C 183.992188 -99.886719 186.085938 -107.621094 185.296875 -112.84375 C 183.808594 -122.703125 175.480469 -126.785156 167.066406 -125.515625 Z M 70.902344 -113.957031 L 63.507812 -68.632812 C 60.265625 -48.859375 49.898438 -42.84375 43.808594 -41.921875 C 37.425781 -40.960938 33.621094 -44.539062 32.613281 -51.210938 C 32.046875 -54.980469 32.390625 -58.59375 32.867188 -61.335938 L 42.625 -122.445312 C 45.460938 -140.972656 53.234375 -144.519531 57.875 -145.21875 C 63.386719 -146.050781 70.308594 -141.460938 71.800781 -131.597656 C 72.457031 -127.246094 72.128906 -121.5625 70.902344 -113.957031 Z M 70.902344 -113.957031 "/></g></g></g><g fill="#ffe97d" fill-opacity="1"><g transform="translate(40.131938, 761.09289)"><g><path d="M 169.765625 -125.332031 C 161.933594 -124.148438 154.425781 -118.859375 153.214844 -109.183594 C 145.421875 -72.402344 131.992188 -55.242188 118.9375 -53.269531 C 113.136719 -52.394531 109.332031 -55.972656 108.628906 -60.613281 C 108.367188 -62.355469 108.394531 -64.140625 109.03125 -67.796875 L 142.398438 -247.585938 C 143.03125 -251.242188 143.738281 -256.394531 143.253906 -259.585938 C 141.371094 -272.058594 130.210938 -277.195312 120.058594 -275.660156 C 111.066406 -274.304688 103.664062 -266.363281 100.71875 -250.488281 L 85.625 -171.664062 C 75.480469 -179.921875 61.882812 -183.503906 48.25 -181.445312 C 29.394531 -178.597656 10.667969 -165.085938 6.164062 -141.859375 L -9.5625 -59.378906 C -10.761719 -53.558594 -10.753906 -47.625 -9.964844 -42.40625 C -6.109375 -16.878906 17.113281 -2.585938 42.0625 -6.351562 C 55.695312 -8.414062 70.078125 -15.332031 79.972656 -28.398438 C 90.453125 -19.894531 105.296875 -15.90625 119.800781 -18.09375 C 148.515625 -22.433594 178.476562 -48.023438 189.320312 -107.8125 C 189.59375 -109.929688 189.867188 -112.050781 189.605469 -113.789062 C 188.246094 -122.78125 178.757812 -126.6875 169.765625 -125.332031 Z M 41.695312 -51.988281 C 35.964844 -52.605469 33.855469 -56.738281 33.15625 -61.378906 C 32.585938 -65.148438 32.929688 -68.761719 33.40625 -71.503906 L 42.625 -122.445312 C 45.839844 -140.433594 53.234375 -144.519531 57.875 -145.21875 C 63.386719 -146.050781 70.308594 -141.460938 71.800781 -131.597656 C 72.457031 -127.246094 72.417969 -121.605469 70.902344 -113.957031 L 64.050781 -78.804688 C 58.589844 -56.023438 47.382812 -51.660156 41.695312 -51.988281 Z M 41.695312 -51.988281 "/></g></g></g><g fill="#ffe97d" fill-opacity="1"><g transform="translate(195.895475, 737.565445)"><g><path d="M 113.542969 -79.160156 C 113.585938 -78.867188 112.886719 -83.511719 110.894531 -88.847656 C 112.707031 -90.601562 114.386719 -93.230469 115.730469 -96.105469 C 119.566406 -104.101562 124.457031 -130.652344 122.703125 -142.253906 C 118.234375 -171.839844 90.890625 -187.886719 59.5625 -183.152344 C 32.296875 -179.035156 8.757812 -160.050781 3.375 -132.832031 L -8.773438 -69.878906 C -10.289062 -62.234375 -10.355469 -54.808594 -9.390625 -48.425781 C -4.789062 -17.96875 24.074219 -3.636719 53.664062 -8.105469 C 76.289062 -11.523438 95.789062 -21.886719 104.816406 -44.609375 C 110.257812 -43.949219 116.480469 -44 122.574219 -44.917969 C 156.800781 -50.089844 180.097656 -78.53125 185.359375 -110.476562 C 185.746094 -113.800781 185.890625 -116.789062 185.496094 -119.398438 C 183.875 -130.132812 175.121094 -135.039062 166.710938 -133.769531 C 158.878906 -132.585938 151.457031 -126.71875 149.886719 -115.503906 C 146.222656 -96.554688 134.761719 -82.066406 117.648438 -79.480469 C 116.488281 -79.308594 114.746094 -79.042969 113.542969 -79.160156 Z M 79.820312 -119.753906 C 79.34375 -117.011719 78.824219 -114.5625 78.882812 -112.195312 C 62.667969 -111.527344 50.425781 -96.328125 53.054688 -78.921875 C 54.835938 -69.105469 60.554688 -64.628906 66.765625 -60.820312 C 64.527344 -50.097656 56.863281 -43.894531 47.871094 -42.535156 C 36.554688 -40.828125 32.605469 -47.351562 31.554688 -54.3125 C 30.71875 -59.824219 31.382812 -65.265625 32.105469 -68.339844 L 43.804688 -130.335938 C 45.839844 -140.433594 55.160156 -147.480469 64.152344 -148.839844 C 73.144531 -150.195312 79.867188 -144.980469 80.875 -138.308594 C 81.664062 -133.089844 80.929688 -126.152344 79.820312 -119.753906 Z M 79.820312 -119.753906 "/></g></g></g><g fill="#ffe97d" fill-opacity="1"><g transform="translate(347.308066, 714.695192)"><g/></g></g><g fill="#ffe97d" fill-opacity="1"><g transform="translate(458.111906, 697.958726)"><g><path d="M 139.433594 -110.066406 C 131.363281 -71.167969 102.71875 -52.601562 79.515625 -49.097656 C 56.597656 -45.636719 31.914062 -55.851562 29.023438 -74.996094 C 28.363281 -79.347656 28.199219 -84.367188 29.195312 -89.558594 L 50.367188 -196.894531 C 54.4375 -217.09375 65.890625 -221.789062 72.851562 -222.839844 C 79.523438 -223.847656 84.777344 -220.488281 86.09375 -211.785156 C 86.707031 -207.726562 86.335938 -202.328125 84.890625 -196.175781 C 84.328125 -194.015625 84.34375 -191.941406 84.652344 -189.910156 C 86.183594 -179.757812 97.316406 -172.835938 108.628906 -174.542969 C 118.78125 -176.078125 129.042969 -184.75 131.375 -204.683594 C 132.265625 -212.53125 132.082031 -219.625 131.164062 -225.714844 C 126.34375 -257.625 98.304688 -272.375 65.234375 -267.382812 C 44.058594 -264.183594 12.597656 -250.53125 3.792969 -204.695312 L -16.824219 -95.664062 C -18.65625 -86.1875 -18.90625 -76.0625 -17.59375 -67.363281 C -11.851562 -29.363281 27.558594 -4.164062 78.03125 -11.785156 C 118.351562 -17.875 165.421875 -46.050781 174.820312 -105.621094 C 175.046875 -108.03125 175.03125 -110.105469 174.769531 -111.84375 C 173.234375 -121.996094 163.367188 -126.441406 154.375 -125.082031 C 146.832031 -123.945312 140.148438 -119.078125 139.433594 -110.066406 Z M 139.433594 -110.066406 "/></g></g></g><g fill="#ffe97d" fill-opacity="1"><g transform="translate(599.952414, 676.534297)"><g><path d="M 48.28125 -208.746094 C 61.332031 -210.71875 70.445312 -223.070312 68.429688 -236.414062 C 66.457031 -249.46875 54.148438 -258.289062 41.09375 -256.316406 C 28.039062 -254.347656 18.886719 -242.28125 20.855469 -229.230469 C 22.871094 -215.886719 35.226562 -206.773438 48.28125 -208.746094 Z M 31.464844 -54.894531 L 49.617188 -150.796875 C 50.207031 -154.742188 51.042969 -159.023438 50.605469 -161.921875 C 48.675781 -174.6875 38.097656 -179.910156 28.234375 -178.421875 C 19.242188 -177.0625 10.632812 -169.238281 8.050781 -154.902344 C 2.886719 -126.234375 -4.082031 -89.875 -9.289062 -61.496094 C -10.152344 -55.429688 -11.289062 -47.25 -10.546875 -42.316406 C -6.425781 -15.050781 18.566406 -2.804688 45.25 -6.835938 C 73.679688 -11.128906 102.378906 -33.265625 113.613281 -96.378906 C 113.929688 -98.207031 113.957031 -99.988281 113.695312 -101.730469 C 112.335938 -110.722656 102.800781 -114.917969 94.097656 -113.605469 C 86.265625 -112.421875 79.050781 -107.179688 76.925781 -97.660156 C 68.988281 -57.890625 55.410156 -43.675781 43.808594 -41.921875 C 37.136719 -40.914062 32.128906 -44.609375 31.296875 -50.121094 C 31.078125 -51.570312 31.148438 -53.066406 31.464844 -54.894531 Z M 31.464844 -54.894531 "/></g></g></g><g fill="#ffe97d" fill-opacity="1"><g transform="translate(680.00964, 664.441981)"><g><path d="M 149.242188 -107.988281 C 141.738281 -71.253906 127.929688 -54.628906 114.296875 -52.570312 C 109.074219 -51.78125 105.78125 -53.953125 105.035156 -58.886719 C 104.726562 -60.914062 104.957031 -63.324219 105.390625 -66.355469 L 118.289062 -134.167969 C 119.441406 -140.277344 119.816406 -145.675781 119.070312 -150.605469 C 115.566406 -173.8125 93.210938 -188.238281 70.003906 -184.730469 C 58.691406 -183.023438 50.09375 -179.054688 43.386719 -172.402344 C 40.855469 -177.363281 33.164062 -179.167969 25.332031 -177.984375 C 17.210938 -176.757812 9.949219 -171.804688 8.277344 -163.242188 L -19.707031 -20.460938 C -20.179688 -17.71875 -20.121094 -15.355469 -19.769531 -13.035156 C -18.148438 -2.300781 -8.90625 1.9375 0.378906 0.535156 C 10.53125 -0.996094 21.167969 -9.132812 23.546875 -22.84375 C 29.453125 -52.511719 37.371094 -94.355469 43.027344 -123.691406 C 48.667969 -139.378906 57.769531 -147.875 65.894531 -149.101562 C 71.113281 -149.890625 75.410156 -146.976562 76.242188 -141.46875 C 76.550781 -139.4375 76.363281 -136.738281 75.886719 -133.996094 L 63.738281 -71.042969 C 62.425781 -64.019531 61.9375 -57.417969 62.859375 -51.328125 C 66.890625 -24.640625 91.082031 -13.757812 115.738281 -17.480469 C 145.328125 -21.949219 173.921875 -46.742188 185.390625 -106.328125 C 185.914062 -108.78125 186.140625 -111.1875 185.835938 -113.21875 C 184.433594 -122.503906 175.277344 -126.164062 166.574219 -124.847656 C 158.742188 -123.664062 150.695312 -118 149.242188 -107.988281 Z M 149.242188 -107.988281 "/></g></g></g><g fill="#ffe97d" fill-opacity="1"><g transform="translate(832.292451, 641.440285)"><g><path d="M 134.421875 -103.96875 C 126.742188 -68.394531 98.34375 -50.160156 73.6875 -46.4375 C 52.511719 -43.238281 37.632812 -51.375 35.617188 -64.71875 C 35.222656 -67.328125 35.121094 -69.984375 35.84375 -73.058594 L 37.328125 -78.921875 C 46.53125 -74.96875 57.5 -73.066406 69.101562 -74.820312 C 95.5 -78.804688 116.207031 -98.847656 120.097656 -126.136719 C 120.714844 -131.867188 120.75 -137.507812 120.007812 -142.441406 C 115.84375 -169.996094 90.890625 -187.886719 58.113281 -182.933594 C 32.296875 -179.035156 9.335938 -160.140625 3.566406 -129.597656 L -6.054688 -77.410156 C -7.324219 -70.097656 -7.722656 -62.917969 -6.714844 -56.246094 C -1.5 -21.726562 34.230469 -5.171875 76.578125 -11.566406 C 116.898438 -17.65625 159.75 -44.304688 170.527344 -102.601562 C 171.046875 -105.050781 171.03125 -107.125 170.769531 -108.867188 C 169.410156 -117.859375 160.542969 -121.5625 151.839844 -120.25 C 143.71875 -119.023438 135.671875 -113.355469 134.421875 -103.96875 Z M 62.410156 -148.574219 C 70.535156 -149.800781 76.761719 -143.917969 78.035156 -135.507812 C 78.382812 -133.1875 78.445312 -130.820312 77.925781 -128.371094 C 76.46875 -118.359375 68.292969 -113.5625 59.589844 -112.25 C 54.078125 -111.417969 48.394531 -111.746094 43.980469 -113.453125 L 47.445312 -131.777344 C 49.277344 -141.25 55.742188 -147.566406 62.410156 -148.574219 Z M 62.410156 -148.574219 "/></g></g></g><g fill="#ffe97d" fill-opacity="1"><g transform="translate(969.782045, 620.673044)"><g><path d="M 242.328125 -135.992188 C 234.496094 -134.8125 226.738281 -129.1875 225.242188 -119.46875 C 217.734375 -82.730469 203.929688 -66.109375 190.296875 -64.050781 C 184.492188 -63.171875 181.066406 -66.214844 180.410156 -70.566406 C 180.191406 -72.015625 179.972656 -73.46875 180.375 -74.714844 L 194.824219 -146.027344 C 195.730469 -151.800781 196.015625 -157.777344 195.269531 -162.710938 C 191.546875 -187.367188 167.46875 -199.453125 141.074219 -195.464844 C 130.628906 -193.890625 115.941406 -189 104.21875 -176.25 C 97.074219 -182.292969 86.539062 -187.230469 69.714844 -184.6875 C 57.820312 -182.890625 51.386719 -178.359375 46.648438 -174.378906 C 42.796875 -178.25 36.066406 -179.605469 29.683594 -178.640625 C 20.691406 -177.28125 12.066406 -171.53125 9.855469 -162.59375 L -16.355469 -21.859375 C -16.832031 -19.117188 -16.769531 -16.75 -16.464844 -14.722656 C -14.84375 -3.988281 -4.640625 0.699219 5.511719 -0.832031 C 15.375 -2.320312 24.359375 -9.613281 26.667969 -21.828125 L 46.203125 -126.25 C 50.410156 -139.640625 58.640625 -148.003906 67.34375 -149.320312 C 73.144531 -150.195312 77.6875 -147.617188 78.476562 -142.398438 C 78.695312 -140.945312 78.710938 -138.871094 78.148438 -136.710938 L 58.449219 -37.3125 C 57.570312 -33.320312 57.269531 -29.417969 57.75 -26.226562 C 59.414062 -15.203125 69.039062 -10.429688 78.898438 -11.917969 C 88.472656 -13.363281 98.039062 -20.742188 100.503906 -33.871094 L 119.625 -133.183594 C 122.65625 -148.476562 132.320312 -159.132812 141.890625 -160.582031 C 147.113281 -161.367188 151.699219 -158.5 152.53125 -152.988281 C 152.796875 -151.25 152.8125 -149.175781 152.335938 -146.433594 L 139.359375 -83.058594 C 138.046875 -76.035156 137.894531 -69.1875 138.816406 -63.097656 C 142.800781 -36.699219 166.792969 -25.191406 192.316406 -29.050781 C 221.035156 -33.386719 250.140625 -56.769531 261.390625 -117.808594 C 261.664062 -119.925781 261.9375 -122.042969 261.632812 -124.074219 C 260.230469 -133.359375 251.027344 -137.308594 242.328125 -135.992188 Z M 242.328125 -135.992188 "/></g></g></g><g fill="#ffe97d" fill-opacity="1"><g transform="translate(1197.771073, 586.236235)"><g><path d="M 167.066406 -125.515625 C 158.945312 -124.289062 150.695312 -118 148.882812 -106.453125 C 142.957031 -69.0625 126.480469 -54.410156 113.425781 -52.4375 C 108.496094 -51.695312 105.199219 -53.867188 104.5 -58.507812 C 104.148438 -60.828125 104.289062 -63.816406 104.679688 -67.140625 L 122.96875 -166.03125 C 123.605469 -169.6875 123.703125 -172.964844 123.265625 -175.863281 C 121.335938 -188.628906 109.886719 -193.722656 99.15625 -192.101562 C 91.03125 -190.875 83.191406 -185.832031 79.644531 -177.878906 C 72.984375 -180.730469 61.011719 -183.375 46.21875 -181.140625 C 27.074219 -178.246094 7.765625 -164.648438 3.308594 -141.132812 L -12.171875 -58.984375 C -13.125 -53.5 -13.496094 -48.101562 -12.707031 -42.882812 C -9.070312 -18.804688 13.34375 -2.015625 38.871094 -5.871094 C 52.503906 -7.929688 65.507812 -16.125 74.792969 -27.320312 C 86.089844 -15.378906 107.035156 -16.167969 115.738281 -17.480469 C 139.816406 -21.117188 170.171875 -38.164062 181.640625 -87.960938 C 183.992188 -99.886719 186.085938 -107.621094 185.296875 -112.84375 C 183.808594 -122.703125 175.480469 -126.785156 167.066406 -125.515625 Z M 70.902344 -113.957031 L 63.507812 -68.632812 C 60.265625 -48.859375 49.898438 -42.84375 43.808594 -41.921875 C 37.425781 -40.960938 33.621094 -44.539062 32.613281 -51.210938 C 32.046875 -54.980469 32.390625 -58.59375 32.867188 -61.335938 L 42.625 -122.445312 C 45.460938 -140.972656 53.234375 -144.519531 57.875 -145.21875 C 63.386719 -146.050781 70.308594 -141.460938 71.800781 -131.597656 C 72.457031 -127.246094 72.128906 -121.5625 70.902344 -113.957031 Z M 70.902344 -113.957031 "/></g></g></g></svg>