<svg xmlns="http://www.w3.org/2000/svg" xmlns:xlink="http://www.w3.org/1999/xlink" width="1920" zoomAndPan="magnify" viewBox="0 0 1440 809.999993" height="1080" preserveAspectRatio="xMidYMid meet" version="1.0"><defs><g/></defs><g fill="#fd6155" fill-opacity="0.302"><g transform="translate(280.161703, 655.625638)"><g><path d="M 206.785156 -152.382812 C 197.140625 -100.953125 149.894531 -70.34375 105.480469 -63.632812 C 71.425781 -58.492188 50.179688 -73.832031 46.378906 -99.003906 C 41.402344 -131.945312 58.59375 -153.472656 94.867188 -158.949219 C 108.570312 -153.449219 119.808594 -151.738281 129.0625 -153.136719 C 151.269531 -156.492188 160.746094 -176.472656 158.117188 -193.867188 C 155.824219 -209.042969 144.335938 -222.453125 123.496094 -220.0625 C 101.289062 -216.707031 87.519531 -230.152344 84.894531 -247.546875 C 81.257812 -271.605469 92.214844 -291.8125 116.644531 -295.503906 C 128.117188 -297.234375 140.453125 -290.769531 144.386719 -282.277344 C 152.363281 -264.554688 164.011719 -257.605469 176.96875 -259.5625 C 189.921875 -261.519531 201.167969 -272.304688 199.816406 -288.757812 C 196.109375 -328.328125 156.53125 -352.257812 110.261719 -345.269531 C 57.332031 -337.273438 17.808594 -288.144531 25.523438 -237.066406 C 27.871094 -221.519531 35.121094 -208.605469 46.054688 -198.898438 C -7.53125 -180.207031 -19.804688 -126.105469 -13.878906 -86.871094 C -6.332031 -36.902344 43.675781 -6.597656 111.414062 -16.828125 C 180.628906 -27.285156 242.015625 -77.0625 252.859375 -150.632812 C 253.523438 -153.761719 253.445312 -156.78125 253.054688 -159.371094 C 251.097656 -172.324219 239.671875 -177.792969 228.566406 -176.117188 C 218.203125 -174.550781 208.417969 -166.636719 206.785156 -152.382812 Z M 206.785156 -152.382812 "/></g></g></g><g fill="#fd6155" fill-opacity="0.302"><g transform="translate(488.174682, 624.20613)"><g><path d="M 216.625 -159.925781 C 206.632812 -158.417969 197.050781 -151.667969 195.507812 -139.320312 C 185.5625 -92.386719 168.425781 -70.492188 151.769531 -67.976562 C 144.367188 -66.859375 139.511719 -71.425781 138.617188 -77.347656 C 138.28125 -79.566406 138.316406 -81.84375 139.125 -86.511719 L 181.703125 -315.929688 C 182.515625 -320.59375 183.414062 -327.167969 182.800781 -331.238281 C 180.394531 -347.15625 166.15625 -353.710938 153.199219 -351.753906 C 141.726562 -350.019531 132.277344 -339.886719 128.519531 -319.632812 L 109.261719 -219.046875 C 96.3125 -229.585938 78.964844 -234.160156 61.566406 -231.53125 C 37.507812 -227.898438 13.613281 -210.65625 7.867188 -181.015625 L -12.203125 -75.765625 C -13.730469 -68.34375 -13.722656 -60.773438 -12.714844 -54.109375 C -7.796875 -21.539062 21.839844 -3.296875 53.671875 -8.105469 C 71.066406 -10.734375 89.421875 -19.5625 102.046875 -36.234375 C 115.421875 -25.382812 134.363281 -20.292969 152.867188 -23.089844 C 189.511719 -28.625 227.738281 -61.277344 241.582031 -137.574219 C 241.929688 -140.277344 242.28125 -142.980469 241.945312 -145.199219 C 240.210938 -156.671875 228.101562 -161.660156 216.625 -159.925781 Z M 53.203125 -66.339844 C 45.890625 -67.128906 43.203125 -72.398438 42.308594 -78.320312 C 41.582031 -83.132812 42.019531 -87.742188 42.628906 -91.242188 L 54.390625 -156.242188 C 58.492188 -179.199219 67.929688 -184.410156 73.851562 -185.304688 C 80.882812 -186.367188 89.71875 -180.507812 91.621094 -167.925781 C 92.457031 -162.371094 92.410156 -155.171875 90.476562 -145.414062 L 81.730469 -100.554688 C 74.761719 -71.488281 60.460938 -65.921875 53.203125 -66.339844 Z M 53.203125 -66.339844 "/></g></g></g><g fill="#fd6155" fill-opacity="0.302"><g transform="translate(686.934407, 594.184288)"><g><path d="M 61.605469 -266.367188 C 78.261719 -268.882812 89.890625 -284.644531 87.316406 -301.671875 C 84.800781 -318.328125 69.09375 -329.585938 52.4375 -327.070312 C 35.78125 -324.554688 24.097656 -309.160156 26.613281 -292.503906 C 29.1875 -275.476562 44.949219 -263.851562 61.605469 -266.367188 Z M 40.152344 -70.046875 L 63.3125 -192.421875 C 64.066406 -197.457031 65.132812 -202.917969 64.574219 -206.621094 C 62.113281 -222.90625 48.613281 -229.574219 36.027344 -227.671875 C 24.554688 -225.941406 13.570312 -215.953125 10.273438 -197.660156 C 3.683594 -161.078125 -5.207031 -114.683594 -11.851562 -78.46875 C -12.957031 -70.730469 -14.40625 -60.289062 -13.457031 -54 C -8.199219 -19.203125 23.6875 -3.578125 57.742188 -8.722656 C 94.015625 -14.199219 130.636719 -42.449219 144.972656 -122.980469 C 145.378906 -125.3125 145.414062 -127.589844 145.078125 -129.8125 C 143.34375 -141.285156 131.179688 -146.640625 120.074219 -144.964844 C 110.082031 -143.453125 100.871094 -136.761719 98.160156 -124.617188 C 88.03125 -73.871094 70.707031 -55.730469 55.902344 -53.496094 C 47.386719 -52.210938 40.996094 -56.921875 39.933594 -63.957031 C 39.65625 -65.808594 39.746094 -67.714844 40.152344 -70.046875 Z M 40.152344 -70.046875 "/></g></g></g><g fill="#fd6155" fill-opacity="0.302"><g transform="translate(789.090229, 578.75407)"><g><path d="M 116.375 -124.339844 C 107.71875 -81.386719 87.363281 -58.246094 65.894531 -55.003906 C 52.570312 -52.992188 43.195312 -59.90625 41.6875 -69.898438 C 41.296875 -72.492188 41.589844 -75.5625 41.9375 -78.265625 L 62.613281 -187.015625 L 86.671875 -190.648438 C 105.550781 -193.5 113.53125 -208.335938 111.6875 -220.550781 C 110.230469 -230.171875 102.652344 -237.738281 88.589844 -235.613281 L 71.933594 -233.097656 L 85.828125 -309.019531 C 86.179688 -311.722656 86.214844 -314 85.878906 -316.21875 C 83.808594 -329.914062 72.507812 -339.566406 56.222656 -337.105469 C 44.007812 -335.261719 34.929688 -325.183594 32.445312 -311.558594 L 15.300781 -224.542969 L -0.246094 -222.195312 C -20.234375 -219.175781 -26.847656 -205.304688 -25.058594 -193.460938 C -23.492188 -183.09375 -15.855469 -175.164062 -5.863281 -176.671875 L 6.351562 -178.515625 L -11.265625 -84.617188 L -11.324219 -84.988281 C -12.941406 -75.65625 -13.191406 -67.289062 -12.019531 -59.515625 C -6.316406 -21.761719 30.722656 -4.640625 68.847656 -10.398438 C 116.226562 -17.554688 150.519531 -58.699219 162.449219 -122.589844 C 162.796875 -125.292969 163.144531 -127.996094 162.808594 -130.21875 C 161.132812 -141.320312 149.335938 -146.734375 137.863281 -145 C 128.609375 -143.601562 119.027344 -136.855469 116.375 -124.339844 Z M 116.375 -124.339844 "/></g></g></g><g fill="#fd6155" fill-opacity="0.302"><g transform="translate(910.122676, 560.472615)"><g><path d="M 213.183594 -160.164062 C 202.820312 -158.597656 192.292969 -150.570312 189.976562 -135.835938 C 182.417969 -88.128906 161.390625 -69.429688 144.734375 -66.914062 C 138.441406 -65.964844 134.238281 -68.734375 133.34375 -74.65625 C 132.898438 -77.617188 133.078125 -81.433594 133.574219 -85.671875 L 156.914062 -211.859375 C 157.722656 -216.523438 157.851562 -220.707031 157.289062 -224.410156 C 154.832031 -240.695312 140.21875 -247.195312 126.523438 -245.128906 C 116.160156 -243.5625 106.152344 -237.128906 101.628906 -226.980469 C 93.128906 -230.617188 77.855469 -233.992188 58.976562 -231.140625 C 34.546875 -227.449219 9.910156 -210.097656 4.222656 -180.089844 L -15.53125 -75.265625 C -16.746094 -68.265625 -17.222656 -61.378906 -16.214844 -54.71875 C -11.574219 -23.996094 17.027344 -2.570312 49.597656 -7.492188 C 66.996094 -10.121094 83.589844 -20.574219 95.4375 -34.859375 C 109.855469 -19.621094 136.582031 -20.628906 147.6875 -22.308594 C 178.410156 -26.949219 217.148438 -48.699219 231.777344 -112.242188 C 234.78125 -127.460938 237.453125 -137.328125 236.449219 -143.992188 C 234.546875 -156.574219 223.917969 -161.785156 213.183594 -160.164062 Z M 90.476562 -145.414062 L 81.039062 -87.578125 C 76.902344 -62.347656 63.675781 -54.667969 55.902344 -53.496094 C 47.757812 -52.265625 42.902344 -56.832031 41.617188 -65.347656 C 40.890625 -70.15625 41.332031 -74.765625 41.9375 -78.265625 L 54.390625 -156.242188 C 58.011719 -179.882812 67.929688 -184.410156 73.851562 -185.304688 C 80.882812 -186.367188 89.71875 -180.507812 91.621094 -167.925781 C 92.457031 -162.371094 92.039062 -155.117188 90.476562 -145.414062 Z M 90.476562 -145.414062 "/></g></g></g><g fill="#fd6155" fill-opacity="0.302"><g transform="translate(1104.440873, 531.121648)"><g><path d="M 171.449219 -135.6875 C 162.863281 -97.289062 148.066406 -67.417969 132.519531 -65.070312 C 127.339844 -64.285156 124.019531 -68.707031 123.238281 -73.886719 C 122.902344 -76.109375 122.824219 -79.125 123.488281 -82.253906 L 136.15625 -146.257812 C 137.261719 -153.996094 137.734375 -160.882812 136.785156 -167.175781 C 131.472656 -202.335938 84.820312 -210.433594 63.140625 -213.597656 C 63.804688 -216.726562 63.671875 -220.113281 63.222656 -223.074219 C 60.652344 -240.101562 43.296875 -252.242188 26.640625 -249.726562 C 4.800781 -246.429688 -5.246094 -225.222656 -2.058594 -204.125 C -0.660156 -194.871094 4.121094 -185.753906 11.164062 -179.242188 L -4.84375 -102.246094 C -5.136719 -99.171875 -5.058594 -96.15625 -4.722656 -93.933594 C -2.878906 -81.71875 7.695312 -76.878906 18.058594 -78.445312 C 28.421875 -80.011719 38.261719 -87.554688 40.914062 -100.070312 L 53.257812 -158.722656 C 64.125 -156.957031 78.210938 -156.433594 80.113281 -143.847656 C 80.390625 -142 80.355469 -139.722656 80.007812 -137.019531 L 70.542969 -89.402344 C 68.867188 -80.441406 68.5625 -72.445312 69.679688 -65.042969 C 74.542969 -32.839844 103.269531 -15.597656 133.992188 -20.238281 C 174.335938 -26.332031 205.558594 -67.773438 217.949219 -133.625 C 218.351562 -135.957031 218.445312 -137.863281 218.164062 -139.714844 C 216.488281 -150.820312 203.152344 -156.375 191.308594 -154.585938 C 181.6875 -153.132812 173.101562 -147.292969 171.449219 -135.6875 Z M 171.449219 -135.6875 "/></g></g></g><g fill="#fd6155" fill-opacity="0.502"><g transform="translate(263.111845, 635.725737)"><g><path d="M 206.785156 -152.382812 C 197.140625 -100.953125 149.894531 -70.34375 105.480469 -63.632812 C 71.425781 -58.492188 50.179688 -73.832031 46.378906 -99.003906 C 41.402344 -131.945312 58.59375 -153.472656 94.867188 -158.949219 C 108.570312 -153.449219 119.808594 -151.738281 129.0625 -153.136719 C 151.269531 -156.492188 160.746094 -176.472656 158.117188 -193.867188 C 155.824219 -209.042969 144.335938 -222.453125 123.496094 -220.0625 C 101.289062 -216.707031 87.519531 -230.152344 84.894531 -247.546875 C 81.257812 -271.605469 92.214844 -291.8125 116.644531 -295.503906 C 128.117188 -297.234375 140.453125 -290.769531 144.386719 -282.277344 C 152.363281 -264.554688 164.011719 -257.605469 176.96875 -259.5625 C 189.921875 -261.519531 201.167969 -272.304688 199.816406 -288.757812 C 196.109375 -328.328125 156.53125 -352.257812 110.261719 -345.269531 C 57.332031 -337.273438 17.808594 -288.144531 25.523438 -237.066406 C 27.871094 -221.519531 35.121094 -208.605469 46.054688 -198.898438 C -7.53125 -180.207031 -19.804688 -126.105469 -13.878906 -86.871094 C -6.332031 -36.902344 43.675781 -6.597656 111.414062 -16.828125 C 180.628906 -27.285156 242.015625 -77.0625 252.859375 -150.632812 C 253.523438 -153.761719 253.445312 -156.78125 253.054688 -159.371094 C 251.097656 -172.324219 239.671875 -177.792969 228.566406 -176.117188 C 218.203125 -174.550781 208.417969 -166.636719 206.785156 -152.382812 Z M 206.785156 -152.382812 "/></g></g></g><g fill="#fd6155" fill-opacity="0.502"><g transform="translate(471.124823, 604.306229)"><g><path d="M 216.625 -159.925781 C 206.632812 -158.417969 197.050781 -151.667969 195.507812 -139.320312 C 185.5625 -92.386719 168.425781 -70.492188 151.769531 -67.976562 C 144.367188 -66.859375 139.511719 -71.425781 138.617188 -77.347656 C 138.28125 -79.566406 138.316406 -81.84375 139.125 -86.511719 L 181.703125 -315.929688 C 182.515625 -320.59375 183.414062 -327.167969 182.800781 -331.238281 C 180.394531 -347.15625 166.15625 -353.710938 153.199219 -351.753906 C 141.726562 -350.019531 132.277344 -339.886719 128.519531 -319.632812 L 109.261719 -219.046875 C 96.3125 -229.585938 78.964844 -234.160156 61.566406 -231.53125 C 37.507812 -227.898438 13.613281 -210.65625 7.867188 -181.015625 L -12.203125 -75.765625 C -13.730469 -68.34375 -13.722656 -60.773438 -12.714844 -54.109375 C -7.796875 -21.539062 21.839844 -3.296875 53.671875 -8.105469 C 71.066406 -10.734375 89.421875 -19.5625 102.046875 -36.234375 C 115.421875 -25.382812 134.363281 -20.292969 152.867188 -23.089844 C 189.511719 -28.625 227.738281 -61.277344 241.582031 -137.574219 C 241.929688 -140.277344 242.28125 -142.980469 241.945312 -145.199219 C 240.210938 -156.671875 228.101562 -161.660156 216.625 -159.925781 Z M 53.203125 -66.339844 C 45.890625 -67.128906 43.203125 -72.398438 42.308594 -78.320312 C 41.582031 -83.132812 42.019531 -87.742188 42.628906 -91.242188 L 54.390625 -156.242188 C 58.492188 -179.199219 67.929688 -184.410156 73.851562 -185.304688 C 80.882812 -186.367188 89.71875 -180.507812 91.621094 -167.925781 C 92.457031 -162.371094 92.410156 -155.171875 90.476562 -145.414062 L 81.730469 -100.554688 C 74.761719 -71.488281 60.460938 -65.921875 53.203125 -66.339844 Z M 53.203125 -66.339844 "/></g></g></g><g fill="#fd6155" fill-opacity="0.502"><g transform="translate(669.884549, 574.284387)"><g><path d="M 61.605469 -266.367188 C 78.261719 -268.882812 89.890625 -284.644531 87.316406 -301.671875 C 84.800781 -318.328125 69.09375 -329.585938 52.4375 -327.070312 C 35.78125 -324.554688 24.097656 -309.160156 26.613281 -292.503906 C 29.1875 -275.476562 44.949219 -263.851562 61.605469 -266.367188 Z M 40.152344 -70.046875 L 63.3125 -192.421875 C 64.066406 -197.457031 65.132812 -202.917969 64.574219 -206.621094 C 62.113281 -222.90625 48.613281 -229.574219 36.027344 -227.671875 C 24.554688 -225.941406 13.570312 -215.953125 10.273438 -197.660156 C 3.683594 -161.078125 -5.207031 -114.683594 -11.851562 -78.46875 C -12.957031 -70.730469 -14.40625 -60.289062 -13.457031 -54 C -8.199219 -19.203125 23.6875 -3.578125 57.742188 -8.722656 C 94.015625 -14.199219 130.636719 -42.449219 144.972656 -122.980469 C 145.378906 -125.3125 145.414062 -127.589844 145.078125 -129.8125 C 143.34375 -141.285156 131.179688 -146.640625 120.074219 -144.964844 C 110.082031 -143.453125 100.871094 -136.761719 98.160156 -124.617188 C 88.03125 -73.871094 70.707031 -55.730469 55.902344 -53.496094 C 47.386719 -52.210938 40.996094 -56.921875 39.933594 -63.957031 C 39.65625 -65.808594 39.746094 -67.714844 40.152344 -70.046875 Z M 40.152344 -70.046875 "/></g></g></g><g fill="#fd6155" fill-opacity="0.502"><g transform="translate(772.040371, 558.854169)"><g><path d="M 116.375 -124.339844 C 107.71875 -81.386719 87.363281 -58.246094 65.894531 -55.003906 C 52.570312 -52.992188 43.195312 -59.90625 41.6875 -69.898438 C 41.296875 -72.492188 41.589844 -75.5625 41.9375 -78.265625 L 62.613281 -187.015625 L 86.671875 -190.648438 C 105.550781 -193.5 113.53125 -208.335938 111.6875 -220.550781 C 110.230469 -230.171875 102.652344 -237.738281 88.589844 -235.613281 L 71.933594 -233.097656 L 85.828125 -309.019531 C 86.179688 -311.722656 86.214844 -314 85.878906 -316.21875 C 83.808594 -329.914062 72.507812 -339.566406 56.222656 -337.105469 C 44.007812 -335.261719 34.929688 -325.183594 32.445312 -311.558594 L 15.300781 -224.542969 L -0.246094 -222.195312 C -20.234375 -219.175781 -26.847656 -205.304688 -25.058594 -193.460938 C -23.492188 -183.09375 -15.855469 -175.164062 -5.863281 -176.671875 L 6.351562 -178.515625 L -11.265625 -84.617188 L -11.324219 -84.988281 C -12.941406 -75.65625 -13.191406 -67.289062 -12.019531 -59.515625 C -6.316406 -21.761719 30.722656 -4.640625 68.847656 -10.398438 C 116.226562 -17.554688 150.519531 -58.699219 162.449219 -122.589844 C 162.796875 -125.292969 163.144531 -127.996094 162.808594 -130.21875 C 161.132812 -141.320312 149.335938 -146.734375 137.863281 -145 C 128.609375 -143.601562 119.027344 -136.855469 116.375 -124.339844 Z M 116.375 -124.339844 "/></g></g></g><g fill="#fd6155" fill-opacity="0.502"><g transform="translate(893.072818, 540.572713)"><g><path d="M 213.183594 -160.164062 C 202.820312 -158.597656 192.292969 -150.570312 189.976562 -135.835938 C 182.417969 -88.128906 161.390625 -69.429688 144.734375 -66.914062 C 138.441406 -65.964844 134.238281 -68.734375 133.34375 -74.65625 C 132.898438 -77.617188 133.078125 -81.433594 133.574219 -85.671875 L 156.914062 -211.859375 C 157.722656 -216.523438 157.851562 -220.707031 157.289062 -224.410156 C 154.832031 -240.695312 140.21875 -247.195312 126.523438 -245.128906 C 116.160156 -243.5625 106.152344 -237.128906 101.628906 -226.980469 C 93.128906 -230.617188 77.855469 -233.992188 58.976562 -231.140625 C 34.546875 -227.449219 9.910156 -210.097656 4.222656 -180.089844 L -15.53125 -75.265625 C -16.746094 -68.265625 -17.222656 -61.378906 -16.214844 -54.71875 C -11.574219 -23.996094 17.027344 -2.570312 49.597656 -7.492188 C 66.996094 -10.121094 83.589844 -20.574219 95.4375 -34.859375 C 109.855469 -19.621094 136.582031 -20.628906 147.6875 -22.308594 C 178.410156 -26.949219 217.148438 -48.699219 231.777344 -112.242188 C 234.78125 -127.460938 237.453125 -137.328125 236.449219 -143.992188 C 234.546875 -156.574219 223.917969 -161.785156 213.183594 -160.164062 Z M 90.476562 -145.414062 L 81.039062 -87.578125 C 76.902344 -62.347656 63.675781 -54.667969 55.902344 -53.496094 C 47.757812 -52.265625 42.902344 -56.832031 41.617188 -65.347656 C 40.890625 -70.15625 41.332031 -74.765625 41.9375 -78.265625 L 54.390625 -156.242188 C 58.011719 -179.882812 67.929688 -184.410156 73.851562 -185.304688 C 80.882812 -186.367188 89.71875 -180.507812 91.621094 -167.925781 C 92.457031 -162.371094 92.039062 -155.117188 90.476562 -145.414062 Z M 90.476562 -145.414062 "/></g></g></g><g fill="#fd6155" fill-opacity="0.502"><g transform="translate(1087.391015, 511.221746)"><g><path d="M 171.449219 -135.6875 C 162.863281 -97.289062 148.066406 -67.417969 132.519531 -65.070312 C 127.339844 -64.285156 124.019531 -68.707031 123.238281 -73.886719 C 122.902344 -76.109375 122.824219 -79.125 123.488281 -82.253906 L 136.15625 -146.257812 C 137.261719 -153.996094 137.734375 -160.882812 136.785156 -167.175781 C 131.472656 -202.335938 84.820312 -210.433594 63.140625 -213.597656 C 63.804688 -216.726562 63.671875 -220.113281 63.222656 -223.074219 C 60.652344 -240.101562 43.296875 -252.242188 26.640625 -249.726562 C 4.800781 -246.429688 -5.246094 -225.222656 -2.058594 -204.125 C -0.660156 -194.871094 4.121094 -185.753906 11.164062 -179.242188 L -4.84375 -102.246094 C -5.136719 -99.171875 -5.058594 -96.15625 -4.722656 -93.933594 C -2.878906 -81.71875 7.695312 -76.878906 18.058594 -78.445312 C 28.421875 -80.011719 38.261719 -87.554688 40.914062 -100.070312 L 53.257812 -158.722656 C 64.125 -156.957031 78.210938 -156.433594 80.113281 -143.847656 C 80.390625 -142 80.355469 -139.722656 80.007812 -137.019531 L 70.542969 -89.402344 C 68.867188 -80.441406 68.5625 -72.445312 69.679688 -65.042969 C 74.542969 -32.839844 103.269531 -15.597656 133.992188 -20.238281 C 174.335938 -26.332031 205.558594 -67.773438 217.949219 -133.625 C 218.351562 -135.957031 218.445312 -137.863281 218.164062 -139.714844 C 216.488281 -150.820312 203.152344 -156.375 191.308594 -154.585938 C 181.6875 -153.132812 173.101562 -147.292969 171.449219 -135.6875 Z M 171.449219 -135.6875 "/></g></g></g><g fill="#ffe97d" fill-opacity="1"><g transform="translate(246.06196, 615.825835)"><g><path d="M 206.785156 -152.382812 C 197.140625 -100.953125 149.894531 -70.34375 105.480469 -63.632812 C 71.425781 -58.492188 50.179688 -73.832031 46.378906 -99.003906 C 41.402344 -131.945312 58.59375 -153.472656 94.867188 -158.949219 C 108.570312 -153.449219 119.808594 -151.738281 129.0625 -153.136719 C 151.269531 -156.492188 160.746094 -176.472656 158.117188 -193.867188 C 155.824219 -209.042969 144.335938 -222.453125 123.496094 -220.0625 C 101.289062 -216.707031 87.519531 -230.152344 84.894531 -247.546875 C 81.257812 -271.605469 92.214844 -291.8125 116.644531 -295.503906 C 128.117188 -297.234375 140.453125 -290.769531 144.386719 -282.277344 C 152.363281 -264.554688 164.011719 -257.605469 176.96875 -259.5625 C 189.921875 -261.519531 201.167969 -272.304688 199.816406 -288.757812 C 196.109375 -328.328125 156.53125 -352.257812 110.261719 -345.269531 C 57.332031 -337.273438 17.808594 -288.144531 25.523438 -237.066406 C 27.871094 -221.519531 35.121094 -208.605469 46.054688 -198.898438 C -7.53125 -180.207031 -19.804688 -126.105469 -13.878906 -86.871094 C -6.332031 -36.902344 43.675781 -6.597656 111.414062 -16.828125 C 180.628906 -27.285156 242.015625 -77.0625 252.859375 -150.632812 C 253.523438 -153.761719 253.445312 -156.78125 253.054688 -159.371094 C 251.097656 -172.324219 239.671875 -177.792969 228.566406 -176.117188 C 218.203125 -174.550781 208.417969 -166.636719 206.785156 -152.382812 Z M 206.785156 -152.382812 "/></g></g></g><g fill="#ffe97d" fill-opacity="1"><g transform="translate(454.074939, 584.406327)"><g><path d="M 216.625 -159.925781 C 206.632812 -158.417969 197.050781 -151.667969 195.507812 -139.320312 C 185.5625 -92.386719 168.425781 -70.492188 151.769531 -67.976562 C 144.367188 -66.859375 139.511719 -71.425781 138.617188 -77.347656 C 138.28125 -79.566406 138.316406 -81.84375 139.125 -86.511719 L 181.703125 -315.929688 C 182.515625 -320.59375 183.414062 -327.167969 182.800781 -331.238281 C 180.394531 -347.15625 166.15625 -353.710938 153.199219 -351.753906 C 141.726562 -350.019531 132.277344 -339.886719 128.519531 -319.632812 L 109.261719 -219.046875 C 96.3125 -229.585938 78.964844 -234.160156 61.566406 -231.53125 C 37.507812 -227.898438 13.613281 -210.65625 7.867188 -181.015625 L -12.203125 -75.765625 C -13.730469 -68.34375 -13.722656 -60.773438 -12.714844 -54.109375 C -7.796875 -21.539062 21.839844 -3.296875 53.671875 -8.105469 C 71.066406 -10.734375 89.421875 -19.5625 102.046875 -36.234375 C 115.421875 -25.382812 134.363281 -20.292969 152.867188 -23.089844 C 189.511719 -28.625 227.738281 -61.277344 241.582031 -137.574219 C 241.929688 -140.277344 242.28125 -142.980469 241.945312 -145.199219 C 240.210938 -156.671875 228.101562 -161.660156 216.625 -159.925781 Z M 53.203125 -66.339844 C 45.890625 -67.128906 43.203125 -72.398438 42.308594 -78.320312 C 41.582031 -83.132812 42.019531 -87.742188 42.628906 -91.242188 L 54.390625 -156.242188 C 58.492188 -179.199219 67.929688 -184.410156 73.851562 -185.304688 C 80.882812 -186.367188 89.71875 -180.507812 91.621094 -167.925781 C 92.457031 -162.371094 92.410156 -155.171875 90.476562 -145.414062 L 81.730469 -100.554688 C 74.761719 -71.488281 60.460938 -65.921875 53.203125 -66.339844 Z M 53.203125 -66.339844 "/></g></g></g><g fill="#ffe97d" fill-opacity="1"><g transform="translate(652.834664, 554.384485)"><g><path d="M 61.605469 -266.367188 C 78.261719 -268.882812 89.890625 -284.644531 87.316406 -301.671875 C 84.800781 -318.328125 69.09375 -329.585938 52.4375 -327.070312 C 35.78125 -324.554688 24.097656 -309.160156 26.613281 -292.503906 C 29.1875 -275.476562 44.949219 -263.851562 61.605469 -266.367188 Z M 40.152344 -70.046875 L 63.3125 -192.421875 C 64.066406 -197.457031 65.132812 -202.917969 64.574219 -206.621094 C 62.113281 -222.90625 48.613281 -229.574219 36.027344 -227.671875 C 24.554688 -225.941406 13.570312 -215.953125 10.273438 -197.660156 C 3.683594 -161.078125 -5.207031 -114.683594 -11.851562 -78.46875 C -12.957031 -70.730469 -14.40625 -60.289062 -13.457031 -54 C -8.199219 -19.203125 23.6875 -3.578125 57.742188 -8.722656 C 94.015625 -14.199219 130.636719 -42.449219 144.972656 -122.980469 C 145.378906 -125.3125 145.414062 -127.589844 145.078125 -129.8125 C 143.34375 -141.285156 131.179688 -146.640625 120.074219 -144.964844 C 110.082031 -143.453125 100.871094 -136.761719 98.160156 -124.617188 C 88.03125 -73.871094 70.707031 -55.730469 55.902344 -53.496094 C 47.386719 -52.210938 40.996094 -56.921875 39.933594 -63.957031 C 39.65625 -65.808594 39.746094 -67.714844 40.152344 -70.046875 Z M 40.152344 -70.046875 "/></g></g></g><g fill="#ffe97d" fill-opacity="1"><g transform="translate(754.990486, 538.954267)"><g><path d="M 116.375 -124.339844 C 107.71875 -81.386719 87.363281 -58.246094 65.894531 -55.003906 C 52.570312 -52.992188 43.195312 -59.90625 41.6875 -69.898438 C 41.296875 -72.492188 41.589844 -75.5625 41.9375 -78.265625 L 62.613281 -187.015625 L 86.671875 -190.648438 C 105.550781 -193.5 113.53125 -208.335938 111.6875 -220.550781 C 110.230469 -230.171875 102.652344 -237.738281 88.589844 -235.613281 L 71.933594 -233.097656 L 85.828125 -309.019531 C 86.179688 -311.722656 86.214844 -314 85.878906 -316.21875 C 83.808594 -329.914062 72.507812 -339.566406 56.222656 -337.105469 C 44.007812 -335.261719 34.929688 -325.183594 32.445312 -311.558594 L 15.300781 -224.542969 L -0.246094 -222.195312 C -20.234375 -219.175781 -26.847656 -205.304688 -25.058594 -193.460938 C -23.492188 -183.09375 -15.855469 -175.164062 -5.863281 -176.671875 L 6.351562 -178.515625 L -11.265625 -84.617188 L -11.324219 -84.988281 C -12.941406 -75.65625 -13.191406 -67.289062 -12.019531 -59.515625 C -6.316406 -21.761719 30.722656 -4.640625 68.847656 -10.398438 C 116.226562 -17.554688 150.519531 -58.699219 162.449219 -122.589844 C 162.796875 -125.292969 163.144531 -127.996094 162.808594 -130.21875 C 161.132812 -141.320312 149.335938 -146.734375 137.863281 -145 C 128.609375 -143.601562 119.027344 -136.855469 116.375 -124.339844 Z M 116.375 -124.339844 "/></g></g></g><g fill="#ffe97d" fill-opacity="1"><g transform="translate(876.022933, 520.672812)"><g><path d="M 213.183594 -160.164062 C 202.820312 -158.597656 192.292969 -150.570312 189.976562 -135.835938 C 182.417969 -88.128906 161.390625 -69.429688 144.734375 -66.914062 C 138.441406 -65.964844 134.238281 -68.734375 133.34375 -74.65625 C 132.898438 -77.617188 133.078125 -81.433594 133.574219 -85.671875 L 156.914062 -211.859375 C 157.722656 -216.523438 157.851562 -220.707031 157.289062 -224.410156 C 154.832031 -240.695312 140.21875 -247.195312 126.523438 -245.128906 C 116.160156 -243.5625 106.152344 -237.128906 101.628906 -226.980469 C 93.128906 -230.617188 77.855469 -233.992188 58.976562 -231.140625 C 34.546875 -227.449219 9.910156 -210.097656 4.222656 -180.089844 L -15.53125 -75.265625 C -16.746094 -68.265625 -17.222656 -61.378906 -16.214844 -54.71875 C -11.574219 -23.996094 17.027344 -2.570312 49.597656 -7.492188 C 66.996094 -10.121094 83.589844 -20.574219 95.4375 -34.859375 C 109.855469 -19.621094 136.582031 -20.628906 147.6875 -22.308594 C 178.410156 -26.949219 217.148438 -48.699219 231.777344 -112.242188 C 234.78125 -127.460938 237.453125 -137.328125 236.449219 -143.992188 C 234.546875 -156.574219 223.917969 -161.785156 213.183594 -160.164062 Z M 90.476562 -145.414062 L 81.039062 -87.578125 C 76.902344 -62.347656 63.675781 -54.667969 55.902344 -53.496094 C 47.757812 -52.265625 42.902344 -56.832031 41.617188 -65.347656 C 40.890625 -70.15625 41.332031 -74.765625 41.9375 -78.265625 L 54.390625 -156.242188 C 58.011719 -179.882812 67.929688 -184.410156 73.851562 -185.304688 C 80.882812 -186.367188 89.71875 -180.507812 91.621094 -167.925781 C 92.457031 -162.371094 92.039062 -155.117188 90.476562 -145.414062 Z M 90.476562 -145.414062 "/></g></g></g><g fill="#ffe97d" fill-opacity="1"><g transform="translate(1070.34113, 491.321845)"><g><path d="M 171.449219 -135.6875 C 162.863281 -97.289062 148.066406 -67.417969 132.519531 -65.070312 C 127.339844 -64.285156 124.019531 -68.707031 123.238281 -73.886719 C 122.902344 -76.109375 122.824219 -79.125 123.488281 -82.253906 L 136.15625 -146.257812 C 137.261719 -153.996094 137.734375 -160.882812 136.785156 -167.175781 C 131.472656 -202.335938 84.820312 -210.433594 63.140625 -213.597656 C 63.804688 -216.726562 63.671875 -220.113281 63.222656 -223.074219 C 60.652344 -240.101562 43.296875 -252.242188 26.640625 -249.726562 C 4.800781 -246.429688 -5.246094 -225.222656 -2.058594 -204.125 C -0.660156 -194.871094 4.121094 -185.753906 11.164062 -179.242188 L -4.84375 -102.246094 C -5.136719 -99.171875 -5.058594 -96.15625 -4.722656 -93.933594 C -2.878906 -81.71875 7.695312 -76.878906 18.058594 -78.445312 C 28.421875 -80.011719 38.261719 -87.554688 40.914062 -100.070312 L 53.257812 -158.722656 C 64.125 -156.957031 78.210938 -156.433594 80.113281 -143.847656 C 80.390625 -142 80.355469 -139.722656 80.007812 -137.019531 L 70.542969 -89.402344 C 68.867188 -80.441406 68.5625 -72.445312 69.679688 -65.042969 C 74.542969 -32.839844 103.269531 -15.597656 133.992188 -20.238281 C 174.335938 -26.332031 205.558594 -67.773438 217.949219 -133.625 C 218.351562 -135.957031 218.445312 -137.863281 218.164062 -139.714844 C 216.488281 -150.820312 203.152344 -156.375 191.308594 -154.585938 C 181.6875 -153.132812 173.101562 -147.292969 171.449219 -135.6875 Z M 171.449219 -135.6875 "/></g></g></g></svg>