<svg xmlns="http://www.w3.org/2000/svg" xmlns:xlink="http://www.w3.org/1999/xlink" width="1920" zoomAndPan="magnify" viewBox="0 0 1440 809.999993" height="1080" preserveAspectRatio="xMidYMid meet" version="1.0"><defs><g/></defs><g fill="#fd6155" fill-opacity="0.302"><g transform="translate(79.685264, 634.01939)"><g><path d="M 35.800781 -211.828125 C 43.589844 -222.386719 52.550781 -229.191406 63.203125 -230.800781 C 83.328125 -233.839844 99.613281 -224.191406 115.964844 -212.132812 L 97.449219 -114.296875 C 84.492188 -119.90625 68.210938 -123.503906 51.046875 -120.910156 C 22.046875 -116.53125 -8.5625 -96.773438 -11.324219 -60.941406 C -11.746094 -55.734375 -11.328125 -50.953125 -10.65625 -46.515625 C -5.519531 -12.484375 28.429688 3.878906 64.238281 -1.53125 C 91.167969 -5.597656 114.621094 -20.640625 128.003906 -46.273438 C 145.582031 -34.097656 166.601562 -25.164062 194.417969 -29.367188 C 234.664062 -35.445312 266.375 -65.960938 276.085938 -121.910156 C 276.410156 -123.773438 276.4375 -125.59375 276.214844 -127.074219 C 274.78125 -136.542969 264.964844 -141.417969 255.792969 -140.03125 C 248.394531 -138.914062 241.328125 -133.609375 239.207031 -123.601562 C 231.28125 -87.902344 213.816406 -75.277344 192.511719 -72.058594 C 172.09375 -68.972656 158.15625 -81.09375 141.464844 -93.402344 L 158.238281 -186.738281 C 168.78125 -181.066406 181.394531 -175.707031 195.167969 -178.695312 C 224.761719 -183.167969 247.101562 -215.597656 242.050781 -249.035156 C 237.089844 -281.882812 209.785156 -298.339844 184.632812 -294.542969 C 162.4375 -291.1875 141.40625 -280.144531 128.027344 -254.511719 C 110.449219 -266.6875 89.335938 -276.210938 61.222656 -271.964844 C 35.773438 -268.121094 17.359375 -257.773438 2.78125 -234.082031 C 0.105469 -229.742188 -0.703125 -225.082031 -0.078125 -220.9375 C 1.53125 -210.285156 12.269531 -201.3125 22.625 -202.878906 C 27.359375 -203.59375 32.078125 -206.425781 35.800781 -211.828125 Z M 187.058594 -250.414062 C 194.753906 -251.578125 200.410156 -248.195312 201.796875 -239.019531 C 203.183594 -229.847656 196.882812 -223.449219 188.597656 -222.195312 C 180.015625 -220.898438 173.203125 -225.925781 168.9375 -230.125 C 172.476562 -242.765625 179.367188 -249.253906 187.058594 -250.414062 Z M 57.378906 -38.933594 C 45.539062 -37.144531 37.484375 -44.402344 36.007812 -54.167969 C 35.695312 -56.242188 35.382812 -58.3125 35.660156 -60.472656 C 37.261719 -71.914062 46.324219 -82.058594 59.9375 -84.117188 C 70.589844 -85.722656 80.226562 -82.035156 90.015625 -75.339844 C 83.71875 -52.902344 70.988281 -40.988281 57.378906 -38.933594 Z M 57.378906 -38.933594 "/></g></g></g><g fill="#fd6155" fill-opacity="0.302"><g transform="translate(321.738834, 597.458188)"><g><path d="M 115.832031 -80.753906 C 115.875 -80.457031 115.160156 -85.191406 113.128906 -90.636719 C 114.976562 -92.429688 116.691406 -95.109375 118.0625 -98.039062 C 121.976562 -106.199219 126.964844 -133.285156 125.179688 -145.121094 C 120.617188 -175.304688 92.722656 -191.671875 60.761719 -186.847656 C 32.945312 -182.644531 8.933594 -163.277344 3.441406 -135.511719 L -8.953125 -71.289062 C -10.496094 -63.488281 -10.5625 -55.910156 -9.582031 -49.402344 C -4.886719 -18.328125 24.5625 -3.710938 54.746094 -8.269531 C 77.828125 -11.753906 97.71875 -22.328125 106.929688 -45.511719 C 112.480469 -44.835938 118.828125 -44.886719 125.042969 -45.824219 C 159.960938 -51.097656 183.726562 -80.113281 189.09375 -112.703125 C 189.492188 -116.09375 189.636719 -119.140625 189.234375 -121.804688 C 187.582031 -132.753906 178.652344 -137.761719 170.070312 -136.464844 C 162.082031 -135.257812 154.507812 -129.273438 152.910156 -117.832031 C 149.167969 -98.5 137.480469 -83.722656 120.019531 -81.085938 C 118.835938 -80.90625 117.0625 -80.636719 115.832031 -80.753906 Z M 81.429688 -122.167969 C 80.941406 -119.371094 80.414062 -116.871094 80.472656 -114.457031 C 63.929688 -113.773438 51.441406 -98.269531 54.125 -80.511719 C 55.9375 -70.496094 61.773438 -65.929688 68.113281 -62.042969 C 65.828125 -51.105469 58.007812 -44.78125 48.835938 -43.394531 C 37.292969 -41.652344 33.261719 -48.304688 32.1875 -55.40625 C 31.339844 -61.03125 32.015625 -66.582031 32.75 -69.71875 L 44.6875 -132.964844 C 46.765625 -143.265625 56.273438 -150.453125 65.445312 -151.839844 C 74.617188 -153.222656 81.476562 -147.902344 82.503906 -141.097656 C 83.308594 -135.769531 82.5625 -128.695312 81.429688 -122.167969 Z M 81.429688 -122.167969 "/></g></g></g><g fill="#fd6155" fill-opacity="0.302"><g transform="translate(476.203325, 574.126959)"><g><path d="M 129.949219 -109.523438 C 120.625 -69.070312 94.066406 -50.527344 71.574219 -47.132812 C 51.15625 -44.046875 36.347656 -53.917969 34.070312 -69.007812 C 33.578125 -72.265625 33.632812 -75.90625 34.234375 -79.929688 L 44.554688 -133.851562 C 46.144531 -141.355469 51.390625 -146.6875 56.128906 -147.402344 C 62.046875 -148.296875 65.542969 -145.195312 66.300781 -140.164062 C 66.792969 -136.90625 66.144531 -133.179688 64.699219 -128.722656 C 63.667969 -125.539062 63.226562 -122.445312 63.671875 -119.488281 C 65.238281 -109.128906 76.210938 -102.613281 86.566406 -104.179688 C 95.148438 -105.476562 103.515625 -112.1875 106.789062 -126.605469 C 108.539062 -135.042969 108.652344 -142.324219 107.625 -149.128906 C 103.421875 -176.945312 77.925781 -189.4375 52.476562 -185.59375 C 29.097656 -182.0625 6.003906 -164.652344 0.0429688 -131.972656 L -9.316406 -79.707031 C -10.609375 -72.25 -10.722656 -64.96875 -9.738281 -58.457031 C -4.597656 -24.425781 28.703125 -4.335938 72.203125 -10.90625 C 116 -17.519531 155.449219 -48.90625 166.253906 -105.621094 C 166.828125 -107.828125 166.8125 -109.945312 166.542969 -111.71875 C 165.113281 -121.1875 155.046875 -125.722656 145.871094 -124.335938 C 138.472656 -123.21875 131.613281 -118.550781 129.949219 -109.523438 Z M 129.949219 -109.523438 "/></g></g></g><g fill="#fd6155" fill-opacity="0.302"><g transform="translate(608.474655, 554.147916)"><g><path d="M 170.433594 -128.046875 C 162.148438 -126.792969 153.734375 -120.378906 151.882812 -108.597656 C 145.839844 -70.457031 129.027344 -55.507812 115.710938 -53.496094 C 110.679688 -52.734375 107.320312 -54.953125 106.605469 -59.6875 C 106.246094 -62.054688 106.390625 -65.101562 106.789062 -68.492188 L 125.449219 -169.375 C 126.097656 -173.105469 126.195312 -176.449219 125.75 -179.410156 C 123.78125 -192.429688 112.101562 -197.628906 101.152344 -195.972656 C 92.867188 -194.722656 84.867188 -189.578125 81.25 -181.464844 C 74.453125 -184.375 62.242188 -187.070312 47.152344 -184.789062 C 27.621094 -181.839844 7.921875 -167.96875 3.375 -143.976562 L -12.417969 -60.171875 C -13.390625 -54.578125 -13.769531 -49.070312 -12.964844 -43.746094 C -9.253906 -19.183594 13.613281 -2.054688 39.652344 -5.988281 C 53.5625 -8.089844 66.828125 -16.449219 76.300781 -27.871094 C 87.828125 -15.6875 109.195312 -16.492188 118.070312 -17.835938 C 142.632812 -21.542969 173.601562 -38.933594 185.300781 -89.734375 C 187.699219 -101.902344 189.839844 -109.789062 189.035156 -115.117188 C 187.515625 -125.179688 179.015625 -129.34375 170.433594 -128.046875 Z M 72.332031 -116.253906 L 64.789062 -70.019531 C 61.480469 -49.84375 50.90625 -43.707031 44.691406 -42.769531 C 38.179688 -41.785156 34.300781 -45.4375 33.273438 -52.242188 C 32.691406 -56.089844 33.042969 -59.773438 33.527344 -62.570312 L 43.484375 -124.914062 C 46.378906 -143.8125 54.308594 -147.429688 59.042969 -148.148438 C 64.664062 -148.996094 71.726562 -144.3125 73.246094 -134.25 C 73.917969 -129.8125 73.582031 -124.011719 72.332031 -116.253906 Z M 72.332031 -116.253906 "/></g></g></g><g fill="#fd6155" fill-opacity="0.302"><g transform="translate(763.826907, 530.682594)"><g><path d="M 173.1875 -127.855469 C 165.195312 -126.648438 157.535156 -121.253906 156.304688 -111.382812 C 148.351562 -73.863281 134.652344 -56.355469 121.335938 -54.34375 C 115.417969 -53.449219 111.535156 -57.101562 110.820312 -61.835938 C 110.550781 -63.613281 110.578125 -65.433594 111.226562 -69.164062 L 145.269531 -252.578125 C 145.914062 -256.308594 146.636719 -261.5625 146.144531 -264.816406 C 144.222656 -277.542969 132.835938 -282.78125 122.480469 -281.21875 C 113.304688 -279.832031 105.75 -271.730469 102.75 -255.539062 L 87.351562 -175.125 C 77 -183.546875 63.128906 -187.203125 49.222656 -185.101562 C 29.988281 -182.199219 10.882812 -168.414062 6.289062 -144.71875 L -9.753906 -60.574219 C -10.976562 -54.640625 -10.972656 -48.585938 -10.167969 -43.257812 C -6.234375 -17.21875 17.460938 -2.636719 42.910156 -6.480469 C 56.816406 -8.582031 71.488281 -15.640625 81.582031 -28.96875 C 92.277344 -20.292969 107.417969 -16.226562 122.214844 -18.460938 C 151.511719 -22.886719 182.070312 -48.992188 193.136719 -109.984375 C 193.417969 -112.148438 193.695312 -114.308594 193.429688 -116.082031 C 192.042969 -125.257812 182.359375 -129.242188 173.1875 -127.855469 Z M 42.535156 -53.035156 C 36.6875 -53.667969 34.539062 -57.882812 33.824219 -62.617188 C 33.242188 -66.464844 33.59375 -70.148438 34.078125 -72.945312 L 43.484375 -124.914062 C 46.765625 -143.265625 54.308594 -147.429688 59.042969 -148.148438 C 64.664062 -148.996094 71.726562 -144.3125 73.246094 -134.25 C 73.917969 -129.8125 73.878906 -124.054688 72.332031 -116.253906 L 65.339844 -80.390625 C 59.769531 -57.152344 48.335938 -52.703125 42.535156 -53.035156 Z M 42.535156 -53.035156 "/></g></g></g><g fill="#fd6155" fill-opacity="0.302"><g transform="translate(922.730011, 506.68093)"><g><path d="M 115.832031 -80.753906 C 115.875 -80.457031 115.160156 -85.191406 113.128906 -90.636719 C 114.976562 -92.429688 116.691406 -95.109375 118.0625 -98.039062 C 121.976562 -106.199219 126.964844 -133.285156 125.179688 -145.121094 C 120.617188 -175.304688 92.722656 -191.671875 60.761719 -186.847656 C 32.945312 -182.644531 8.933594 -163.277344 3.441406 -135.511719 L -8.953125 -71.289062 C -10.496094 -63.488281 -10.5625 -55.910156 -9.582031 -49.402344 C -4.886719 -18.328125 24.5625 -3.710938 54.746094 -8.269531 C 77.828125 -11.753906 97.71875 -22.328125 106.929688 -45.511719 C 112.480469 -44.835938 118.828125 -44.886719 125.042969 -45.824219 C 159.960938 -51.097656 183.726562 -80.113281 189.09375 -112.703125 C 189.492188 -116.09375 189.636719 -119.140625 189.234375 -121.804688 C 187.582031 -132.753906 178.652344 -137.761719 170.070312 -136.464844 C 162.082031 -135.257812 154.507812 -129.273438 152.910156 -117.832031 C 149.167969 -98.5 137.480469 -83.722656 120.019531 -81.085938 C 118.835938 -80.90625 117.0625 -80.636719 115.832031 -80.753906 Z M 81.429688 -122.167969 C 80.941406 -119.371094 80.414062 -116.871094 80.472656 -114.457031 C 63.929688 -113.773438 51.441406 -98.269531 54.125 -80.511719 C 55.9375 -70.496094 61.773438 -65.929688 68.113281 -62.042969 C 65.828125 -51.105469 58.007812 -44.78125 48.835938 -43.394531 C 37.292969 -41.652344 33.261719 -48.304688 32.1875 -55.40625 C 31.339844 -61.03125 32.015625 -66.582031 32.75 -69.71875 L 44.6875 -132.964844 C 46.765625 -143.265625 56.273438 -150.453125 65.445312 -151.839844 C 74.617188 -153.222656 81.476562 -147.902344 82.503906 -141.097656 C 83.308594 -135.769531 82.5625 -128.695312 81.429688 -122.167969 Z M 81.429688 -122.167969 "/></g></g></g><g fill="#fd6155" fill-opacity="0.302"><g transform="translate(1077.19447, 483.349706)"><g><path d="M 137.070312 -108.476562 C 130.203125 -77.78125 118.375 -53.898438 105.945312 -52.019531 C 101.804688 -51.394531 99.152344 -54.929688 98.527344 -59.070312 C 98.257812 -60.847656 98.195312 -63.257812 98.726562 -65.761719 L 108.855469 -116.929688 C 109.738281 -123.117188 110.117188 -128.621094 109.355469 -133.652344 C 105.109375 -161.765625 67.8125 -168.238281 50.480469 -170.765625 C 51.011719 -173.265625 50.902344 -175.972656 50.546875 -178.339844 C 48.488281 -191.953125 34.613281 -201.660156 21.296875 -199.652344 C 3.839844 -197.011719 -4.195312 -180.0625 -1.648438 -163.195312 C -0.527344 -155.796875 3.296875 -148.503906 8.925781 -143.300781 L -3.871094 -81.742188 C -4.105469 -79.285156 -4.042969 -76.871094 -3.777344 -75.097656 C -2.300781 -65.332031 6.152344 -61.464844 14.4375 -62.714844 C 22.722656 -63.964844 30.589844 -69.996094 32.710938 -80.003906 L 42.578125 -126.894531 C 51.265625 -125.484375 62.527344 -125.066406 64.046875 -115.003906 C 64.269531 -113.523438 64.242188 -111.703125 63.964844 -109.542969 L 56.398438 -71.472656 C 55.058594 -64.308594 54.8125 -57.917969 55.707031 -52 C 59.59375 -26.253906 82.5625 -12.46875 107.121094 -16.179688 C 139.378906 -21.050781 164.339844 -54.183594 174.242188 -106.828125 C 174.566406 -108.695312 174.640625 -110.21875 174.417969 -111.699219 C 173.074219 -120.574219 162.417969 -125.019531 152.945312 -123.589844 C 145.253906 -122.425781 138.390625 -117.757812 137.070312 -108.476562 Z M 137.070312 -108.476562 "/></g></g></g><g fill="#fd6155" fill-opacity="0.302"><g transform="translate(1217.159397, 462.208576)"><g><path d="M 170.433594 -128.046875 C 162.148438 -126.792969 153.734375 -120.378906 151.882812 -108.597656 C 145.839844 -70.457031 129.027344 -55.507812 115.710938 -53.496094 C 110.679688 -52.734375 107.320312 -54.953125 106.605469 -59.6875 C 106.246094 -62.054688 106.390625 -65.101562 106.789062 -68.492188 L 125.449219 -169.375 C 126.097656 -173.105469 126.195312 -176.449219 125.75 -179.410156 C 123.78125 -192.429688 112.101562 -197.628906 101.152344 -195.972656 C 92.867188 -194.722656 84.867188 -189.578125 81.25 -181.464844 C 74.453125 -184.375 62.242188 -187.070312 47.152344 -184.789062 C 27.621094 -181.839844 7.921875 -167.96875 3.375 -143.976562 L -12.417969 -60.171875 C -13.390625 -54.578125 -13.769531 -49.070312 -12.964844 -43.746094 C -9.253906 -19.183594 13.613281 -2.054688 39.652344 -5.988281 C 53.5625 -8.089844 66.828125 -16.449219 76.300781 -27.871094 C 87.828125 -15.6875 109.195312 -16.492188 118.070312 -17.835938 C 142.632812 -21.542969 173.601562 -38.933594 185.300781 -89.734375 C 187.699219 -101.902344 189.839844 -109.789062 189.035156 -115.117188 C 187.515625 -125.179688 179.015625 -129.34375 170.433594 -128.046875 Z M 72.332031 -116.253906 L 64.789062 -70.019531 C 61.480469 -49.84375 50.90625 -43.707031 44.691406 -42.769531 C 38.179688 -41.785156 34.300781 -45.4375 33.273438 -52.242188 C 32.691406 -56.089844 33.042969 -59.773438 33.527344 -62.570312 L 43.484375 -124.914062 C 46.378906 -143.8125 54.308594 -147.429688 59.042969 -148.148438 C 64.664062 -148.996094 71.726562 -144.3125 73.246094 -134.25 C 73.917969 -129.8125 73.582031 -124.011719 72.332031 -116.253906 Z M 72.332031 -116.253906 "/></g></g></g><g fill="#fd6155" fill-opacity="0.502"><g transform="translate(66.054343, 618.109956)"><g><path d="M 35.800781 -211.828125 C 43.589844 -222.386719 52.550781 -229.191406 63.203125 -230.800781 C 83.328125 -233.839844 99.613281 -224.191406 115.964844 -212.132812 L 97.449219 -114.296875 C 84.492188 -119.90625 68.210938 -123.503906 51.046875 -120.910156 C 22.046875 -116.53125 -8.5625 -96.773438 -11.324219 -60.941406 C -11.746094 -55.734375 -11.328125 -50.953125 -10.65625 -46.515625 C -5.519531 -12.484375 28.429688 3.878906 64.238281 -1.53125 C 91.167969 -5.597656 114.621094 -20.640625 128.003906 -46.273438 C 145.582031 -34.097656 166.601562 -25.164062 194.417969 -29.367188 C 234.664062 -35.445312 266.375 -65.960938 276.085938 -121.910156 C 276.410156 -123.773438 276.4375 -125.59375 276.214844 -127.074219 C 274.78125 -136.542969 264.964844 -141.417969 255.792969 -140.03125 C 248.394531 -138.914062 241.328125 -133.609375 239.207031 -123.601562 C 231.28125 -87.902344 213.816406 -75.277344 192.511719 -72.058594 C 172.09375 -68.972656 158.15625 -81.09375 141.464844 -93.402344 L 158.238281 -186.738281 C 168.78125 -181.066406 181.394531 -175.707031 195.167969 -178.695312 C 224.761719 -183.167969 247.101562 -215.597656 242.050781 -249.035156 C 237.089844 -281.882812 209.785156 -298.339844 184.632812 -294.542969 C 162.4375 -291.1875 141.40625 -280.144531 128.027344 -254.511719 C 110.449219 -266.6875 89.335938 -276.210938 61.222656 -271.964844 C 35.773438 -268.121094 17.359375 -257.773438 2.78125 -234.082031 C 0.105469 -229.742188 -0.703125 -225.082031 -0.078125 -220.9375 C 1.53125 -210.285156 12.269531 -201.3125 22.625 -202.878906 C 27.359375 -203.59375 32.078125 -206.425781 35.800781 -211.828125 Z M 187.058594 -250.414062 C 194.753906 -251.578125 200.410156 -248.195312 201.796875 -239.019531 C 203.183594 -229.847656 196.882812 -223.449219 188.597656 -222.195312 C 180.015625 -220.898438 173.203125 -225.925781 168.9375 -230.125 C 172.476562 -242.765625 179.367188 -249.253906 187.058594 -250.414062 Z M 57.378906 -38.933594 C 45.539062 -37.144531 37.484375 -44.402344 36.007812 -54.167969 C 35.695312 -56.242188 35.382812 -58.3125 35.660156 -60.472656 C 37.261719 -71.914062 46.324219 -82.058594 59.9375 -84.117188 C 70.589844 -85.722656 80.226562 -82.035156 90.015625 -75.339844 C 83.71875 -52.902344 70.988281 -40.988281 57.378906 -38.933594 Z M 57.378906 -38.933594 "/></g></g></g><g fill="#fd6155" fill-opacity="0.502"><g transform="translate(308.107912, 581.548755)"><g><path d="M 115.832031 -80.753906 C 115.875 -80.457031 115.160156 -85.191406 113.128906 -90.636719 C 114.976562 -92.429688 116.691406 -95.109375 118.0625 -98.039062 C 121.976562 -106.199219 126.964844 -133.285156 125.179688 -145.121094 C 120.617188 -175.304688 92.722656 -191.671875 60.761719 -186.847656 C 32.945312 -182.644531 8.933594 -163.277344 3.441406 -135.511719 L -8.953125 -71.289062 C -10.496094 -63.488281 -10.5625 -55.910156 -9.582031 -49.402344 C -4.886719 -18.328125 24.5625 -3.710938 54.746094 -8.269531 C 77.828125 -11.753906 97.71875 -22.328125 106.929688 -45.511719 C 112.480469 -44.835938 118.828125 -44.886719 125.042969 -45.824219 C 159.960938 -51.097656 183.726562 -80.113281 189.09375 -112.703125 C 189.492188 -116.09375 189.636719 -119.140625 189.234375 -121.804688 C 187.582031 -132.753906 178.652344 -137.761719 170.070312 -136.464844 C 162.082031 -135.257812 154.507812 -129.273438 152.910156 -117.832031 C 149.167969 -98.5 137.480469 -83.722656 120.019531 -81.085938 C 118.835938 -80.90625 117.0625 -80.636719 115.832031 -80.753906 Z M 81.429688 -122.167969 C 80.941406 -119.371094 80.414062 -116.871094 80.472656 -114.457031 C 63.929688 -113.773438 51.441406 -98.269531 54.125 -80.511719 C 55.9375 -70.496094 61.773438 -65.929688 68.113281 -62.042969 C 65.828125 -51.105469 58.007812 -44.78125 48.835938 -43.394531 C 37.292969 -41.652344 33.261719 -48.304688 32.1875 -55.40625 C 31.339844 -61.03125 32.015625 -66.582031 32.75 -69.71875 L 44.6875 -132.964844 C 46.765625 -143.265625 56.273438 -150.453125 65.445312 -151.839844 C 74.617188 -153.222656 81.476562 -147.902344 82.503906 -141.097656 C 83.308594 -135.769531 82.5625 -128.695312 81.429688 -122.167969 Z M 81.429688 -122.167969 "/></g></g></g><g fill="#fd6155" fill-opacity="0.502"><g transform="translate(462.572403, 558.217525)"><g><path d="M 129.949219 -109.523438 C 120.625 -69.070312 94.066406 -50.527344 71.574219 -47.132812 C 51.15625 -44.046875 36.347656 -53.917969 34.070312 -69.007812 C 33.578125 -72.265625 33.632812 -75.90625 34.234375 -79.929688 L 44.554688 -133.851562 C 46.144531 -141.355469 51.390625 -146.6875 56.128906 -147.402344 C 62.046875 -148.296875 65.542969 -145.195312 66.300781 -140.164062 C 66.792969 -136.90625 66.144531 -133.179688 64.699219 -128.722656 C 63.667969 -125.539062 63.226562 -122.445312 63.671875 -119.488281 C 65.238281 -109.128906 76.210938 -102.613281 86.566406 -104.179688 C 95.148438 -105.476562 103.515625 -112.1875 106.789062 -126.605469 C 108.539062 -135.042969 108.652344 -142.324219 107.625 -149.128906 C 103.421875 -176.945312 77.925781 -189.4375 52.476562 -185.59375 C 29.097656 -182.0625 6.003906 -164.652344 0.0429688 -131.972656 L -9.316406 -79.707031 C -10.609375 -72.25 -10.722656 -64.96875 -9.738281 -58.457031 C -4.597656 -24.425781 28.703125 -4.335938 72.203125 -10.90625 C 116 -17.519531 155.449219 -48.90625 166.253906 -105.621094 C 166.828125 -107.828125 166.8125 -109.945312 166.542969 -111.71875 C 165.113281 -121.1875 155.046875 -125.722656 145.871094 -124.335938 C 138.472656 -123.21875 131.613281 -118.550781 129.949219 -109.523438 Z M 129.949219 -109.523438 "/></g></g></g><g fill="#fd6155" fill-opacity="0.502"><g transform="translate(594.843733, 538.238482)"><g><path d="M 170.433594 -128.046875 C 162.148438 -126.792969 153.734375 -120.378906 151.882812 -108.597656 C 145.839844 -70.457031 129.027344 -55.507812 115.710938 -53.496094 C 110.679688 -52.734375 107.320312 -54.953125 106.605469 -59.6875 C 106.246094 -62.054688 106.390625 -65.101562 106.789062 -68.492188 L 125.449219 -169.375 C 126.097656 -173.105469 126.195312 -176.449219 125.75 -179.410156 C 123.78125 -192.429688 112.101562 -197.628906 101.152344 -195.972656 C 92.867188 -194.722656 84.867188 -189.578125 81.25 -181.464844 C 74.453125 -184.375 62.242188 -187.070312 47.152344 -184.789062 C 27.621094 -181.839844 7.921875 -167.96875 3.375 -143.976562 L -12.417969 -60.171875 C -13.390625 -54.578125 -13.769531 -49.070312 -12.964844 -43.746094 C -9.253906 -19.183594 13.613281 -2.054688 39.652344 -5.988281 C 53.5625 -8.089844 66.828125 -16.449219 76.300781 -27.871094 C 87.828125 -15.6875 109.195312 -16.492188 118.070312 -17.835938 C 142.632812 -21.542969 173.601562 -38.933594 185.300781 -89.734375 C 187.699219 -101.902344 189.839844 -109.789062 189.035156 -115.117188 C 187.515625 -125.179688 179.015625 -129.34375 170.433594 -128.046875 Z M 72.332031 -116.253906 L 64.789062 -70.019531 C 61.480469 -49.84375 50.90625 -43.707031 44.691406 -42.769531 C 38.179688 -41.785156 34.300781 -45.4375 33.273438 -52.242188 C 32.691406 -56.089844 33.042969 -59.773438 33.527344 -62.570312 L 43.484375 -124.914062 C 46.378906 -143.8125 54.308594 -147.429688 59.042969 -148.148438 C 64.664062 -148.996094 71.726562 -144.3125 73.246094 -134.25 C 73.917969 -129.8125 73.582031 -124.011719 72.332031 -116.253906 Z M 72.332031 -116.253906 "/></g></g></g><g fill="#fd6155" fill-opacity="0.502"><g transform="translate(750.195985, 514.77316)"><g><path d="M 173.1875 -127.855469 C 165.195312 -126.648438 157.535156 -121.253906 156.304688 -111.382812 C 148.351562 -73.863281 134.652344 -56.355469 121.335938 -54.34375 C 115.417969 -53.449219 111.535156 -57.101562 110.820312 -61.835938 C 110.550781 -63.613281 110.578125 -65.433594 111.226562 -69.164062 L 145.269531 -252.578125 C 145.914062 -256.308594 146.636719 -261.5625 146.144531 -264.816406 C 144.222656 -277.542969 132.835938 -282.78125 122.480469 -281.21875 C 113.304688 -279.832031 105.75 -271.730469 102.75 -255.539062 L 87.351562 -175.125 C 77 -183.546875 63.128906 -187.203125 49.222656 -185.101562 C 29.988281 -182.199219 10.882812 -168.414062 6.289062 -144.71875 L -9.753906 -60.574219 C -10.976562 -54.640625 -10.972656 -48.585938 -10.167969 -43.257812 C -6.234375 -17.21875 17.460938 -2.636719 42.910156 -6.480469 C 56.816406 -8.582031 71.488281 -15.640625 81.582031 -28.96875 C 92.277344 -20.292969 107.417969 -16.226562 122.214844 -18.460938 C 151.511719 -22.886719 182.070312 -48.992188 193.136719 -109.984375 C 193.417969 -112.148438 193.695312 -114.308594 193.429688 -116.082031 C 192.042969 -125.257812 182.359375 -129.242188 173.1875 -127.855469 Z M 42.535156 -53.035156 C 36.6875 -53.667969 34.539062 -57.882812 33.824219 -62.617188 C 33.242188 -66.464844 33.59375 -70.148438 34.078125 -72.945312 L 43.484375 -124.914062 C 46.765625 -143.265625 54.308594 -147.429688 59.042969 -148.148438 C 64.664062 -148.996094 71.726562 -144.3125 73.246094 -134.25 C 73.917969 -129.8125 73.878906 -124.054688 72.332031 -116.253906 L 65.339844 -80.390625 C 59.769531 -57.152344 48.335938 -52.703125 42.535156 -53.035156 Z M 42.535156 -53.035156 "/></g></g></g><g fill="#fd6155" fill-opacity="0.502"><g transform="translate(909.099089, 490.771496)"><g><path d="M 115.832031 -80.753906 C 115.875 -80.457031 115.160156 -85.191406 113.128906 -90.636719 C 114.976562 -92.429688 116.691406 -95.109375 118.0625 -98.039062 C 121.976562 -106.199219 126.964844 -133.285156 125.179688 -145.121094 C 120.617188 -175.304688 92.722656 -191.671875 60.761719 -186.847656 C 32.945312 -182.644531 8.933594 -163.277344 3.441406 -135.511719 L -8.953125 -71.289062 C -10.496094 -63.488281 -10.5625 -55.910156 -9.582031 -49.402344 C -4.886719 -18.328125 24.5625 -3.710938 54.746094 -8.269531 C 77.828125 -11.753906 97.71875 -22.328125 106.929688 -45.511719 C 112.480469 -44.835938 118.828125 -44.886719 125.042969 -45.824219 C 159.960938 -51.097656 183.726562 -80.113281 189.09375 -112.703125 C 189.492188 -116.09375 189.636719 -119.140625 189.234375 -121.804688 C 187.582031 -132.753906 178.652344 -137.761719 170.070312 -136.464844 C 162.082031 -135.257812 154.507812 -129.273438 152.910156 -117.832031 C 149.167969 -98.5 137.480469 -83.722656 120.019531 -81.085938 C 118.835938 -80.90625 117.0625 -80.636719 115.832031 -80.753906 Z M 81.429688 -122.167969 C 80.941406 -119.371094 80.414062 -116.871094 80.472656 -114.457031 C 63.929688 -113.773438 51.441406 -98.269531 54.125 -80.511719 C 55.9375 -70.496094 61.773438 -65.929688 68.113281 -62.042969 C 65.828125 -51.105469 58.007812 -44.78125 48.835938 -43.394531 C 37.292969 -41.652344 33.261719 -48.304688 32.1875 -55.40625 C 31.339844 -61.03125 32.015625 -66.582031 32.75 -69.71875 L 44.6875 -132.964844 C 46.765625 -143.265625 56.273438 -150.453125 65.445312 -151.839844 C 74.617188 -153.222656 81.476562 -147.902344 82.503906 -141.097656 C 83.308594 -135.769531 82.5625 -128.695312 81.429688 -122.167969 Z M 81.429688 -122.167969 "/></g></g></g><g fill="#fd6155" fill-opacity="0.502"><g transform="translate(1063.563548, 467.440272)"><g><path d="M 137.070312 -108.476562 C 130.203125 -77.78125 118.375 -53.898438 105.945312 -52.019531 C 101.804688 -51.394531 99.152344 -54.929688 98.527344 -59.070312 C 98.257812 -60.847656 98.195312 -63.257812 98.726562 -65.761719 L 108.855469 -116.929688 C 109.738281 -123.117188 110.117188 -128.621094 109.355469 -133.652344 C 105.109375 -161.765625 67.8125 -168.238281 50.480469 -170.765625 C 51.011719 -173.265625 50.902344 -175.972656 50.546875 -178.339844 C 48.488281 -191.953125 34.613281 -201.660156 21.296875 -199.652344 C 3.839844 -197.011719 -4.195312 -180.0625 -1.648438 -163.195312 C -0.527344 -155.796875 3.296875 -148.503906 8.925781 -143.300781 L -3.871094 -81.742188 C -4.105469 -79.285156 -4.042969 -76.871094 -3.777344 -75.097656 C -2.300781 -65.332031 6.152344 -61.464844 14.4375 -62.714844 C 22.722656 -63.964844 30.589844 -69.996094 32.710938 -80.003906 L 42.578125 -126.894531 C 51.265625 -125.484375 62.527344 -125.066406 64.046875 -115.003906 C 64.269531 -113.523438 64.242188 -111.703125 63.964844 -109.542969 L 56.398438 -71.472656 C 55.058594 -64.308594 54.8125 -57.917969 55.707031 -52 C 59.59375 -26.253906 82.5625 -12.46875 107.121094 -16.179688 C 139.378906 -21.050781 164.339844 -54.183594 174.242188 -106.828125 C 174.566406 -108.695312 174.640625 -110.21875 174.417969 -111.699219 C 173.074219 -120.574219 162.417969 -125.019531 152.945312 -123.589844 C 145.253906 -122.425781 138.390625 -117.757812 137.070312 -108.476562 Z M 137.070312 -108.476562 "/></g></g></g><g fill="#fd6155" fill-opacity="0.502"><g transform="translate(1203.528475, 446.299142)"><g><path d="M 170.433594 -128.046875 C 162.148438 -126.792969 153.734375 -120.378906 151.882812 -108.597656 C 145.839844 -70.457031 129.027344 -55.507812 115.710938 -53.496094 C 110.679688 -52.734375 107.320312 -54.953125 106.605469 -59.6875 C 106.246094 -62.054688 106.390625 -65.101562 106.789062 -68.492188 L 125.449219 -169.375 C 126.097656 -173.105469 126.195312 -176.449219 125.75 -179.410156 C 123.78125 -192.429688 112.101562 -197.628906 101.152344 -195.972656 C 92.867188 -194.722656 84.867188 -189.578125 81.25 -181.464844 C 74.453125 -184.375 62.242188 -187.070312 47.152344 -184.789062 C 27.621094 -181.839844 7.921875 -167.96875 3.375 -143.976562 L -12.417969 -60.171875 C -13.390625 -54.578125 -13.769531 -49.070312 -12.964844 -43.746094 C -9.253906 -19.183594 13.613281 -2.054688 39.652344 -5.988281 C 53.5625 -8.089844 66.828125 -16.449219 76.300781 -27.871094 C 87.828125 -15.6875 109.195312 -16.492188 118.070312 -17.835938 C 142.632812 -21.542969 173.601562 -38.933594 185.300781 -89.734375 C 187.699219 -101.902344 189.839844 -109.789062 189.035156 -115.117188 C 187.515625 -125.179688 179.015625 -129.34375 170.433594 -128.046875 Z M 72.332031 -116.253906 L 64.789062 -70.019531 C 61.480469 -49.84375 50.90625 -43.707031 44.691406 -42.769531 C 38.179688 -41.785156 34.300781 -45.4375 33.273438 -52.242188 C 32.691406 -56.089844 33.042969 -59.773438 33.527344 -62.570312 L 43.484375 -124.914062 C 46.378906 -143.8125 54.308594 -147.429688 59.042969 -148.148438 C 64.664062 -148.996094 71.726562 -144.3125 73.246094 -134.25 C 73.917969 -129.8125 73.582031 -124.011719 72.332031 -116.253906 Z M 72.332031 -116.253906 "/></g></g></g><g fill="#ffe97d" fill-opacity="1"><g transform="translate(52.423416, 602.200496)"><g><path d="M 35.800781 -211.828125 C 43.589844 -222.386719 52.550781 -229.191406 63.203125 -230.800781 C 83.328125 -233.839844 99.613281 -224.191406 115.964844 -212.132812 L 97.449219 -114.296875 C 84.492188 -119.90625 68.210938 -123.503906 51.046875 -120.910156 C 22.046875 -116.53125 -8.5625 -96.773438 -11.324219 -60.941406 C -11.746094 -55.734375 -11.328125 -50.953125 -10.65625 -46.515625 C -5.519531 -12.484375 28.429688 3.878906 64.238281 -1.53125 C 91.167969 -5.597656 114.621094 -20.640625 128.003906 -46.273438 C 145.582031 -34.097656 166.601562 -25.164062 194.417969 -29.367188 C 234.664062 -35.445312 266.375 -65.960938 276.085938 -121.910156 C 276.410156 -123.773438 276.4375 -125.59375 276.214844 -127.074219 C 274.78125 -136.542969 264.964844 -141.417969 255.792969 -140.03125 C 248.394531 -138.914062 241.328125 -133.609375 239.207031 -123.601562 C 231.28125 -87.902344 213.816406 -75.277344 192.511719 -72.058594 C 172.09375 -68.972656 158.15625 -81.09375 141.464844 -93.402344 L 158.238281 -186.738281 C 168.78125 -181.066406 181.394531 -175.707031 195.167969 -178.695312 C 224.761719 -183.167969 247.101562 -215.597656 242.050781 -249.035156 C 237.089844 -281.882812 209.785156 -298.339844 184.632812 -294.542969 C 162.4375 -291.1875 141.40625 -280.144531 128.027344 -254.511719 C 110.449219 -266.6875 89.335938 -276.210938 61.222656 -271.964844 C 35.773438 -268.121094 17.359375 -257.773438 2.78125 -234.082031 C 0.105469 -229.742188 -0.703125 -225.082031 -0.078125 -220.9375 C 1.53125 -210.285156 12.269531 -201.3125 22.625 -202.878906 C 27.359375 -203.59375 32.078125 -206.425781 35.800781 -211.828125 Z M 187.058594 -250.414062 C 194.753906 -251.578125 200.410156 -248.195312 201.796875 -239.019531 C 203.183594 -229.847656 196.882812 -223.449219 188.597656 -222.195312 C 180.015625 -220.898438 173.203125 -225.925781 168.9375 -230.125 C 172.476562 -242.765625 179.367188 -249.253906 187.058594 -250.414062 Z M 57.378906 -38.933594 C 45.539062 -37.144531 37.484375 -44.402344 36.007812 -54.167969 C 35.695312 -56.242188 35.382812 -58.3125 35.660156 -60.472656 C 37.261719 -71.914062 46.324219 -82.058594 59.9375 -84.117188 C 70.589844 -85.722656 80.226562 -82.035156 90.015625 -75.339844 C 83.71875 -52.902344 70.988281 -40.988281 57.378906 -38.933594 Z M 57.378906 -38.933594 "/></g></g></g><g fill="#ffe97d" fill-opacity="1"><g transform="translate(294.476986, 565.639295)"><g><path d="M 115.832031 -80.753906 C 115.875 -80.457031 115.160156 -85.191406 113.128906 -90.636719 C 114.976562 -92.429688 116.691406 -95.109375 118.0625 -98.039062 C 121.976562 -106.199219 126.964844 -133.285156 125.179688 -145.121094 C 120.617188 -175.304688 92.722656 -191.671875 60.761719 -186.847656 C 32.945312 -182.644531 8.933594 -163.277344 3.441406 -135.511719 L -8.953125 -71.289062 C -10.496094 -63.488281 -10.5625 -55.910156 -9.582031 -49.402344 C -4.886719 -18.328125 24.5625 -3.710938 54.746094 -8.269531 C 77.828125 -11.753906 97.71875 -22.328125 106.929688 -45.511719 C 112.480469 -44.835938 118.828125 -44.886719 125.042969 -45.824219 C 159.960938 -51.097656 183.726562 -80.113281 189.09375 -112.703125 C 189.492188 -116.09375 189.636719 -119.140625 189.234375 -121.804688 C 187.582031 -132.753906 178.652344 -137.761719 170.070312 -136.464844 C 162.082031 -135.257812 154.507812 -129.273438 152.910156 -117.832031 C 149.167969 -98.5 137.480469 -83.722656 120.019531 -81.085938 C 118.835938 -80.90625 117.0625 -80.636719 115.832031 -80.753906 Z M 81.429688 -122.167969 C 80.941406 -119.371094 80.414062 -116.871094 80.472656 -114.457031 C 63.929688 -113.773438 51.441406 -98.269531 54.125 -80.511719 C 55.9375 -70.496094 61.773438 -65.929688 68.113281 -62.042969 C 65.828125 -51.105469 58.007812 -44.78125 48.835938 -43.394531 C 37.292969 -41.652344 33.261719 -48.304688 32.1875 -55.40625 C 31.339844 -61.03125 32.015625 -66.582031 32.75 -69.71875 L 44.6875 -132.964844 C 46.765625 -143.265625 56.273438 -150.453125 65.445312 -151.839844 C 74.617188 -153.222656 81.476562 -147.902344 82.503906 -141.097656 C 83.308594 -135.769531 82.5625 -128.695312 81.429688 -122.167969 Z M 81.429688 -122.167969 "/></g></g></g><g fill="#ffe97d" fill-opacity="1"><g transform="translate(448.941476, 542.308065)"><g><path d="M 129.949219 -109.523438 C 120.625 -69.070312 94.066406 -50.527344 71.574219 -47.132812 C 51.15625 -44.046875 36.347656 -53.917969 34.070312 -69.007812 C 33.578125 -72.265625 33.632812 -75.90625 34.234375 -79.929688 L 44.554688 -133.851562 C 46.144531 -141.355469 51.390625 -146.6875 56.128906 -147.402344 C 62.046875 -148.296875 65.542969 -145.195312 66.300781 -140.164062 C 66.792969 -136.90625 66.144531 -133.179688 64.699219 -128.722656 C 63.667969 -125.539062 63.226562 -122.445312 63.671875 -119.488281 C 65.238281 -109.128906 76.210938 -102.613281 86.566406 -104.179688 C 95.148438 -105.476562 103.515625 -112.1875 106.789062 -126.605469 C 108.539062 -135.042969 108.652344 -142.324219 107.625 -149.128906 C 103.421875 -176.945312 77.925781 -189.4375 52.476562 -185.59375 C 29.097656 -182.0625 6.003906 -164.652344 0.0429688 -131.972656 L -9.316406 -79.707031 C -10.609375 -72.25 -10.722656 -64.96875 -9.738281 -58.457031 C -4.597656 -24.425781 28.703125 -4.335938 72.203125 -10.90625 C 116 -17.519531 155.449219 -48.90625 166.253906 -105.621094 C 166.828125 -107.828125 166.8125 -109.945312 166.542969 -111.71875 C 165.113281 -121.1875 155.046875 -125.722656 145.871094 -124.335938 C 138.472656 -123.21875 131.613281 -118.550781 129.949219 -109.523438 Z M 129.949219 -109.523438 "/></g></g></g><g fill="#ffe97d" fill-opacity="1"><g transform="translate(581.212807, 522.329022)"><g><path d="M 170.433594 -128.046875 C 162.148438 -126.792969 153.734375 -120.378906 151.882812 -108.597656 C 145.839844 -70.457031 129.027344 -55.507812 115.710938 -53.496094 C 110.679688 -52.734375 107.320312 -54.953125 106.605469 -59.6875 C 106.246094 -62.054688 106.390625 -65.101562 106.789062 -68.492188 L 125.449219 -169.375 C 126.097656 -173.105469 126.195312 -176.449219 125.75 -179.410156 C 123.78125 -192.429688 112.101562 -197.628906 101.152344 -195.972656 C 92.867188 -194.722656 84.867188 -189.578125 81.25 -181.464844 C 74.453125 -184.375 62.242188 -187.070312 47.152344 -184.789062 C 27.621094 -181.839844 7.921875 -167.96875 3.375 -143.976562 L -12.417969 -60.171875 C -13.390625 -54.578125 -13.769531 -49.070312 -12.964844 -43.746094 C -9.253906 -19.183594 13.613281 -2.054688 39.652344 -5.988281 C 53.5625 -8.089844 66.828125 -16.449219 76.300781 -27.871094 C 87.828125 -15.6875 109.195312 -16.492188 118.070312 -17.835938 C 142.632812 -21.542969 173.601562 -38.933594 185.300781 -89.734375 C 187.699219 -101.902344 189.839844 -109.789062 189.035156 -115.117188 C 187.515625 -125.179688 179.015625 -129.34375 170.433594 -128.046875 Z M 72.332031 -116.253906 L 64.789062 -70.019531 C 61.480469 -49.84375 50.90625 -43.707031 44.691406 -42.769531 C 38.179688 -41.785156 34.300781 -45.4375 33.273438 -52.242188 C 32.691406 -56.089844 33.042969 -59.773438 33.527344 -62.570312 L 43.484375 -124.914062 C 46.378906 -143.8125 54.308594 -147.429688 59.042969 -148.148438 C 64.664062 -148.996094 71.726562 -144.3125 73.246094 -134.25 C 73.917969 -129.8125 73.582031 -124.011719 72.332031 -116.253906 Z M 72.332031 -116.253906 "/></g></g></g><g fill="#ffe97d" fill-opacity="1"><g transform="translate(736.565058, 498.8637)"><g><path d="M 173.1875 -127.855469 C 165.195312 -126.648438 157.535156 -121.253906 156.304688 -111.382812 C 148.351562 -73.863281 134.652344 -56.355469 121.335938 -54.34375 C 115.417969 -53.449219 111.535156 -57.101562 110.820312 -61.835938 C 110.550781 -63.613281 110.578125 -65.433594 111.226562 -69.164062 L 145.269531 -252.578125 C 145.914062 -256.308594 146.636719 -261.5625 146.144531 -264.816406 C 144.222656 -277.542969 132.835938 -282.78125 122.480469 -281.21875 C 113.304688 -279.832031 105.75 -271.730469 102.75 -255.539062 L 87.351562 -175.125 C 77 -183.546875 63.128906 -187.203125 49.222656 -185.101562 C 29.988281 -182.199219 10.882812 -168.414062 6.289062 -144.71875 L -9.753906 -60.574219 C -10.976562 -54.640625 -10.972656 -48.585938 -10.167969 -43.257812 C -6.234375 -17.21875 17.460938 -2.636719 42.910156 -6.480469 C 56.816406 -8.582031 71.488281 -15.640625 81.582031 -28.96875 C 92.277344 -20.292969 107.417969 -16.226562 122.214844 -18.460938 C 151.511719 -22.886719 182.070312 -48.992188 193.136719 -109.984375 C 193.417969 -112.148438 193.695312 -114.308594 193.429688 -116.082031 C 192.042969 -125.257812 182.359375 -129.242188 173.1875 -127.855469 Z M 42.535156 -53.035156 C 36.6875 -53.667969 34.539062 -57.882812 33.824219 -62.617188 C 33.242188 -66.464844 33.59375 -70.148438 34.078125 -72.945312 L 43.484375 -124.914062 C 46.765625 -143.265625 54.308594 -147.429688 59.042969 -148.148438 C 64.664062 -148.996094 71.726562 -144.3125 73.246094 -134.25 C 73.917969 -129.8125 73.878906 -124.054688 72.332031 -116.253906 L 65.339844 -80.390625 C 59.769531 -57.152344 48.335938 -52.703125 42.535156 -53.035156 Z M 42.535156 -53.035156 "/></g></g></g><g fill="#ffe97d" fill-opacity="1"><g transform="translate(895.468163, 474.862036)"><g><path d="M 115.832031 -80.753906 C 115.875 -80.457031 115.160156 -85.191406 113.128906 -90.636719 C 114.976562 -92.429688 116.691406 -95.109375 118.0625 -98.039062 C 121.976562 -106.199219 126.964844 -133.285156 125.179688 -145.121094 C 120.617188 -175.304688 92.722656 -191.671875 60.761719 -186.847656 C 32.945312 -182.644531 8.933594 -163.277344 3.441406 -135.511719 L -8.953125 -71.289062 C -10.496094 -63.488281 -10.5625 -55.910156 -9.582031 -49.402344 C -4.886719 -18.328125 24.5625 -3.710938 54.746094 -8.269531 C 77.828125 -11.753906 97.71875 -22.328125 106.929688 -45.511719 C 112.480469 -44.835938 118.828125 -44.886719 125.042969 -45.824219 C 159.960938 -51.097656 183.726562 -80.113281 189.09375 -112.703125 C 189.492188 -116.09375 189.636719 -119.140625 189.234375 -121.804688 C 187.582031 -132.753906 178.652344 -137.761719 170.070312 -136.464844 C 162.082031 -135.257812 154.507812 -129.273438 152.910156 -117.832031 C 149.167969 -98.5 137.480469 -83.722656 120.019531 -81.085938 C 118.835938 -80.90625 117.0625 -80.636719 115.832031 -80.753906 Z M 81.429688 -122.167969 C 80.941406 -119.371094 80.414062 -116.871094 80.472656 -114.457031 C 63.929688 -113.773438 51.441406 -98.269531 54.125 -80.511719 C 55.9375 -70.496094 61.773438 -65.929688 68.113281 -62.042969 C 65.828125 -51.105469 58.007812 -44.78125 48.835938 -43.394531 C 37.292969 -41.652344 33.261719 -48.304688 32.1875 -55.40625 C 31.339844 -61.03125 32.015625 -66.582031 32.75 -69.71875 L 44.6875 -132.964844 C 46.765625 -143.265625 56.273438 -150.453125 65.445312 -151.839844 C 74.617188 -153.222656 81.476562 -147.902344 82.503906 -141.097656 C 83.308594 -135.769531 82.5625 -128.695312 81.429688 -122.167969 Z M 81.429688 -122.167969 "/></g></g></g><g fill="#ffe97d" fill-opacity="1"><g transform="translate(1049.932621, 451.530812)"><g><path d="M 137.070312 -108.476562 C 130.203125 -77.78125 118.375 -53.898438 105.945312 -52.019531 C 101.804688 -51.394531 99.152344 -54.929688 98.527344 -59.070312 C 98.257812 -60.847656 98.195312 -63.257812 98.726562 -65.761719 L 108.855469 -116.929688 C 109.738281 -123.117188 110.117188 -128.621094 109.355469 -133.652344 C 105.109375 -161.765625 67.8125 -168.238281 50.480469 -170.765625 C 51.011719 -173.265625 50.902344 -175.972656 50.546875 -178.339844 C 48.488281 -191.953125 34.613281 -201.660156 21.296875 -199.652344 C 3.839844 -197.011719 -4.195312 -180.0625 -1.648438 -163.195312 C -0.527344 -155.796875 3.296875 -148.503906 8.925781 -143.300781 L -3.871094 -81.742188 C -4.105469 -79.285156 -4.042969 -76.871094 -3.777344 -75.097656 C -2.300781 -65.332031 6.152344 -61.464844 14.4375 -62.714844 C 22.722656 -63.964844 30.589844 -69.996094 32.710938 -80.003906 L 42.578125 -126.894531 C 51.265625 -125.484375 62.527344 -125.066406 64.046875 -115.003906 C 64.269531 -113.523438 64.242188 -111.703125 63.964844 -109.542969 L 56.398438 -71.472656 C 55.058594 -64.308594 54.8125 -57.917969 55.707031 -52 C 59.59375 -26.253906 82.5625 -12.46875 107.121094 -16.179688 C 139.378906 -21.050781 164.339844 -54.183594 174.242188 -106.828125 C 174.566406 -108.695312 174.640625 -110.21875 174.417969 -111.699219 C 173.074219 -120.574219 162.417969 -125.019531 152.945312 -123.589844 C 145.253906 -122.425781 138.390625 -117.757812 137.070312 -108.476562 Z M 137.070312 -108.476562 "/></g></g></g><g fill="#ffe97d" fill-opacity="1"><g transform="translate(1189.897549, 430.389682)"><g><path d="M 170.433594 -128.046875 C 162.148438 -126.792969 153.734375 -120.378906 151.882812 -108.597656 C 145.839844 -70.457031 129.027344 -55.507812 115.710938 -53.496094 C 110.679688 -52.734375 107.320312 -54.953125 106.605469 -59.6875 C 106.246094 -62.054688 106.390625 -65.101562 106.789062 -68.492188 L 125.449219 -169.375 C 126.097656 -173.105469 126.195312 -176.449219 125.75 -179.410156 C 123.78125 -192.429688 112.101562 -197.628906 101.152344 -195.972656 C 92.867188 -194.722656 84.867188 -189.578125 81.25 -181.464844 C 74.453125 -184.375 62.242188 -187.070312 47.152344 -184.789062 C 27.621094 -181.839844 7.921875 -167.96875 3.375 -143.976562 L -12.417969 -60.171875 C -13.390625 -54.578125 -13.769531 -49.070312 -12.964844 -43.746094 C -9.253906 -19.183594 13.613281 -2.054688 39.652344 -5.988281 C 53.5625 -8.089844 66.828125 -16.449219 76.300781 -27.871094 C 87.828125 -15.6875 109.195312 -16.492188 118.070312 -17.835938 C 142.632812 -21.542969 173.601562 -38.933594 185.300781 -89.734375 C 187.699219 -101.902344 189.839844 -109.789062 189.035156 -115.117188 C 187.515625 -125.179688 179.015625 -129.34375 170.433594 -128.046875 Z M 72.332031 -116.253906 L 64.789062 -70.019531 C 61.480469 -49.84375 50.90625 -43.707031 44.691406 -42.769531 C 38.179688 -41.785156 34.300781 -45.4375 33.273438 -52.242188 C 32.691406 -56.089844 33.042969 -59.773438 33.527344 -62.570312 L 43.484375 -124.914062 C 46.378906 -143.8125 54.308594 -147.429688 59.042969 -148.148438 C 64.664062 -148.996094 71.726562 -144.3125 73.246094 -134.25 C 73.917969 -129.8125 73.582031 -124.011719 72.332031 -116.253906 Z M 72.332031 -116.253906 "/></g></g></g></svg>