<svg xmlns="http://www.w3.org/2000/svg" xmlns:xlink="http://www.w3.org/1999/xlink" width="1920" zoomAndPan="magnify" viewBox="0 0 1440 809.999993" height="1080" preserveAspectRatio="xMidYMid meet" version="1.0"><defs><g/></defs><g fill="#fd6155" fill-opacity="0.302"><g transform="translate(381.497773, 436.875246)"><g><path d="M 210.40625 -146.472656 C 202.058594 -145.015625 194.4375 -139.390625 192.84375 -129.515625 C 187.140625 -95.769531 175.039062 -72.15625 158.660156 -69.304688 C 150.953125 -67.964844 145.449219 -72.960938 144.164062 -80.347656 C 143.664062 -83.238281 143.425781 -86.503906 144.148438 -89.941406 L 168.871094 -236.84375 C 170.417969 -245.054688 170.683594 -253.042969 169.171875 -261.710938 C 163.527344 -294.144531 132.277344 -310.210938 99.199219 -304.453125 C 89.246094 -302.722656 74.65625 -297.203125 64.144531 -283.464844 C 61.238281 -292.554688 49.425781 -295.789062 38.828125 -293.945312 C 29.515625 -292.324219 21.515625 -286.960938 19.871094 -277.410156 L -22.761719 -28.132812 C -23.488281 -24.695312 -23.25 -21.429688 -22.804688 -18.859375 C -20.457031 -5.371094 -7.066406 1.230469 5.78125 -1.007812 C 17.339844 -3.019531 27.03125 -11.984375 29.960938 -29.367188 L 63.121094 -224.722656 C 66.566406 -244.84375 81.851562 -257.761719 96.304688 -260.277344 C 106.578125 -262.066406 115.667969 -257.359375 117.515625 -246.765625 C 118.074219 -243.550781 118.367188 -239.964844 117.542969 -235.1875 L 94.511719 -99.496094 C 92.710938 -88.925781 92.839844 -78.691406 94.40625 -69.703125 C 99.996094 -37.589844 124.917969 -21.746094 156.390625 -27.222656 C 192.035156 -33.425781 222.945312 -64.945312 232.835938 -127.875 C 233.085938 -130.234375 233.070312 -132.21875 232.734375 -134.144531 C 231.003906 -144.101562 220.363281 -148.203125 210.40625 -146.472656 Z M 210.40625 -146.472656 "/></g></g></g><g fill="#fd6155" fill-opacity="0.302"><g transform="translate(579.629937, 402.387091)"><g><path d="M 124.15625 -90.761719 C 124.210938 -90.441406 123.316406 -95.578125 120.96875 -101.457031 C 122.9375 -103.453125 124.738281 -106.414062 126.164062 -109.640625 C 130.226562 -118.617188 134.996094 -148.234375 132.761719 -161.078125 C 127.058594 -193.832031 96.28125 -210.976562 61.601562 -204.9375 C 31.414062 -199.683594 5.738281 -178.007812 0.4375 -147.640625 L -11.488281 -77.40625 C -12.980469 -68.875 -12.867188 -60.625 -11.640625 -53.558594 C -5.769531 -19.839844 26.652344 -4.640625 59.410156 -10.339844 C 84.457031 -14.703125 105.859375 -26.699219 115.324219 -52.167969 C 121.382812 -51.566406 128.292969 -51.777344 135.039062 -52.953125 C 172.929688 -59.546875 198.101562 -91.722656 203.148438 -127.339844 C 203.5 -131.042969 203.582031 -134.363281 203.078125 -137.253906 C 201.011719 -149.136719 191.167969 -154.371094 181.855469 -152.75 C 173.183594 -151.242188 165.085938 -144.539062 163.621094 -132.039062 C 160.023438 -110.902344 147.652344 -94.519531 128.707031 -91.222656 C 127.421875 -91 125.496094 -90.664062 124.15625 -90.761719 Z M 85.683594 -135.015625 C 85.222656 -131.957031 84.707031 -129.222656 84.832031 -126.597656 C 66.835938 -125.449219 53.613281 -108.257812 56.96875 -88.992188 C 59.191406 -78.128906 65.65625 -73.300781 72.652344 -69.222656 C 70.433594 -57.257812 62.070312 -50.175781 52.113281 -48.445312 C 39.589844 -46.265625 35.039062 -53.410156 33.695312 -61.121094 C 32.632812 -67.21875 33.234375 -73.28125 33.960938 -76.714844 L 45.414062 -145.875 C 47.421875 -157.140625 57.597656 -165.199219 67.554688 -166.933594 C 77.507812 -168.664062 85.105469 -163.039062 86.390625 -155.652344 C 87.398438 -149.875 86.757812 -142.152344 85.683594 -135.015625 Z M 85.683594 -135.015625 "/></g></g></g><g fill="#fd6155" fill-opacity="0.302"><g transform="translate(747.255534, 373.209105)"><g><path d="M 161.304688 -126.34375 C 158.472656 -110.300781 151.953125 -100.230469 140.070312 -98.164062 C 129.472656 -96.320312 122.839844 -102.113281 121.332031 -110.78125 C 120.886719 -113.351562 120.96875 -116.675781 121.429688 -119.734375 C 133.292969 -154.222656 141.570312 -173.199219 138.496094 -190.859375 C 135.753906 -206.597656 124.863281 -215.949219 107.199219 -212.875 C 74.765625 -207.230469 59.582031 -157.605469 65.507812 -123.566406 C 66.847656 -115.855469 69.363281 -109.015625 73.050781 -103.039062 L 60.027344 -73.3125 C 56.441406 -65.410156 47.8125 -50.34375 43.320312 -49.558594 C 42.355469 -49.390625 41.546875 -50.242188 41.210938 -52.171875 C 40.707031 -55.058594 40.523438 -58.007812 40.875 -61.707031 L 47.335938 -169.039062 C 47.683594 -172.738281 47.445312 -176.003906 46.945312 -178.894531 C 44.261719 -194.308594 32.378906 -199.851562 21.136719 -197.894531 C 9.578125 -195.882812 -0.699219 -186.484375 -1.503906 -172.117188 L -6.726562 -63.347656 C -7.003906 -57.34375 -6.640625 -51.449219 -5.746094 -46.3125 C -0.769531 -17.730469 20.550781 -3.578125 45.601562 -7.9375 C 68.402344 -11.90625 77.152344 -24.347656 94.101562 -52.445312 L 103.464844 -68.960938 C 114.300781 -59.929688 129.496094 -56.289062 146.515625 -59.25 C 177.664062 -64.671875 197.472656 -89.628906 201.671875 -124.4375 C 201.976562 -126.476562 201.699219 -128.082031 201.417969 -129.6875 C 199.574219 -140.285156 188.5 -144.972656 178.546875 -143.242188 C 170.195312 -141.789062 162.894531 -136.214844 161.304688 -126.34375 Z M 161.304688 -126.34375 "/></g></g></g><g fill="#fd6155" fill-opacity="0.302"><g transform="translate(913.917743, 344.198813)"><g><path d="M 124.15625 -90.761719 C 124.210938 -90.441406 123.316406 -95.578125 120.96875 -101.457031 C 122.9375 -103.453125 124.738281 -106.414062 126.164062 -109.640625 C 130.226562 -118.617188 134.996094 -148.234375 132.761719 -161.078125 C 127.058594 -193.832031 96.28125 -210.976562 61.601562 -204.9375 C 31.414062 -199.683594 5.738281 -178.007812 0.4375 -147.640625 L -11.488281 -77.40625 C -12.980469 -68.875 -12.867188 -60.625 -11.640625 -53.558594 C -5.769531 -19.839844 26.652344 -4.640625 59.410156 -10.339844 C 84.457031 -14.703125 105.859375 -26.699219 115.324219 -52.167969 C 121.382812 -51.566406 128.292969 -51.777344 135.039062 -52.953125 C 172.929688 -59.546875 198.101562 -91.722656 203.148438 -127.339844 C 203.5 -131.042969 203.582031 -134.363281 203.078125 -137.253906 C 201.011719 -149.136719 191.167969 -154.371094 181.855469 -152.75 C 173.183594 -151.242188 165.085938 -144.539062 163.621094 -132.039062 C 160.023438 -110.902344 147.652344 -94.519531 128.707031 -91.222656 C 127.421875 -91 125.496094 -90.664062 124.15625 -90.761719 Z M 85.683594 -135.015625 C 85.222656 -131.957031 84.707031 -129.222656 84.832031 -126.597656 C 66.835938 -125.449219 53.613281 -108.257812 56.96875 -88.992188 C 59.191406 -78.128906 65.65625 -73.300781 72.652344 -69.222656 C 70.433594 -57.257812 62.070312 -50.175781 52.113281 -48.445312 C 39.589844 -46.265625 35.039062 -53.410156 33.695312 -61.121094 C 32.632812 -67.21875 33.234375 -73.28125 33.960938 -76.714844 L 45.414062 -145.875 C 47.421875 -157.140625 57.597656 -165.199219 67.554688 -166.933594 C 77.507812 -168.664062 85.105469 -163.039062 86.390625 -155.652344 C 87.398438 -149.875 86.757812 -142.152344 85.683594 -135.015625 Z M 85.683594 -135.015625 "/></g></g></g><g fill="#fd6155" fill-opacity="0.502"><g transform="translate(366.266738, 419.884655)"><g><path d="M 210.40625 -146.472656 C 202.058594 -145.015625 194.4375 -139.390625 192.84375 -129.515625 C 187.140625 -95.769531 175.039062 -72.15625 158.660156 -69.304688 C 150.953125 -67.964844 145.449219 -72.960938 144.164062 -80.347656 C 143.664062 -83.238281 143.425781 -86.503906 144.148438 -89.941406 L 168.871094 -236.84375 C 170.417969 -245.054688 170.683594 -253.042969 169.171875 -261.710938 C 163.527344 -294.144531 132.277344 -310.210938 99.199219 -304.453125 C 89.246094 -302.722656 74.65625 -297.203125 64.144531 -283.464844 C 61.238281 -292.554688 49.425781 -295.789062 38.828125 -293.945312 C 29.515625 -292.324219 21.515625 -286.960938 19.871094 -277.410156 L -22.761719 -28.132812 C -23.488281 -24.695312 -23.25 -21.429688 -22.804688 -18.859375 C -20.457031 -5.371094 -7.066406 1.230469 5.78125 -1.007812 C 17.339844 -3.019531 27.03125 -11.984375 29.960938 -29.367188 L 63.121094 -224.722656 C 66.566406 -244.84375 81.851562 -257.761719 96.304688 -260.277344 C 106.578125 -262.066406 115.667969 -257.359375 117.515625 -246.765625 C 118.074219 -243.550781 118.367188 -239.964844 117.542969 -235.1875 L 94.511719 -99.496094 C 92.710938 -88.925781 92.839844 -78.691406 94.40625 -69.703125 C 99.996094 -37.589844 124.917969 -21.746094 156.390625 -27.222656 C 192.035156 -33.425781 222.945312 -64.945312 232.835938 -127.875 C 233.085938 -130.234375 233.070312 -132.21875 232.734375 -134.144531 C 231.003906 -144.101562 220.363281 -148.203125 210.40625 -146.472656 Z M 210.40625 -146.472656 "/></g></g></g><g fill="#fd6155" fill-opacity="0.502"><g transform="translate(564.398902, 385.396501)"><g><path d="M 124.15625 -90.761719 C 124.210938 -90.441406 123.316406 -95.578125 120.96875 -101.457031 C 122.9375 -103.453125 124.738281 -106.414062 126.164062 -109.640625 C 130.226562 -118.617188 134.996094 -148.234375 132.761719 -161.078125 C 127.058594 -193.832031 96.28125 -210.976562 61.601562 -204.9375 C 31.414062 -199.683594 5.738281 -178.007812 0.4375 -147.640625 L -11.488281 -77.40625 C -12.980469 -68.875 -12.867188 -60.625 -11.640625 -53.558594 C -5.769531 -19.839844 26.652344 -4.640625 59.410156 -10.339844 C 84.457031 -14.703125 105.859375 -26.699219 115.324219 -52.167969 C 121.382812 -51.566406 128.292969 -51.777344 135.039062 -52.953125 C 172.929688 -59.546875 198.101562 -91.722656 203.148438 -127.339844 C 203.5 -131.042969 203.582031 -134.363281 203.078125 -137.253906 C 201.011719 -149.136719 191.167969 -154.371094 181.855469 -152.75 C 173.183594 -151.242188 165.085938 -144.539062 163.621094 -132.039062 C 160.023438 -110.902344 147.652344 -94.519531 128.707031 -91.222656 C 127.421875 -91 125.496094 -90.664062 124.15625 -90.761719 Z M 85.683594 -135.015625 C 85.222656 -131.957031 84.707031 -129.222656 84.832031 -126.597656 C 66.835938 -125.449219 53.613281 -108.257812 56.96875 -88.992188 C 59.191406 -78.128906 65.65625 -73.300781 72.652344 -69.222656 C 70.433594 -57.257812 62.070312 -50.175781 52.113281 -48.445312 C 39.589844 -46.265625 35.039062 -53.410156 33.695312 -61.121094 C 32.632812 -67.21875 33.234375 -73.28125 33.960938 -76.714844 L 45.414062 -145.875 C 47.421875 -157.140625 57.597656 -165.199219 67.554688 -166.933594 C 77.507812 -168.664062 85.105469 -163.039062 86.390625 -155.652344 C 87.398438 -149.875 86.757812 -142.152344 85.683594 -135.015625 Z M 85.683594 -135.015625 "/></g></g></g><g fill="#fd6155" fill-opacity="0.502"><g transform="translate(732.024499, 356.218515)"><g><path d="M 161.304688 -126.34375 C 158.472656 -110.300781 151.953125 -100.230469 140.070312 -98.164062 C 129.472656 -96.320312 122.839844 -102.113281 121.332031 -110.78125 C 120.886719 -113.351562 120.96875 -116.675781 121.429688 -119.734375 C 133.292969 -154.222656 141.570312 -173.199219 138.496094 -190.859375 C 135.753906 -206.597656 124.863281 -215.949219 107.199219 -212.875 C 74.765625 -207.230469 59.582031 -157.605469 65.507812 -123.566406 C 66.847656 -115.855469 69.363281 -109.015625 73.050781 -103.039062 L 60.027344 -73.3125 C 56.441406 -65.410156 47.8125 -50.34375 43.320312 -49.558594 C 42.355469 -49.390625 41.546875 -50.242188 41.210938 -52.171875 C 40.707031 -55.058594 40.523438 -58.007812 40.875 -61.707031 L 47.335938 -169.039062 C 47.683594 -172.738281 47.445312 -176.003906 46.945312 -178.894531 C 44.261719 -194.308594 32.378906 -199.851562 21.136719 -197.894531 C 9.578125 -195.882812 -0.699219 -186.484375 -1.503906 -172.117188 L -6.726562 -63.347656 C -7.003906 -57.34375 -6.640625 -51.449219 -5.746094 -46.3125 C -0.769531 -17.730469 20.550781 -3.578125 45.601562 -7.9375 C 68.402344 -11.90625 77.152344 -24.347656 94.101562 -52.445312 L 103.464844 -68.960938 C 114.300781 -59.929688 129.496094 -56.289062 146.515625 -59.25 C 177.664062 -64.671875 197.472656 -89.628906 201.671875 -124.4375 C 201.976562 -126.476562 201.699219 -128.082031 201.417969 -129.6875 C 199.574219 -140.285156 188.5 -144.972656 178.546875 -143.242188 C 170.195312 -141.789062 162.894531 -136.214844 161.304688 -126.34375 Z M 161.304688 -126.34375 "/></g></g></g><g fill="#fd6155" fill-opacity="0.502"><g transform="translate(898.686708, 327.208222)"><g><path d="M 124.15625 -90.761719 C 124.210938 -90.441406 123.316406 -95.578125 120.96875 -101.457031 C 122.9375 -103.453125 124.738281 -106.414062 126.164062 -109.640625 C 130.226562 -118.617188 134.996094 -148.234375 132.761719 -161.078125 C 127.058594 -193.832031 96.28125 -210.976562 61.601562 -204.9375 C 31.414062 -199.683594 5.738281 -178.007812 0.4375 -147.640625 L -11.488281 -77.40625 C -12.980469 -68.875 -12.867188 -60.625 -11.640625 -53.558594 C -5.769531 -19.839844 26.652344 -4.640625 59.410156 -10.339844 C 84.457031 -14.703125 105.859375 -26.699219 115.324219 -52.167969 C 121.382812 -51.566406 128.292969 -51.777344 135.039062 -52.953125 C 172.929688 -59.546875 198.101562 -91.722656 203.148438 -127.339844 C 203.5 -131.042969 203.582031 -134.363281 203.078125 -137.253906 C 201.011719 -149.136719 191.167969 -154.371094 181.855469 -152.75 C 173.183594 -151.242188 165.085938 -144.539062 163.621094 -132.039062 C 160.023438 -110.902344 147.652344 -94.519531 128.707031 -91.222656 C 127.421875 -91 125.496094 -90.664062 124.15625 -90.761719 Z M 85.683594 -135.015625 C 85.222656 -131.957031 84.707031 -129.222656 84.832031 -126.597656 C 66.835938 -125.449219 53.613281 -108.257812 56.96875 -88.992188 C 59.191406 -78.128906 65.65625 -73.300781 72.652344 -69.222656 C 70.433594 -57.257812 62.070312 -50.175781 52.113281 -48.445312 C 39.589844 -46.265625 35.039062 -53.410156 33.695312 -61.121094 C 32.632812 -67.21875 33.234375 -73.28125 33.960938 -76.714844 L 45.414062 -145.875 C 47.421875 -157.140625 57.597656 -165.199219 67.554688 -166.933594 C 77.507812 -168.664062 85.105469 -163.039062 86.390625 -155.652344 C 87.398438 -149.875 86.757812 -142.152344 85.683594 -135.015625 Z M 85.683594 -135.015625 "/></g></g></g><g fill="#ffe97d" fill-opacity="1"><g transform="translate(351.035703, 402.894094)"><g><path d="M 210.40625 -146.472656 C 202.058594 -145.015625 194.4375 -139.390625 192.84375 -129.515625 C 187.140625 -95.769531 175.039062 -72.15625 158.660156 -69.304688 C 150.953125 -67.964844 145.449219 -72.960938 144.164062 -80.347656 C 143.664062 -83.238281 143.425781 -86.503906 144.148438 -89.941406 L 168.871094 -236.84375 C 170.417969 -245.054688 170.683594 -253.042969 169.171875 -261.710938 C 163.527344 -294.144531 132.277344 -310.210938 99.199219 -304.453125 C 89.246094 -302.722656 74.65625 -297.203125 64.144531 -283.464844 C 61.238281 -292.554688 49.425781 -295.789062 38.828125 -293.945312 C 29.515625 -292.324219 21.515625 -286.960938 19.871094 -277.410156 L -22.761719 -28.132812 C -23.488281 -24.695312 -23.25 -21.429688 -22.804688 -18.859375 C -20.457031 -5.371094 -7.066406 1.230469 5.78125 -1.007812 C 17.339844 -3.019531 27.03125 -11.984375 29.960938 -29.367188 L 63.121094 -224.722656 C 66.566406 -244.84375 81.851562 -257.761719 96.304688 -260.277344 C 106.578125 -262.066406 115.667969 -257.359375 117.515625 -246.765625 C 118.074219 -243.550781 118.367188 -239.964844 117.542969 -235.1875 L 94.511719 -99.496094 C 92.710938 -88.925781 92.839844 -78.691406 94.40625 -69.703125 C 99.996094 -37.589844 124.917969 -21.746094 156.390625 -27.222656 C 192.035156 -33.425781 222.945312 -64.945312 232.835938 -127.875 C 233.085938 -130.234375 233.070312 -132.21875 232.734375 -134.144531 C 231.003906 -144.101562 220.363281 -148.203125 210.40625 -146.472656 Z M 210.40625 -146.472656 "/></g></g></g><g fill="#ffe97d" fill-opacity="1"><g transform="translate(549.167867, 368.405939)"><g><path d="M 124.15625 -90.761719 C 124.210938 -90.441406 123.316406 -95.578125 120.96875 -101.457031 C 122.9375 -103.453125 124.738281 -106.414062 126.164062 -109.640625 C 130.226562 -118.617188 134.996094 -148.234375 132.761719 -161.078125 C 127.058594 -193.832031 96.28125 -210.976562 61.601562 -204.9375 C 31.414062 -199.683594 5.738281 -178.007812 0.4375 -147.640625 L -11.488281 -77.40625 C -12.980469 -68.875 -12.867188 -60.625 -11.640625 -53.558594 C -5.769531 -19.839844 26.652344 -4.640625 59.410156 -10.339844 C 84.457031 -14.703125 105.859375 -26.699219 115.324219 -52.167969 C 121.382812 -51.566406 128.292969 -51.777344 135.039062 -52.953125 C 172.929688 -59.546875 198.101562 -91.722656 203.148438 -127.339844 C 203.5 -131.042969 203.582031 -134.363281 203.078125 -137.253906 C 201.011719 -149.136719 191.167969 -154.371094 181.855469 -152.75 C 173.183594 -151.242188 165.085938 -144.539062 163.621094 -132.039062 C 160.023438 -110.902344 147.652344 -94.519531 128.707031 -91.222656 C 127.421875 -91 125.496094 -90.664062 124.15625 -90.761719 Z M 85.683594 -135.015625 C 85.222656 -131.957031 84.707031 -129.222656 84.832031 -126.597656 C 66.835938 -125.449219 53.613281 -108.257812 56.96875 -88.992188 C 59.191406 -78.128906 65.65625 -73.300781 72.652344 -69.222656 C 70.433594 -57.257812 62.070312 -50.175781 52.113281 -48.445312 C 39.589844 -46.265625 35.039062 -53.410156 33.695312 -61.121094 C 32.632812 -67.21875 33.234375 -73.28125 33.960938 -76.714844 L 45.414062 -145.875 C 47.421875 -157.140625 57.597656 -165.199219 67.554688 -166.933594 C 77.507812 -168.664062 85.105469 -163.039062 86.390625 -155.652344 C 87.398438 -149.875 86.757812 -142.152344 85.683594 -135.015625 Z M 85.683594 -135.015625 "/></g></g></g><g fill="#ffe97d" fill-opacity="1"><g transform="translate(716.793464, 339.227953)"><g><path d="M 161.304688 -126.34375 C 158.472656 -110.300781 151.953125 -100.230469 140.070312 -98.164062 C 129.472656 -96.320312 122.839844 -102.113281 121.332031 -110.78125 C 120.886719 -113.351562 120.96875 -116.675781 121.429688 -119.734375 C 133.292969 -154.222656 141.570312 -173.199219 138.496094 -190.859375 C 135.753906 -206.597656 124.863281 -215.949219 107.199219 -212.875 C 74.765625 -207.230469 59.582031 -157.605469 65.507812 -123.566406 C 66.847656 -115.855469 69.363281 -109.015625 73.050781 -103.039062 L 60.027344 -73.3125 C 56.441406 -65.410156 47.8125 -50.34375 43.320312 -49.558594 C 42.355469 -49.390625 41.546875 -50.242188 41.210938 -52.171875 C 40.707031 -55.058594 40.523438 -58.007812 40.875 -61.707031 L 47.335938 -169.039062 C 47.683594 -172.738281 47.445312 -176.003906 46.945312 -178.894531 C 44.261719 -194.308594 32.378906 -199.851562 21.136719 -197.894531 C 9.578125 -195.882812 -0.699219 -186.484375 -1.503906 -172.117188 L -6.726562 -63.347656 C -7.003906 -57.34375 -6.640625 -51.449219 -5.746094 -46.3125 C -0.769531 -17.730469 20.550781 -3.578125 45.601562 -7.9375 C 68.402344 -11.90625 77.152344 -24.347656 94.101562 -52.445312 L 103.464844 -68.960938 C 114.300781 -59.929688 129.496094 -56.289062 146.515625 -59.25 C 177.664062 -64.671875 197.472656 -89.628906 201.671875 -124.4375 C 201.976562 -126.476562 201.699219 -128.082031 201.417969 -129.6875 C 199.574219 -140.285156 188.5 -144.972656 178.546875 -143.242188 C 170.195312 -141.789062 162.894531 -136.214844 161.304688 -126.34375 Z M 161.304688 -126.34375 "/></g></g></g><g fill="#ffe97d" fill-opacity="1"><g transform="translate(883.455673, 310.217661)"><g><path d="M 124.15625 -90.761719 C 124.210938 -90.441406 123.316406 -95.578125 120.96875 -101.457031 C 122.9375 -103.453125 124.738281 -106.414062 126.164062 -109.640625 C 130.226562 -118.617188 134.996094 -148.234375 132.761719 -161.078125 C 127.058594 -193.832031 96.28125 -210.976562 61.601562 -204.9375 C 31.414062 -199.683594 5.738281 -178.007812 0.4375 -147.640625 L -11.488281 -77.40625 C -12.980469 -68.875 -12.867188 -60.625 -11.640625 -53.558594 C -5.769531 -19.839844 26.652344 -4.640625 59.410156 -10.339844 C 84.457031 -14.703125 105.859375 -26.699219 115.324219 -52.167969 C 121.382812 -51.566406 128.292969 -51.777344 135.039062 -52.953125 C 172.929688 -59.546875 198.101562 -91.722656 203.148438 -127.339844 C 203.5 -131.042969 203.582031 -134.363281 203.078125 -137.253906 C 201.011719 -149.136719 191.167969 -154.371094 181.855469 -152.75 C 173.183594 -151.242188 165.085938 -144.539062 163.621094 -132.039062 C 160.023438 -110.902344 147.652344 -94.519531 128.707031 -91.222656 C 127.421875 -91 125.496094 -90.664062 124.15625 -90.761719 Z M 85.683594 -135.015625 C 85.222656 -131.957031 84.707031 -129.222656 84.832031 -126.597656 C 66.835938 -125.449219 53.613281 -108.257812 56.96875 -88.992188 C 59.191406 -78.128906 65.65625 -73.300781 72.652344 -69.222656 C 70.433594 -57.257812 62.070312 -50.175781 52.113281 -48.445312 C 39.589844 -46.265625 35.039062 -53.410156 33.695312 -61.121094 C 32.632812 -67.21875 33.234375 -73.28125 33.960938 -76.714844 L 45.414062 -145.875 C 47.421875 -157.140625 57.597656 -165.199219 67.554688 -166.933594 C 77.507812 -168.664062 85.105469 -163.039062 86.390625 -155.652344 C 87.398438 -149.875 86.757812 -142.152344 85.683594 -135.015625 Z M 85.683594 -135.015625 "/></g></g></g><g fill="#fd6155" fill-opacity="0.302"><g transform="translate(362.008679, 747.701363)"><g><path d="M 230.003906 -286.335938 L 102.082031 -267.011719 C 85.546875 -264.515625 80.074219 -253.601562 81.476562 -244.320312 C 82.789062 -235.617188 90.441406 -228.167969 100.886719 -229.746094 L 118.289062 -232.375 L 107.648438 -183 L 94.304688 -180.984375 C 78.640625 -178.617188 72.546875 -167.90625 73.949219 -158.625 C 75.304688 -149.632812 83.582031 -141.980469 97.507812 -144.085938 L 100.40625 -144.523438 L 89.121094 -87.632812 C 83.378906 -58.878906 72.5625 -51.902344 57.480469 -49.625 C 47.035156 -48.046875 38.734375 -53.914062 35.070312 -60.480469 C 35.34375 -62.601562 35.328125 -64.675781 35.023438 -66.703125 C 33.007812 -80.046875 19.886719 -86.375 8.574219 -84.664062 C -3.03125 -82.914062 -13.40625 -73.039062 -10.601562 -54.472656 C -6.4375 -26.917969 25.238281 -3.8125 63.234375 -9.550781 C 93.113281 -14.0625 120.351562 -32.125 129.875 -81.03125 C 133.769531 -102.390625 139.398438 -129.941406 143.585938 -151.339844 L 160.988281 -153.96875 C 178.683594 -156.644531 184.109375 -167.847656 182.664062 -177.417969 C 181.394531 -185.832031 174.65625 -193.121094 165.953125 -191.808594 L 150.871094 -189.527344 L 160.058594 -238.683594 L 228.226562 -248.980469 C 244.382812 -252.015625 249.945312 -262.347656 248.542969 -271.628906 C 247.226562 -280.332031 239.863281 -287.824219 230.003906 -286.335938 Z M 230.003906 -286.335938 "/></g></g></g><g fill="#fd6155" fill-opacity="0.302"><g transform="translate(555.190261, 718.522075)"><g><path d="M 48.28125 -208.746094 C 61.332031 -210.71875 70.445312 -223.070312 68.429688 -236.414062 C 66.457031 -249.46875 54.148438 -258.289062 41.09375 -256.316406 C 28.039062 -254.347656 18.886719 -242.28125 20.855469 -229.230469 C 22.871094 -215.886719 35.226562 -206.773438 48.28125 -208.746094 Z M 31.464844 -54.894531 L 49.617188 -150.796875 C 50.207031 -154.742188 51.042969 -159.023438 50.605469 -161.921875 C 48.675781 -174.6875 38.097656 -179.910156 28.234375 -178.421875 C 19.242188 -177.0625 10.632812 -169.238281 8.050781 -154.902344 C 2.886719 -126.234375 -4.082031 -89.875 -9.289062 -61.496094 C -10.152344 -55.429688 -11.289062 -47.25 -10.546875 -42.316406 C -6.425781 -15.050781 18.566406 -2.804688 45.25 -6.835938 C 73.679688 -11.128906 102.378906 -33.265625 113.613281 -96.378906 C 113.929688 -98.207031 113.957031 -99.988281 113.695312 -101.730469 C 112.335938 -110.722656 102.800781 -114.917969 94.097656 -113.605469 C 86.265625 -112.421875 79.050781 -107.179688 76.925781 -97.660156 C 68.988281 -57.890625 55.410156 -43.675781 43.808594 -41.921875 C 37.136719 -40.914062 32.128906 -44.609375 31.296875 -50.121094 C 31.078125 -51.570312 31.148438 -53.066406 31.464844 -54.894531 Z M 31.464844 -54.894531 "/></g></g></g><g fill="#fd6155" fill-opacity="0.302"><g transform="translate(635.247486, 706.429759)"><g><path d="M 32.597656 -53.285156 L 66.875 -238.851562 C 67.507812 -242.507812 67.5625 -246.074219 67.125 -248.976562 C 65.460938 -259.996094 53.921875 -265.671875 45.21875 -264.359375 C 34.199219 -262.691406 27.867188 -255.507812 25.195312 -241.75 L -9.113281 -60.335938 C -10.425781 -53.3125 -10.667969 -47.046875 -9.746094 -40.953125 C -5.714844 -14.269531 18.566406 -2.804688 44.089844 -6.660156 C 71.648438 -10.820312 103.582031 -33.148438 114.773438 -96.550781 C 115.046875 -98.671875 115.03125 -100.746094 114.765625 -102.484375 C 113.363281 -111.769531 104.234375 -117.210938 95.242188 -115.855469 C 87.992188 -114.757812 80.816406 -109.226562 78.375 -97.878906 C 70.582031 -61.097656 55.992188 -43.761719 42.359375 -41.703125 C 36.554688 -40.828125 32.839844 -43.828125 32.183594 -48.179688 C 32.007812 -49.339844 32.28125 -51.457031 32.597656 -53.285156 Z M 32.597656 -53.285156 "/></g></g></g><g fill="#fd6155" fill-opacity="0.302"><g transform="translate(716.174901, 694.206004)"><g><path d="M 242.328125 -135.992188 C 234.496094 -134.8125 226.738281 -129.1875 225.242188 -119.46875 C 217.734375 -82.730469 203.929688 -66.109375 190.296875 -64.050781 C 184.492188 -63.171875 181.066406 -66.214844 180.410156 -70.566406 C 180.191406 -72.015625 179.972656 -73.46875 180.375 -74.714844 L 194.824219 -146.027344 C 195.730469 -151.800781 196.015625 -157.777344 195.269531 -162.710938 C 191.546875 -187.367188 167.46875 -199.453125 141.074219 -195.464844 C 130.628906 -193.890625 115.941406 -189 104.21875 -176.25 C 97.074219 -182.292969 86.539062 -187.230469 69.714844 -184.6875 C 57.820312 -182.890625 51.386719 -178.359375 46.648438 -174.378906 C 42.796875 -178.25 36.066406 -179.605469 29.683594 -178.640625 C 20.691406 -177.28125 12.066406 -171.53125 9.855469 -162.59375 L -16.355469 -21.859375 C -16.832031 -19.117188 -16.769531 -16.75 -16.464844 -14.722656 C -14.84375 -3.988281 -4.640625 0.699219 5.511719 -0.832031 C 15.375 -2.320312 24.359375 -9.613281 26.667969 -21.828125 L 46.203125 -126.25 C 50.410156 -139.640625 58.640625 -148.003906 67.34375 -149.320312 C 73.144531 -150.195312 77.6875 -147.617188 78.476562 -142.398438 C 78.695312 -140.945312 78.710938 -138.871094 78.148438 -136.710938 L 58.449219 -37.3125 C 57.570312 -33.320312 57.269531 -29.417969 57.75 -26.226562 C 59.414062 -15.203125 69.039062 -10.429688 78.898438 -11.917969 C 88.472656 -13.363281 98.039062 -20.742188 100.503906 -33.871094 L 119.625 -133.183594 C 122.65625 -148.476562 132.320312 -159.132812 141.890625 -160.582031 C 147.113281 -161.367188 151.699219 -158.5 152.53125 -152.988281 C 152.796875 -151.25 152.8125 -149.175781 152.335938 -146.433594 L 139.359375 -83.058594 C 138.046875 -76.035156 137.894531 -69.1875 138.816406 -63.097656 C 142.800781 -36.699219 166.792969 -25.191406 192.316406 -29.050781 C 221.035156 -33.386719 250.140625 -56.769531 261.390625 -117.808594 C 261.664062 -119.925781 261.9375 -122.042969 261.632812 -124.074219 C 260.230469 -133.359375 251.027344 -137.308594 242.328125 -135.992188 Z M 242.328125 -135.992188 "/></g></g></g><g fill="#fd6155" fill-opacity="0.302"><g transform="translate(944.163993, 659.769184)"><g><path d="M 134.421875 -103.96875 C 126.742188 -68.394531 98.34375 -50.160156 73.6875 -46.4375 C 52.511719 -43.238281 37.632812 -51.375 35.617188 -64.71875 C 35.222656 -67.328125 35.121094 -69.984375 35.84375 -73.058594 L 37.328125 -78.921875 C 46.53125 -74.96875 57.5 -73.066406 69.101562 -74.820312 C 95.5 -78.804688 116.207031 -98.847656 120.097656 -126.136719 C 120.714844 -131.867188 120.75 -137.507812 120.007812 -142.441406 C 115.84375 -169.996094 90.890625 -187.886719 58.113281 -182.933594 C 32.296875 -179.035156 9.335938 -160.140625 3.566406 -129.597656 L -6.054688 -77.410156 C -7.324219 -70.097656 -7.722656 -62.917969 -6.714844 -56.246094 C -1.5 -21.726562 34.230469 -5.171875 76.578125 -11.566406 C 116.898438 -17.65625 159.75 -44.304688 170.527344 -102.601562 C 171.046875 -105.050781 171.03125 -107.125 170.769531 -108.867188 C 169.410156 -117.859375 160.542969 -121.5625 151.839844 -120.25 C 143.71875 -119.023438 135.671875 -113.355469 134.421875 -103.96875 Z M 62.410156 -148.574219 C 70.535156 -149.800781 76.761719 -143.917969 78.035156 -135.507812 C 78.382812 -133.1875 78.445312 -130.820312 77.925781 -128.371094 C 76.46875 -118.359375 68.292969 -113.5625 59.589844 -112.25 C 54.078125 -111.417969 48.394531 -111.746094 43.980469 -113.453125 L 47.445312 -131.777344 C 49.277344 -141.25 55.742188 -147.566406 62.410156 -148.574219 Z M 62.410156 -148.574219 "/></g></g></g><g fill="#fd6155" fill-opacity="0.502"><g transform="translate(348.647077, 732.106284)"><g><path d="M 230.003906 -286.335938 L 102.082031 -267.011719 C 85.546875 -264.515625 80.074219 -253.601562 81.476562 -244.320312 C 82.789062 -235.617188 90.441406 -228.167969 100.886719 -229.746094 L 118.289062 -232.375 L 107.648438 -183 L 94.304688 -180.984375 C 78.640625 -178.617188 72.546875 -167.90625 73.949219 -158.625 C 75.304688 -149.632812 83.582031 -141.980469 97.507812 -144.085938 L 100.40625 -144.523438 L 89.121094 -87.632812 C 83.378906 -58.878906 72.5625 -51.902344 57.480469 -49.625 C 47.035156 -48.046875 38.734375 -53.914062 35.070312 -60.480469 C 35.34375 -62.601562 35.328125 -64.675781 35.023438 -66.703125 C 33.007812 -80.046875 19.886719 -86.375 8.574219 -84.664062 C -3.03125 -82.914062 -13.40625 -73.039062 -10.601562 -54.472656 C -6.4375 -26.917969 25.238281 -3.8125 63.234375 -9.550781 C 93.113281 -14.0625 120.351562 -32.125 129.875 -81.03125 C 133.769531 -102.390625 139.398438 -129.941406 143.585938 -151.339844 L 160.988281 -153.96875 C 178.683594 -156.644531 184.109375 -167.847656 182.664062 -177.417969 C 181.394531 -185.832031 174.65625 -193.121094 165.953125 -191.808594 L 150.871094 -189.527344 L 160.058594 -238.683594 L 228.226562 -248.980469 C 244.382812 -252.015625 249.945312 -262.347656 248.542969 -271.628906 C 247.226562 -280.332031 239.863281 -287.824219 230.003906 -286.335938 Z M 230.003906 -286.335938 "/></g></g></g><g fill="#fd6155" fill-opacity="0.502"><g transform="translate(541.828659, 702.926996)"><g><path d="M 48.28125 -208.746094 C 61.332031 -210.71875 70.445312 -223.070312 68.429688 -236.414062 C 66.457031 -249.46875 54.148438 -258.289062 41.09375 -256.316406 C 28.039062 -254.347656 18.886719 -242.28125 20.855469 -229.230469 C 22.871094 -215.886719 35.226562 -206.773438 48.28125 -208.746094 Z M 31.464844 -54.894531 L 49.617188 -150.796875 C 50.207031 -154.742188 51.042969 -159.023438 50.605469 -161.921875 C 48.675781 -174.6875 38.097656 -179.910156 28.234375 -178.421875 C 19.242188 -177.0625 10.632812 -169.238281 8.050781 -154.902344 C 2.886719 -126.234375 -4.082031 -89.875 -9.289062 -61.496094 C -10.152344 -55.429688 -11.289062 -47.25 -10.546875 -42.316406 C -6.425781 -15.050781 18.566406 -2.804688 45.25 -6.835938 C 73.679688 -11.128906 102.378906 -33.265625 113.613281 -96.378906 C 113.929688 -98.207031 113.957031 -99.988281 113.695312 -101.730469 C 112.335938 -110.722656 102.800781 -114.917969 94.097656 -113.605469 C 86.265625 -112.421875 79.050781 -107.179688 76.925781 -97.660156 C 68.988281 -57.890625 55.410156 -43.675781 43.808594 -41.921875 C 37.136719 -40.914062 32.128906 -44.609375 31.296875 -50.121094 C 31.078125 -51.570312 31.148438 -53.066406 31.464844 -54.894531 Z M 31.464844 -54.894531 "/></g></g></g><g fill="#fd6155" fill-opacity="0.502"><g transform="translate(621.885884, 690.83468)"><g><path d="M 32.597656 -53.285156 L 66.875 -238.851562 C 67.507812 -242.507812 67.5625 -246.074219 67.125 -248.976562 C 65.460938 -259.996094 53.921875 -265.671875 45.21875 -264.359375 C 34.199219 -262.691406 27.867188 -255.507812 25.195312 -241.75 L -9.113281 -60.335938 C -10.425781 -53.3125 -10.667969 -47.046875 -9.746094 -40.953125 C -5.714844 -14.269531 18.566406 -2.804688 44.089844 -6.660156 C 71.648438 -10.820312 103.582031 -33.148438 114.773438 -96.550781 C 115.046875 -98.671875 115.03125 -100.746094 114.765625 -102.484375 C 113.363281 -111.769531 104.234375 -117.210938 95.242188 -115.855469 C 87.992188 -114.757812 80.816406 -109.226562 78.375 -97.878906 C 70.582031 -61.097656 55.992188 -43.761719 42.359375 -41.703125 C 36.554688 -40.828125 32.839844 -43.828125 32.183594 -48.179688 C 32.007812 -49.339844 32.28125 -51.457031 32.597656 -53.285156 Z M 32.597656 -53.285156 "/></g></g></g><g fill="#fd6155" fill-opacity="0.502"><g transform="translate(702.813299, 678.610925)"><g><path d="M 242.328125 -135.992188 C 234.496094 -134.8125 226.738281 -129.1875 225.242188 -119.46875 C 217.734375 -82.730469 203.929688 -66.109375 190.296875 -64.050781 C 184.492188 -63.171875 181.066406 -66.214844 180.410156 -70.566406 C 180.191406 -72.015625 179.972656 -73.46875 180.375 -74.714844 L 194.824219 -146.027344 C 195.730469 -151.800781 196.015625 -157.777344 195.269531 -162.710938 C 191.546875 -187.367188 167.46875 -199.453125 141.074219 -195.464844 C 130.628906 -193.890625 115.941406 -189 104.21875 -176.25 C 97.074219 -182.292969 86.539062 -187.230469 69.714844 -184.6875 C 57.820312 -182.890625 51.386719 -178.359375 46.648438 -174.378906 C 42.796875 -178.25 36.066406 -179.605469 29.683594 -178.640625 C 20.691406 -177.28125 12.066406 -171.53125 9.855469 -162.59375 L -16.355469 -21.859375 C -16.832031 -19.117188 -16.769531 -16.75 -16.464844 -14.722656 C -14.84375 -3.988281 -4.640625 0.699219 5.511719 -0.832031 C 15.375 -2.320312 24.359375 -9.613281 26.667969 -21.828125 L 46.203125 -126.25 C 50.410156 -139.640625 58.640625 -148.003906 67.34375 -149.320312 C 73.144531 -150.195312 77.6875 -147.617188 78.476562 -142.398438 C 78.695312 -140.945312 78.710938 -138.871094 78.148438 -136.710938 L 58.449219 -37.3125 C 57.570312 -33.320312 57.269531 -29.417969 57.75 -26.226562 C 59.414062 -15.203125 69.039062 -10.429688 78.898438 -11.917969 C 88.472656 -13.363281 98.039062 -20.742188 100.503906 -33.871094 L 119.625 -133.183594 C 122.65625 -148.476562 132.320312 -159.132812 141.890625 -160.582031 C 147.113281 -161.367188 151.699219 -158.5 152.53125 -152.988281 C 152.796875 -151.25 152.8125 -149.175781 152.335938 -146.433594 L 139.359375 -83.058594 C 138.046875 -76.035156 137.894531 -69.1875 138.816406 -63.097656 C 142.800781 -36.699219 166.792969 -25.191406 192.316406 -29.050781 C 221.035156 -33.386719 250.140625 -56.769531 261.390625 -117.808594 C 261.664062 -119.925781 261.9375 -122.042969 261.632812 -124.074219 C 260.230469 -133.359375 251.027344 -137.308594 242.328125 -135.992188 Z M 242.328125 -135.992188 "/></g></g></g><g fill="#fd6155" fill-opacity="0.502"><g transform="translate(930.802391, 644.174105)"><g><path d="M 134.421875 -103.96875 C 126.742188 -68.394531 98.34375 -50.160156 73.6875 -46.4375 C 52.511719 -43.238281 37.632812 -51.375 35.617188 -64.71875 C 35.222656 -67.328125 35.121094 -69.984375 35.84375 -73.058594 L 37.328125 -78.921875 C 46.53125 -74.96875 57.5 -73.066406 69.101562 -74.820312 C 95.5 -78.804688 116.207031 -98.847656 120.097656 -126.136719 C 120.714844 -131.867188 120.75 -137.507812 120.007812 -142.441406 C 115.84375 -169.996094 90.890625 -187.886719 58.113281 -182.933594 C 32.296875 -179.035156 9.335938 -160.140625 3.566406 -129.597656 L -6.054688 -77.410156 C -7.324219 -70.097656 -7.722656 -62.917969 -6.714844 -56.246094 C -1.5 -21.726562 34.230469 -5.171875 76.578125 -11.566406 C 116.898438 -17.65625 159.75 -44.304688 170.527344 -102.601562 C 171.046875 -105.050781 171.03125 -107.125 170.769531 -108.867188 C 169.410156 -117.859375 160.542969 -121.5625 151.839844 -120.25 C 143.71875 -119.023438 135.671875 -113.355469 134.421875 -103.96875 Z M 62.410156 -148.574219 C 70.535156 -149.800781 76.761719 -143.917969 78.035156 -135.507812 C 78.382812 -133.1875 78.445312 -130.820312 77.925781 -128.371094 C 76.46875 -118.359375 68.292969 -113.5625 59.589844 -112.25 C 54.078125 -111.417969 48.394531 -111.746094 43.980469 -113.453125 L 47.445312 -131.777344 C 49.277344 -141.25 55.742188 -147.566406 62.410156 -148.574219 Z M 62.410156 -148.574219 "/></g></g></g><g fill="#ffe97d" fill-opacity="1"><g transform="translate(335.285469, 716.511156)"><g><path d="M 230.003906 -286.335938 L 102.082031 -267.011719 C 85.546875 -264.515625 80.074219 -253.601562 81.476562 -244.320312 C 82.789062 -235.617188 90.441406 -228.167969 100.886719 -229.746094 L 118.289062 -232.375 L 107.648438 -183 L 94.304688 -180.984375 C 78.640625 -178.617188 72.546875 -167.90625 73.949219 -158.625 C 75.304688 -149.632812 83.582031 -141.980469 97.507812 -144.085938 L 100.40625 -144.523438 L 89.121094 -87.632812 C 83.378906 -58.878906 72.5625 -51.902344 57.480469 -49.625 C 47.035156 -48.046875 38.734375 -53.914062 35.070312 -60.480469 C 35.34375 -62.601562 35.328125 -64.675781 35.023438 -66.703125 C 33.007812 -80.046875 19.886719 -86.375 8.574219 -84.664062 C -3.03125 -82.914062 -13.40625 -73.039062 -10.601562 -54.472656 C -6.4375 -26.917969 25.238281 -3.8125 63.234375 -9.550781 C 93.113281 -14.0625 120.351562 -32.125 129.875 -81.03125 C 133.769531 -102.390625 139.398438 -129.941406 143.585938 -151.339844 L 160.988281 -153.96875 C 178.683594 -156.644531 184.109375 -167.847656 182.664062 -177.417969 C 181.394531 -185.832031 174.65625 -193.121094 165.953125 -191.808594 L 150.871094 -189.527344 L 160.058594 -238.683594 L 228.226562 -248.980469 C 244.382812 -252.015625 249.945312 -262.347656 248.542969 -271.628906 C 247.226562 -280.332031 239.863281 -287.824219 230.003906 -286.335938 Z M 230.003906 -286.335938 "/></g></g></g><g fill="#ffe97d" fill-opacity="1"><g transform="translate(528.467051, 687.331869)"><g><path d="M 48.28125 -208.746094 C 61.332031 -210.71875 70.445312 -223.070312 68.429688 -236.414062 C 66.457031 -249.46875 54.148438 -258.289062 41.09375 -256.316406 C 28.039062 -254.347656 18.886719 -242.28125 20.855469 -229.230469 C 22.871094 -215.886719 35.226562 -206.773438 48.28125 -208.746094 Z M 31.464844 -54.894531 L 49.617188 -150.796875 C 50.207031 -154.742188 51.042969 -159.023438 50.605469 -161.921875 C 48.675781 -174.6875 38.097656 -179.910156 28.234375 -178.421875 C 19.242188 -177.0625 10.632812 -169.238281 8.050781 -154.902344 C 2.886719 -126.234375 -4.082031 -89.875 -9.289062 -61.496094 C -10.152344 -55.429688 -11.289062 -47.25 -10.546875 -42.316406 C -6.425781 -15.050781 18.566406 -2.804688 45.25 -6.835938 C 73.679688 -11.128906 102.378906 -33.265625 113.613281 -96.378906 C 113.929688 -98.207031 113.957031 -99.988281 113.695312 -101.730469 C 112.335938 -110.722656 102.800781 -114.917969 94.097656 -113.605469 C 86.265625 -112.421875 79.050781 -107.179688 76.925781 -97.660156 C 68.988281 -57.890625 55.410156 -43.675781 43.808594 -41.921875 C 37.136719 -40.914062 32.128906 -44.609375 31.296875 -50.121094 C 31.078125 -51.570312 31.148438 -53.066406 31.464844 -54.894531 Z M 31.464844 -54.894531 "/></g></g></g><g fill="#ffe97d" fill-opacity="1"><g transform="translate(608.524276, 675.239552)"><g><path d="M 32.597656 -53.285156 L 66.875 -238.851562 C 67.507812 -242.507812 67.5625 -246.074219 67.125 -248.976562 C 65.460938 -259.996094 53.921875 -265.671875 45.21875 -264.359375 C 34.199219 -262.691406 27.867188 -255.507812 25.195312 -241.75 L -9.113281 -60.335938 C -10.425781 -53.3125 -10.667969 -47.046875 -9.746094 -40.953125 C -5.714844 -14.269531 18.566406 -2.804688 44.089844 -6.660156 C 71.648438 -10.820312 103.582031 -33.148438 114.773438 -96.550781 C 115.046875 -98.671875 115.03125 -100.746094 114.765625 -102.484375 C 113.363281 -111.769531 104.234375 -117.210938 95.242188 -115.855469 C 87.992188 -114.757812 80.816406 -109.226562 78.375 -97.878906 C 70.582031 -61.097656 55.992188 -43.761719 42.359375 -41.703125 C 36.554688 -40.828125 32.839844 -43.828125 32.183594 -48.179688 C 32.007812 -49.339844 32.28125 -51.457031 32.597656 -53.285156 Z M 32.597656 -53.285156 "/></g></g></g><g fill="#ffe97d" fill-opacity="1"><g transform="translate(689.451691, 663.015798)"><g><path d="M 242.328125 -135.992188 C 234.496094 -134.8125 226.738281 -129.1875 225.242188 -119.46875 C 217.734375 -82.730469 203.929688 -66.109375 190.296875 -64.050781 C 184.492188 -63.171875 181.066406 -66.214844 180.410156 -70.566406 C 180.191406 -72.015625 179.972656 -73.46875 180.375 -74.714844 L 194.824219 -146.027344 C 195.730469 -151.800781 196.015625 -157.777344 195.269531 -162.710938 C 191.546875 -187.367188 167.46875 -199.453125 141.074219 -195.464844 C 130.628906 -193.890625 115.941406 -189 104.21875 -176.25 C 97.074219 -182.292969 86.539062 -187.230469 69.714844 -184.6875 C 57.820312 -182.890625 51.386719 -178.359375 46.648438 -174.378906 C 42.796875 -178.25 36.066406 -179.605469 29.683594 -178.640625 C 20.691406 -177.28125 12.066406 -171.53125 9.855469 -162.59375 L -16.355469 -21.859375 C -16.832031 -19.117188 -16.769531 -16.75 -16.464844 -14.722656 C -14.84375 -3.988281 -4.640625 0.699219 5.511719 -0.832031 C 15.375 -2.320312 24.359375 -9.613281 26.667969 -21.828125 L 46.203125 -126.25 C 50.410156 -139.640625 58.640625 -148.003906 67.34375 -149.320312 C 73.144531 -150.195312 77.6875 -147.617188 78.476562 -142.398438 C 78.695312 -140.945312 78.710938 -138.871094 78.148438 -136.710938 L 58.449219 -37.3125 C 57.570312 -33.320312 57.269531 -29.417969 57.75 -26.226562 C 59.414062 -15.203125 69.039062 -10.429688 78.898438 -11.917969 C 88.472656 -13.363281 98.039062 -20.742188 100.503906 -33.871094 L 119.625 -133.183594 C 122.65625 -148.476562 132.320312 -159.132812 141.890625 -160.582031 C 147.113281 -161.367188 151.699219 -158.5 152.53125 -152.988281 C 152.796875 -151.25 152.8125 -149.175781 152.335938 -146.433594 L 139.359375 -83.058594 C 138.046875 -76.035156 137.894531 -69.1875 138.816406 -63.097656 C 142.800781 -36.699219 166.792969 -25.191406 192.316406 -29.050781 C 221.035156 -33.386719 250.140625 -56.769531 261.390625 -117.808594 C 261.664062 -119.925781 261.9375 -122.042969 261.632812 -124.074219 C 260.230469 -133.359375 251.027344 -137.308594 242.328125 -135.992188 Z M 242.328125 -135.992188 "/></g></g></g><g fill="#ffe97d" fill-opacity="1"><g transform="translate(917.440783, 628.578978)"><g><path d="M 134.421875 -103.96875 C 126.742188 -68.394531 98.34375 -50.160156 73.6875 -46.4375 C 52.511719 -43.238281 37.632812 -51.375 35.617188 -64.71875 C 35.222656 -67.328125 35.121094 -69.984375 35.84375 -73.058594 L 37.328125 -78.921875 C 46.53125 -74.96875 57.5 -73.066406 69.101562 -74.820312 C 95.5 -78.804688 116.207031 -98.847656 120.097656 -126.136719 C 120.714844 -131.867188 120.75 -137.507812 120.007812 -142.441406 C 115.84375 -169.996094 90.890625 -187.886719 58.113281 -182.933594 C 32.296875 -179.035156 9.335938 -160.140625 3.566406 -129.597656 L -6.054688 -77.410156 C -7.324219 -70.097656 -7.722656 -62.917969 -6.714844 -56.246094 C -1.5 -21.726562 34.230469 -5.171875 76.578125 -11.566406 C 116.898438 -17.65625 159.75 -44.304688 170.527344 -102.601562 C 171.046875 -105.050781 171.03125 -107.125 170.769531 -108.867188 C 169.410156 -117.859375 160.542969 -121.5625 151.839844 -120.25 C 143.71875 -119.023438 135.671875 -113.355469 134.421875 -103.96875 Z M 62.410156 -148.574219 C 70.535156 -149.800781 76.761719 -143.917969 78.035156 -135.507812 C 78.382812 -133.1875 78.445312 -130.820312 77.925781 -128.371094 C 76.46875 -118.359375 68.292969 -113.5625 59.589844 -112.25 C 54.078125 -111.417969 48.394531 -111.746094 43.980469 -113.453125 L 47.445312 -131.777344 C 49.277344 -141.25 55.742188 -147.566406 62.410156 -148.574219 Z M 62.410156 -148.574219 "/></g></g></g></svg>